<?xml version="1.0" encoding="UTF-8"?>
<!DOCTYPE svg PUBLIC "-//W3C//DTD SVG 1.1//EN" "http://www.w3.org/Graphics/SVG/1.1/DTD/svg11.dtd">
<svg xmlns="http://www.w3.org/2000/svg" width="1060" height="1600" fill="black" stroke="gray" stroke-width="1">
<text x= "0" y="30" text-anchor="start" stroke="brown">Linux 4.15.0-58-generic (docker-host-1) 	08/25/19 	_x86_64_	(2 CPU)
</text>
<g id="g0" transform="translate(0,50)">
<rect x="0" y="0" height="300" width="1050"/>
<text x="0" y="20" style="fill: yellow; stroke: none">CPU load [all]
<tspan x="795" y="25" style="fill: yellow; stroke: none; font-size: 12px">(Min, Max values)</tspan>
</text>
<polyline points="70,50 70,250 790,250" stroke="white" stroke-width="2"/>
<text x="795" y="50" style="fill: #00cc00; stroke: none; font-size: 12px">%usr (0.53, 21.61)</text>
<text x="795" y="65" style="fill: #ff00bf; stroke: none; font-size: 12px">%nice (0.00, 0.00)</text>
<text x="795" y="80" style="fill: #00ffff; stroke: none; font-size: 12px">%sys (0.00, 75.92)</text>
<text x="795" y="95" style="fill: #ff0000; stroke: none; font-size: 12px">%iowait (0.00, 48.99)</text>
<text x="795" y="110" style="fill: #e85f00; stroke: none; font-size: 12px">%steal (0.00, 0.52)</text>
<text x="795" y="125" style="fill: #0000ff; stroke: none; font-size: 12px">%irq (0.00, 0.00)</text>
<text x="795" y="140" style="fill: #006020; stroke: none; font-size: 12px">%soft (0.00, 32.81)</text>
<text x="795" y="155" style="fill: #7030a0; stroke: none; font-size: 12px">%guest (0.00, 0.00)</text>
<text x="795" y="170" style="fill: #ffff00; stroke: none; font-size: 12px">%gnice (0.00, 0.00)</text>
<g transform="translate(70,250)">
<text x="0" y="0" style="fill: white; stroke: none; font-size: 12px; text-anchor: end">0.</text>
<polyline points="0,25.00 720,25.00" style="vector-effect: non-scaling-stroke; stroke: #202020" transform="scale(1,-2.000000)"/>
<text x="0" y="-50" style="fill: white; stroke: none; font-size: 12px; text-anchor: end">25.</text>
<polyline points="0,50.00 720,50.00" style="vector-effect: non-scaling-stroke; stroke: #202020" transform="scale(1,-2.000000)"/>
<text x="0" y="-100" style="fill: white; stroke: none; font-size: 12px; text-anchor: end">50.</text>
<polyline points="0,75.00 720,75.00" style="vector-effect: non-scaling-stroke; stroke: #202020" transform="scale(1,-2.000000)"/>
<text x="0" y="-150" style="fill: white; stroke: none; font-size: 12px; text-anchor: end">75.</text>
<polyline points="0,100.00 720,100.00" style="vector-effect: non-scaling-stroke; stroke: #202020" transform="scale(1,-2.000000)"/>
<text x="0" y="-200" style="fill: white; stroke: none; font-size: 12px; text-anchor: end">100.</text>
<polyline points="0,0 0,-200" style="vector-effect: non-scaling-stroke; stroke: #202020" transform="scale(6.000000,1)"/>
<text x="0" y="10" style="fill: white; stroke: none; font-size: 12px; text-anchor: start" transform="rotate(45,0,0)">13:59:32</text>
<polyline points="12,0 12,-200" style="vector-effect: non-scaling-stroke; stroke: #202020" transform="scale(6.000000,1)"/>
<text x="72" y="10" style="fill: white; stroke: none; font-size: 12px; text-anchor: start" transform="rotate(45,72,0)">13:59:44</text>
<polyline points="24,0 24,-200" style="vector-effect: non-scaling-stroke; stroke: #202020" transform="scale(6.000000,1)"/>
<text x="144" y="10" style="fill: white; stroke: none; font-size: 12px; text-anchor: start" transform="rotate(45,144,0)">13:59:56</text>
<polyline points="36,0 36,-200" style="vector-effect: non-scaling-stroke; stroke: #202020" transform="scale(6.000000,1)"/>
<text x="216" y="10" style="fill: white; stroke: none; font-size: 12px; text-anchor: start" transform="rotate(45,216,0)">14:00:08</text>
<polyline points="48,0 48,-200" style="vector-effect: non-scaling-stroke; stroke: #202020" transform="scale(6.000000,1)"/>
<text x="288" y="10" style="fill: white; stroke: none; font-size: 12px; text-anchor: start" transform="rotate(45,288,0)">14:00:20</text>
<polyline points="60,0 60,-200" style="vector-effect: non-scaling-stroke; stroke: #202020" transform="scale(6.000000,1)"/>
<text x="360" y="10" style="fill: white; stroke: none; font-size: 12px; text-anchor: start" transform="rotate(45,360,0)">14:00:32</text>
<polyline points="72,0 72,-200" style="vector-effect: non-scaling-stroke; stroke: #202020" transform="scale(6.000000,1)"/>
<text x="432" y="10" style="fill: white; stroke: none; font-size: 12px; text-anchor: start" transform="rotate(45,432,0)">14:00:44</text>
<polyline points="84,0 84,-200" style="vector-effect: non-scaling-stroke; stroke: #202020" transform="scale(6.000000,1)"/>
<text x="504" y="10" style="fill: white; stroke: none; font-size: 12px; text-anchor: start" transform="rotate(45,504,0)">14:00:56</text>
<polyline points="96,0 96,-200" style="vector-effect: non-scaling-stroke; stroke: #202020" transform="scale(6.000000,1)"/>
<text x="576" y="10" style="fill: white; stroke: none; font-size: 12px; text-anchor: start" transform="rotate(45,576,0)">14:01:08</text>
<polyline points="108,0 108,-200" style="vector-effect: non-scaling-stroke; stroke: #202020" transform="scale(6.000000,1)"/>
<text x="648" y="10" style="fill: white; stroke: none; font-size: 12px; text-anchor: start" transform="rotate(45,648,0)">14:01:20</text>
<polyline points="120,0 120,-200" style="vector-effect: non-scaling-stroke; stroke: #202020" transform="scale(6.000000,1)"/>
<text x="720" y="10" style="fill: white; stroke: none; font-size: 12px; text-anchor: start" transform="rotate(45,720,0)">14:01:32</text>
<text x="-10" y="30" style="fill: yellow; stroke: none; font-size: 12px; text-anchor: end">UTC</text>
<g style="fill: #00cc00; stroke: none" transform="scale(6.000000,-2.000000)">
<rect x="0" y="0.00" height="21.61" width="1"/><rect x="1" y="0.00" height="7.11" width="1"/><rect x="2" y="0.00" height="13.27" width="1"/><rect x="3" y="0.00" height="11.79" width="1"/><rect x="4" y="0.00" height="16.58" width="1"/><rect x="5" y="0.00" height="2.53" width="1"/><rect x="6" y="0.00" height="8.54" width="1"/><rect x="7" y="0.00" height="13.85" width="1"/><rect x="8" y="0.00" height="9.23" width="1"/><rect x="9" y="0.00" height="2.63" width="1"/><rect x="10" y="0.00" height="1.60" width="1"/><rect x="11" y="0.00" height="1.54" width="1"/><rect x="12" y="0.00" height="2.06" width="1"/><rect x="13" y="0.00" height="4.12" width="1"/><rect x="14" y="0.00" height="2.03" width="1"/><rect x="15" y="0.00" height="4.10" width="1"/><rect x="16" y="0.00" height="2.63" width="1"/><rect x="17" y="0.00" height="1.06" width="1"/><rect x="18" y="0.00" height="3.68" width="1"/><rect x="19" y="0.00" height="3.65" width="1"/><rect x="20" y="0.00" height="2.58" width="1"/><rect x="21" y="0.00" height="4.02" width="1"/><rect x="22" y="0.00" height="2.05" width="1"/><rect x="23" y="0.00" height="3.61" width="1"/><rect x="24" y="0.00" height="2.59" width="1"/><rect x="25" y="0.00" height="4.04" width="1"/><rect x="26" y="0.00" height="3.66" width="1"/><rect x="27" y="0.00" height="1.58" width="1"/><rect x="28" y="0.00" height="2.08" width="1"/><rect x="29" y="0.00" height="2.60" width="1"/><rect x="30" y="0.00" height="3.11" width="1"/><rect x="31" y="0.00" height="3.21" width="1"/><rect x="32" y="0.00" height="1.56" width="1"/><rect x="33" y="0.00" height="3.14" width="1"/><rect x="34" y="0.00" height="2.60" width="1"/><rect x="35" y="0.00" height="1.60" width="1"/><rect x="36" y="0.00" height="4.15" width="1"/><rect x="37" y="0.00" height="1.56" width="1"/><rect x="38" y="0.00" height="3.08" width="1"/><rect x="39" y="0.00" height="2.54" width="1"/><rect x="40" y="0.00" height="2.58" width="1"/><rect x="41" y="0.00" height="2.62" width="1"/><rect x="42" y="0.00" height="1.54" width="1"/><rect x="43" y="0.00" height="2.54" width="1"/><rect x="44" y="0.00" height="3.61" width="1"/><rect x="45" y="0.00" height="3.16" width="1"/><rect x="46" y="0.00" height="3.55" width="1"/><rect x="47" y="0.00" height="3.09" width="1"/><rect x="48" y="0.00" height="3.08" width="1"/><rect x="49" y="0.00" height="3.61" width="1"/><rect x="50" y="0.00" height="2.60" width="1"/><rect x="51" y="0.00" height="2.59" width="1"/><rect x="52" y="0.00" height="2.60" width="1"/><rect x="53" y="0.00" height="3.11" width="1"/><rect x="54" y="0.00" height="4.15" width="1"/><rect x="55" y="0.00" height="3.57" width="1"/><rect x="56" y="0.00" height="2.06" width="1"/><rect x="57" y="0.00" height="3.12" width="1"/><rect x="58" y="0.00" height="3.11" width="1"/><rect x="59" y="0.00" height="2.58" width="1"/><rect x="60" y="0.00" height="4.10" width="1"/><rect x="61" y="0.00" height="3.57" width="1"/><rect x="62" y="0.00" height="2.60" width="1"/><rect x="63" y="0.00" height="2.54" width="1"/><rect x="64" y="0.00" height="4.10" width="1"/><rect x="65" y="0.00" height="3.72" width="1"/><rect x="66" y="0.00" height="1.53" width="1"/><rect x="67" y="0.00" height="4.15" width="1"/><rect x="68" y="0.00" height="1.58" width="1"/><rect x="69" y="0.00" height="4.64" width="1"/><rect x="70" y="0.00" height="1.55" width="1"/><rect x="71" y="0.00" height="3.06" width="1"/><rect x="72" y="0.00" height="3.19" width="1"/><rect x="73" y="0.00" height="2.06" width="1"/><rect x="74" y="0.00" height="1.06" width="1"/><rect x="75" y="0.00" height="3.12" width="1"/><rect x="76" y="0.00" height="2.09" width="1"/><rect x="77" y="0.00" height="3.19" width="1"/><rect x="78" y="0.00" height="3.59" width="1"/><rect x="79" y="0.00" height="3.66" width="1"/><rect x="80" y="0.00" height="3.59" width="1"/><rect x="81" y="0.00" height="3.09" width="1"/><rect x="82" y="0.00" height="3.55" width="1"/><rect x="83" y="0.00" height="2.60" width="1"/><rect x="84" y="0.00" height="4.59" width="1"/><rect x="85" y="0.00" height="3.70" width="1"/><rect x="86" y="0.00" height="2.09" width="1"/><rect x="87" y="0.00" height="2.62" width="1"/><rect x="88" y="0.00" height="2.07" width="1"/><rect x="89" y="0.00" height="3.54" width="1"/><rect x="90" y="0.00" height="3.12" width="1"/><rect x="91" y="0.00" height="2.62" width="1"/><rect x="92" y="0.00" height="4.15" width="1"/><rect x="93" y="0.00" height="3.17" width="1"/><rect x="94" y="0.00" height="3.12" width="1"/><rect x="95" y="0.00" height="2.58" width="1"/><rect x="96" y="0.00" height="2.06" width="1"/><rect x="97" y="0.00" height="2.58" width="1"/><rect x="98" y="0.00" height="0.53" width="1"/><rect x="99" y="0.00" height="2.62" width="1"/><rect x="100" y="0.00" height="2.59" width="1"/><rect x="101" y="0.00" height="2.09" width="1"/><rect x="102" y="0.00" height="3.74" width="1"/><rect x="103" y="0.00" height="3.57" width="1"/><rect x="104" y="0.00" height="2.63" width="1"/><rect x="105" y="0.00" height="2.66" width="1"/><rect x="106" y="0.00" height="3.65" width="1"/><rect x="107" y="0.00" height="4.10" width="1"/><rect x="108" y="0.00" height="1.52" width="1"/><rect x="109" y="0.00" height="5.21" width="1"/><rect x="110" y="0.00" height="2.04" width="1"/><rect x="111" y="0.00" height="2.59" width="1"/><rect x="112" y="0.00" height="3.09" width="1"/><rect x="113" y="0.00" height="4.10" width="1"/><rect x="114" y="0.00" height="2.09" width="1"/><rect x="115" y="0.00" height="2.62" width="1"/><rect x="116" y="0.00" height="4.08" width="1"/><rect x="117" y="0.00" height="3.59" width="1"/><rect x="118" y="0.00" height="2.60" width="1"/><rect x="119" y="0.00" height="2.08" width="1"/>
</g>
<g style="fill: #00ffff; stroke: none" transform="scale(6.000000,-2.000000)">
<rect x="0" y="21.61" height="3.52" width="1"/><rect x="1" y="7.11" height="6.09" width="1"/><rect x="2" y="13.27" height="11.22" width="1"/><rect x="3" y="11.79" height="8.21" width="1"/><rect x="4" y="16.58" height="4.02" width="1"/><rect x="6" y="8.54" height="7.04" width="1"/><rect x="7" y="13.85" height="5.64" width="1"/><rect x="8" y="9.23" height="58.46" width="1"/><rect x="9" y="2.63" height="72.63" width="1"/><rect x="10" y="1.60" height="72.19" width="1"/><rect x="11" y="1.54" height="71.79" width="1"/><rect x="12" y="2.06" height="73.71" width="1"/><rect x="13" y="4.12" height="65.46" width="1"/><rect x="14" y="2.03" height="70.05" width="1"/><rect x="15" y="4.10" height="71.79" width="1"/><rect x="16" y="2.63" height="68.95" width="1"/><rect x="17" y="1.06" height="67.55" width="1"/><rect x="18" y="3.68" height="74.21" width="1"/><rect x="19" y="3.65" height="70.31" width="1"/><rect x="20" y="2.58" height="69.07" width="1"/><rect x="21" y="4.02" height="71.36" width="1"/><rect x="22" y="2.05" height="73.85" width="1"/><rect x="23" y="3.61" height="69.07" width="1"/><rect x="24" y="2.59" height="68.39" width="1"/><rect x="25" y="4.04" height="63.64" width="1"/><rect x="26" y="3.66" height="70.16" width="1"/><rect x="27" y="1.58" height="74.74" width="1"/><rect x="28" y="2.08" height="72.40" width="1"/><rect x="29" y="2.60" height="73.44" width="1"/><rect x="30" y="3.11" height="72.54" width="1"/><rect x="31" y="3.21" height="71.12" width="1"/><rect x="32" y="1.56" height="68.75" width="1"/><rect x="33" y="3.14" height="66.49" width="1"/><rect x="34" y="2.60" height="72.40" width="1"/><rect x="35" y="1.60" height="75.53" width="1"/><rect x="36" y="4.15" height="69.43" width="1"/><rect x="37" y="1.56" height="68.23" width="1"/><rect x="38" y="3.08" height="69.74" width="1"/><rect x="39" y="2.54" height="67.51" width="1"/><rect x="40" y="2.58" height="72.16" width="1"/><rect x="41" y="2.62" height="68.06" width="1"/><rect x="42" y="1.54" height="65.64" width="1"/><rect x="43" y="2.54" height="70.05" width="1"/><rect x="44" y="3.61" height="68.56" width="1"/><rect x="45" y="3.16" height="68.95" width="1"/><rect x="46" y="3.55" height="66.50" width="1"/><rect x="47" y="3.09" height="72.16" width="1"/><rect x="48" y="3.08" height="72.82" width="1"/><rect x="49" y="3.61" height="71.65" width="1"/><rect x="50" y="2.60" height="68.23" width="1"/><rect x="51" y="2.59" height="72.02" width="1"/><rect x="52" y="2.60" height="67.19" width="1"/><rect x="53" y="3.11" height="67.36" width="1"/><rect x="54" y="4.15" height="67.36" width="1"/><rect x="55" y="3.57" height="66.33" width="1"/><rect x="56" y="2.06" height="71.13" width="1"/><rect x="57" y="3.12" height="68.75" width="1"/><rect x="58" y="3.11" height="72.54" width="1"/><rect x="59" y="2.58" height="72.16" width="1"/><rect x="60" y="4.10" height="67.18" width="1"/><rect x="61" y="3.57" height="64.29" width="1"/><rect x="62" y="2.60" height="66.67" width="1"/><rect x="63" y="2.54" height="72.59" width="1"/><rect x="64" y="4.10" height="65.64" width="1"/><rect x="65" y="3.72" height="72.87" width="1"/><rect x="66" y="1.53" height="66.33" width="1"/><rect x="67" y="4.15" height="70.98" width="1"/><rect x="68" y="1.58" height="72.11" width="1"/><rect x="69" y="4.64" height="68.04" width="1"/><rect x="70" y="1.55" height="69.59" width="1"/><rect x="71" y="3.06" height="71.43" width="1"/><rect x="72" y="3.19" height="70.21" width="1"/><rect x="73" y="2.06" height="70.10" width="1"/><rect x="74" y="1.06" height="74.07" width="1"/><rect x="75" y="3.12" height="69.27" width="1"/><rect x="76" y="2.09" height="72.25" width="1"/><rect x="77" y="3.19" height="73.40" width="1"/><rect x="78" y="3.59" height="69.74" width="1"/><rect x="79" y="3.66" height="70.68" width="1"/><rect x="80" y="3.59" height="68.21" width="1"/><rect x="81" y="3.09" height="72.16" width="1"/><rect x="82" y="3.55" height="75.63" width="1"/><rect x="83" y="2.60" height="67.19" width="1"/><rect x="84" y="4.59" height="68.88" width="1"/><rect x="85" y="3.70" height="66.67" width="1"/><rect x="86" y="2.09" height="69.11" width="1"/><rect x="87" y="2.62" height="72.77" width="1"/><rect x="88" y="2.07" height="69.43" width="1"/><rect x="89" y="3.54" height="68.69" width="1"/><rect x="90" y="3.12" height="75.00" width="1"/><rect x="91" y="2.62" height="69.63" width="1"/><rect x="92" y="4.15" height="68.39" width="1"/><rect x="93" y="3.17" height="70.37" width="1"/><rect x="94" y="3.12" height="64.58" width="1"/><rect x="95" y="2.58" height="70.62" width="1"/><rect x="96" y="2.06" height="69.59" width="1"/><rect x="97" y="2.58" height="65.46" width="1"/><rect x="98" y="0.53" height="72.49" width="1"/><rect x="99" y="2.62" height="69.63" width="1"/><rect x="100" y="2.59" height="74.09" width="1"/><rect x="101" y="2.09" height="73.30" width="1"/><rect x="102" y="3.74" height="71.66" width="1"/><rect x="103" y="3.57" height="69.39" width="1"/><rect x="104" y="2.63" height="67.37" width="1"/><rect x="105" y="2.66" height="68.62" width="1"/><rect x="106" y="3.65" height="70.31" width="1"/><rect x="107" y="4.10" height="66.15" width="1"/><rect x="108" y="1.52" height="69.19" width="1"/><rect x="109" y="5.21" height="68.75" width="1"/><rect x="110" y="2.04" height="70.41" width="1"/><rect x="111" y="2.59" height="72.54" width="1"/><rect x="112" y="3.09" height="72.16" width="1"/><rect x="113" y="4.10" height="73.33" width="1"/><rect x="114" y="2.09" height="75.92" width="1"/><rect x="115" y="2.62" height="68.06" width="1"/><rect x="116" y="4.08" height="68.88" width="1"/><rect x="117" y="3.59" height="68.72" width="1"/><rect x="118" y="2.60" height="62.50" width="1"/><rect x="119" y="2.08" height="71.88" width="1"/>
</g>
<g style="fill: #ff0000; stroke: none" transform="scale(6.000000,-2.000000)">
<rect x="0" y="25.13" height="23.62" width="1"/><rect x="1" y="13.20" height="32.49" width="1"/><rect x="2" y="24.49" height="13.27" width="1"/><rect x="3" y="20.00" height="17.95" width="1"/><rect x="4" y="20.60" height="26.63" width="1"/><rect x="5" y="2.53" height="48.99" width="1"/><rect x="6" y="15.58" height="37.69" width="1"/><rect x="7" y="19.49" height="14.87" width="1"/><rect x="8" y="67.69" height="2.56" width="1"/><rect x="14" y="72.08" height="0.51" width="1"/><rect x="46" y="70.05" height="0.51" width="1"/><rect x="98" y="73.02" height="0.53" width="1"/>
</g>
<g style="fill: #e85f00; stroke: none" transform="scale(6.000000,-2.000000)">
<rect x="47" y="75.26" height="0.52" width="1"/><rect x="106" y="73.96" height="0.52" width="1"/>
</g>
<g style="fill: #006020; stroke: none" transform="scale(6.000000,-2.000000)">
<rect x="2" y="37.76" height="0.51" width="1"/><rect x="6" y="53.27" height="0.50" width="1"/><rect x="8" y="70.26" height="17.95" width="1"/><rect x="9" y="75.26" height="20.53" width="1"/><rect x="10" y="73.80" height="21.39" width="1"/><rect x="11" y="73.33" height="22.05" width="1"/><rect x="12" y="75.77" height="22.16" width="1"/><rect x="13" y="69.59" height="27.84" width="1"/><rect x="14" y="72.59" height="24.37" width="1"/><rect x="15" y="75.90" height="22.05" width="1"/><rect x="16" y="71.58" height="26.84" width="1"/><rect x="17" y="68.62" height="24.47" width="1"/><rect x="18" y="77.89" height="18.42" width="1"/><rect x="19" y="73.96" height="22.92" width="1"/><rect x="20" y="71.65" height="26.80" width="1"/><rect x="21" y="75.38" height="23.12" width="1"/><rect x="22" y="75.90" height="22.56" width="1"/><rect x="23" y="72.68" height="25.77" width="1"/><rect x="24" y="70.98" height="25.91" width="1"/><rect x="25" y="67.68" height="30.30" width="1"/><rect x="26" y="73.82" height="24.61" width="1"/><rect x="27" y="76.32" height="18.95" width="1"/><rect x="28" y="74.48" height="16.67" width="1"/><rect x="29" y="76.04" height="19.27" width="1"/><rect x="30" y="75.65" height="19.69" width="1"/><rect x="31" y="74.33" height="20.86" width="1"/><rect x="32" y="70.31" height="22.92" width="1"/><rect x="33" y="69.63" height="28.27" width="1"/><rect x="34" y="75.00" height="21.88" width="1"/><rect x="35" y="77.13" height="18.62" width="1"/><rect x="36" y="73.58" height="22.28" width="1"/><rect x="37" y="69.79" height="24.48" width="1"/><rect x="38" y="72.82" height="25.64" width="1"/><rect x="39" y="70.05" height="27.92" width="1"/><rect x="40" y="74.74" height="23.20" width="1"/><rect x="41" y="70.68" height="23.56" width="1"/><rect x="42" y="67.18" height="17.44" width="1"/><rect x="43" y="72.59" height="23.35" width="1"/><rect x="44" y="72.16" height="21.13" width="1"/><rect x="45" y="72.11" height="23.68" width="1"/><rect x="46" y="70.56" height="25.38" width="1"/><rect x="47" y="75.77" height="20.10" width="1"/><rect x="48" y="75.90" height="22.56" width="1"/><rect x="49" y="75.26" height="21.13" width="1"/><rect x="50" y="70.83" height="27.08" width="1"/><rect x="51" y="74.61" height="22.80" width="1"/><rect x="52" y="69.79" height="28.12" width="1"/><rect x="53" y="70.47" height="27.46" width="1"/><rect x="54" y="71.50" height="25.39" width="1"/><rect x="55" y="69.90" height="28.06" width="1"/><rect x="56" y="73.20" height="23.71" width="1"/><rect x="57" y="71.88" height="26.56" width="1"/><rect x="58" y="75.65" height="22.80" width="1"/><rect x="59" y="74.74" height="23.71" width="1"/><rect x="60" y="71.28" height="27.18" width="1"/><rect x="61" y="67.86" height="30.10" width="1"/><rect x="62" y="69.27" height="29.17" width="1"/><rect x="63" y="75.13" height="23.35" width="1"/><rect x="64" y="69.74" height="23.08" width="1"/><rect x="65" y="76.60" height="18.62" width="1"/><rect x="66" y="67.86" height="24.49" width="1"/><rect x="67" y="75.13" height="21.24" width="1"/><rect x="68" y="73.68" height="18.95" width="1"/><rect x="69" y="72.68" height="25.26" width="1"/><rect x="70" y="71.13" height="26.29" width="1"/><rect x="71" y="74.49" height="23.47" width="1"/><rect x="72" y="73.40" height="23.40" width="1"/><rect x="73" y="72.16" height="21.65" width="1"/><rect x="74" y="75.13" height="21.69" width="1"/><rect x="75" y="72.40" height="26.04" width="1"/><rect x="76" y="74.35" height="21.47" width="1"/><rect x="77" y="76.60" height="19.15" width="1"/><rect x="78" y="73.33" height="24.62" width="1"/><rect x="79" y="74.35" height="24.08" width="1"/><rect x="80" y="71.79" height="26.15" width="1"/><rect x="81" y="75.26" height="23.71" width="1"/><rect x="82" y="79.19" height="18.78" width="1"/><rect x="83" y="69.79" height="29.17" width="1"/><rect x="84" y="73.47" height="23.47" width="1"/><rect x="85" y="70.37" height="26.98" width="1"/><rect x="86" y="71.20" height="26.18" width="1"/><rect x="87" y="75.39" height="20.94" width="1"/><rect x="88" y="71.50" height="22.28" width="1"/><rect x="89" y="72.22" height="26.26" width="1"/><rect x="90" y="78.12" height="18.75" width="1"/><rect x="91" y="72.25" height="24.08" width="1"/><rect x="92" y="72.54" height="24.35" width="1"/><rect x="93" y="73.54" height="23.28" width="1"/><rect x="94" y="67.71" height="30.21" width="1"/><rect x="95" y="73.20" height="24.74" width="1"/><rect x="96" y="71.65" height="26.80" width="1"/><rect x="97" y="68.04" height="29.90" width="1"/><rect x="98" y="73.54" height="22.75" width="1"/><rect x="99" y="72.25" height="23.04" width="1"/><rect x="100" y="76.68" height="17.62" width="1"/><rect x="101" y="75.39" height="20.42" width="1"/><rect x="102" y="75.40" height="21.39" width="1"/><rect x="103" y="72.96" height="25.00" width="1"/><rect x="104" y="70.00" height="21.05" width="1"/><rect x="105" y="71.28" height="26.06" width="1"/><rect x="106" y="74.48" height="19.79" width="1"/><rect x="107" y="70.26" height="26.67" width="1"/><rect x="108" y="70.71" height="27.78" width="1"/><rect x="109" y="73.96" height="24.48" width="1"/><rect x="110" y="72.45" height="25.51" width="1"/><rect x="111" y="75.13" height="22.28" width="1"/><rect x="112" y="75.26" height="21.65" width="1"/><rect x="113" y="77.44" height="17.95" width="1"/><rect x="114" y="78.01" height="18.32" width="1"/><rect x="115" y="70.68" height="26.70" width="1"/><rect x="116" y="72.96" height="25.00" width="1"/><rect x="117" y="72.31" height="25.64" width="1"/><rect x="118" y="65.10" height="32.81" width="1"/><rect x="119" y="73.96" height="23.44" width="1"/>
</g>
</g>
</g>
<g id="g1" transform="translate(0,360)">
<rect x="0" y="0" height="300" width="1050"/>
<text x="0" y="20" style="fill: yellow; stroke: none">I/O and transfer rate statistics (1)
<tspan x="795" y="25" style="fill: yellow; stroke: none; font-size: 12px">(Min, Max values)</tspan>
</text>
<polyline points="70,50 70,250 790,250" stroke="white" stroke-width="2"/>
<text x="795" y="50" style="fill: #00cc00; stroke: none; font-size: 12px">tps (0.00, 194.00)</text>
<text x="795" y="65" style="fill: #ff00bf; stroke: none; font-size: 12px">rtps (0.00, 0.00)</text>
<text x="795" y="80" style="fill: #00ffff; stroke: none; font-size: 12px">wtps (0.00, 194.00)</text>
<g transform="translate(70,250)">
<text x="0" y="0" style="fill: white; stroke: none; font-size: 12px; text-anchor: end">0.</text>
<polyline points="0,60.00 720,60.00" style="vector-effect: non-scaling-stroke; stroke: #202020" transform="scale(1,-1.030928)"/>
<text x="0" y="-61" style="fill: white; stroke: none; font-size: 12px; text-anchor: end">60.</text>
<polyline points="0,120.00 720,120.00" style="vector-effect: non-scaling-stroke; stroke: #202020" transform="scale(1,-1.030928)"/>
<text x="0" y="-123" style="fill: white; stroke: none; font-size: 12px; text-anchor: end">120.</text>
<polyline points="0,180.00 720,180.00" style="vector-effect: non-scaling-stroke; stroke: #202020" transform="scale(1,-1.030928)"/>
<text x="0" y="-185" style="fill: white; stroke: none; font-size: 12px; text-anchor: end">180.</text>
<polyline points="0,0 0,-200" style="vector-effect: non-scaling-stroke; stroke: #202020" transform="scale(6.000000,1)"/>
<text x="0" y="10" style="fill: white; stroke: none; font-size: 12px; text-anchor: start" transform="rotate(45,0,0)">13:59:32</text>
<polyline points="12,0 12,-200" style="vector-effect: non-scaling-stroke; stroke: #202020" transform="scale(6.000000,1)"/>
<text x="72" y="10" style="fill: white; stroke: none; font-size: 12px; text-anchor: start" transform="rotate(45,72,0)">13:59:44</text>
<polyline points="24,0 24,-200" style="vector-effect: non-scaling-stroke; stroke: #202020" transform="scale(6.000000,1)"/>
<text x="144" y="10" style="fill: white; stroke: none; font-size: 12px; text-anchor: start" transform="rotate(45,144,0)">13:59:56</text>
<polyline points="36,0 36,-200" style="vector-effect: non-scaling-stroke; stroke: #202020" transform="scale(6.000000,1)"/>
<text x="216" y="10" style="fill: white; stroke: none; font-size: 12px; text-anchor: start" transform="rotate(45,216,0)">14:00:08</text>
<polyline points="48,0 48,-200" style="vector-effect: non-scaling-stroke; stroke: #202020" transform="scale(6.000000,1)"/>
<text x="288" y="10" style="fill: white; stroke: none; font-size: 12px; text-anchor: start" transform="rotate(45,288,0)">14:00:20</text>
<polyline points="60,0 60,-200" style="vector-effect: non-scaling-stroke; stroke: #202020" transform="scale(6.000000,1)"/>
<text x="360" y="10" style="fill: white; stroke: none; font-size: 12px; text-anchor: start" transform="rotate(45,360,0)">14:00:32</text>
<polyline points="72,0 72,-200" style="vector-effect: non-scaling-stroke; stroke: #202020" transform="scale(6.000000,1)"/>
<text x="432" y="10" style="fill: white; stroke: none; font-size: 12px; text-anchor: start" transform="rotate(45,432,0)">14:00:44</text>
<polyline points="84,0 84,-200" style="vector-effect: non-scaling-stroke; stroke: #202020" transform="scale(6.000000,1)"/>
<text x="504" y="10" style="fill: white; stroke: none; font-size: 12px; text-anchor: start" transform="rotate(45,504,0)">14:00:56</text>
<polyline points="96,0 96,-200" style="vector-effect: non-scaling-stroke; stroke: #202020" transform="scale(6.000000,1)"/>
<text x="576" y="10" style="fill: white; stroke: none; font-size: 12px; text-anchor: start" transform="rotate(45,576,0)">14:01:08</text>
<polyline points="108,0 108,-200" style="vector-effect: non-scaling-stroke; stroke: #202020" transform="scale(6.000000,1)"/>
<text x="648" y="10" style="fill: white; stroke: none; font-size: 12px; text-anchor: start" transform="rotate(45,648,0)">14:01:20</text>
<polyline points="120,0 120,-200" style="vector-effect: non-scaling-stroke; stroke: #202020" transform="scale(6.000000,1)"/>
<text x="720" y="10" style="fill: white; stroke: none; font-size: 12px; text-anchor: start" transform="rotate(45,720,0)">14:01:32</text>
<text x="-10" y="30" style="fill: yellow; stroke: none; font-size: 12px; text-anchor: end">UTC</text>
<path id="g1p0" d=" M1,86.00 L2,72.00 L3,72.00 L4,53.00 L5,194.00 L6,57.00 L7,83.00 L8,14.00 L9,6.00 L10,0.00 L11,0.00 L12,0.00 L13,0.00 L14,0.00 L15,2.00 L16,0.00 L17,0.00 L18,0.00 L19,0.00 L20,2.00 L21,0.00 L22,0.00 L23,0.00 L24,0.00 L25,2.00 L26,0.00 L27,0.00 L28,0.00 L29,0.00 L30,0.00 L31,26.00 L32,0.00 L33,0.00 L34,0.00 L35,0.00 L36,4.00 L37,0.00 L38,0.00 L39,0.00 L40,0.00 L41,100.00 L42,0.00 L43,0.00 L44,0.00 L45,0.00 L46,0.00 L47,2.00 L48,0.00 L49,0.00 L50,0.00 L51,0.00 L52,2.00 L53,0.00 L54,0.00 L55,0.00 L56,0.00 L57,0.00 L58,2.00 L59,0.00 L60,0.00 L61,0.00 L62,0.00 L63,0.00 L64,2.00 L65,0.00 L66,0.00 L67,1.00 L68,0.00 L69,0.00 L70,2.00 L71,0.00 L72,7.00 L73,0.00 L74,0.00 L75,0.00 L76,2.00 L77,0.00 L78,0.00 L79,0.00 L80,0.00 L81,0.00 L82,2.00 L83,0.00 L84,0.00 L85,0.00 L86,0.00 L87,7.00 L88,0.00 L89,0.00 L90,0.00 L91,0.00 L92,0.00 L93,2.00 L94,0.00 L95,0.00 L96,0.00 L97,1.00 L98,0.00 L99,2.00 L100,0.00 L101,0.00 L102,0.00 L103,0.00 L104,0.00 L105,2.00 L106,0.00 L107,0.00 L108,34.00 L109,0.00 L110,0.00 L111,2.00 L112,0.00 L113,0.00 L114,0.00 L115,0.00 L116,0.00 L117,2.00 L118,0.00 L119,0.00 L120,0.00" style="vector-effect: non-scaling-stroke; stroke: #00cc00; stroke-width: 1; fill-opacity: 0" transform="scale(6.000000,-1.030928)"/>
<path id="g1p1" d=" M1,0.00 L2,0.00 L3,0.00 L4,0.00 L5,0.00 L6,0.00 L7,0.00 L8,0.00 L9,0.00 L10,0.00 L11,0.00 L12,0.00 L13,0.00 L14,0.00 L15,0.00 L16,0.00 L17,0.00 L18,0.00 L19,0.00 L20,0.00 L21,0.00 L22,0.00 L23,0.00 L24,0.00 L25,0.00 L26,0.00 L27,0.00 L28,0.00 L29,0.00 L30,0.00 L31,0.00 L32,0.00 L33,0.00 L34,0.00 L35,0.00 L36,0.00 L37,0.00 L38,0.00 L39,0.00 L40,0.00 L41,0.00 L42,0.00 L43,0.00 L44,0.00 L45,0.00 L46,0.00 L47,0.00 L48,0.00 L49,0.00 L50,0.00 L51,0.00 L52,0.00 L53,0.00 L54,0.00 L55,0.00 L56,0.00 L57,0.00 L58,0.00 L59,0.00 L60,0.00 L61,0.00 L62,0.00 L63,0.00 L64,0.00 L65,0.00 L66,0.00 L67,0.00 L68,0.00 L69,0.00 L70,0.00 L71,0.00 L72,0.00 L73,0.00 L74,0.00 L75,0.00 L76,0.00 L77,0.00 L78,0.00 L79,0.00 L80,0.00 L81,0.00 L82,0.00 L83,0.00 L84,0.00 L85,0.00 L86,0.00 L87,0.00 L88,0.00 L89,0.00 L90,0.00 L91,0.00 L92,0.00 L93,0.00 L94,0.00 L95,0.00 L96,0.00 L97,0.00 L98,0.00 L99,0.00 L100,0.00 L101,0.00 L102,0.00 L103,0.00 L104,0.00 L105,0.00 L106,0.00 L107,0.00 L108,0.00 L109,0.00 L110,0.00 L111,0.00 L112,0.00 L113,0.00 L114,0.00 L115,0.00 L116,0.00 L117,0.00 L118,0.00 L119,0.00 L120,0.00" style="vector-effect: non-scaling-stroke; stroke: #ff00bf; stroke-width: 1; fill-opacity: 0" transform="scale(6.000000,-1.030928)"/>
<path id="g1p2" d=" M1,86.00 L2,72.00 L3,72.00 L4,53.00 L5,194.00 L6,57.00 L7,83.00 L8,14.00 L9,6.00 L10,0.00 L11,0.00 L12,0.00 L13,0.00 L14,0.00 L15,2.00 L16,0.00 L17,0.00 L18,0.00 L19,0.00 L20,2.00 L21,0.00 L22,0.00 L23,0.00 L24,0.00 L25,2.00 L26,0.00 L27,0.00 L28,0.00 L29,0.00 L30,0.00 L31,26.00 L32,0.00 L33,0.00 L34,0.00 L35,0.00 L36,4.00 L37,0.00 L38,0.00 L39,0.00 L40,0.00 L41,100.00 L42,0.00 L43,0.00 L44,0.00 L45,0.00 L46,0.00 L47,2.00 L48,0.00 L49,0.00 L50,0.00 L51,0.00 L52,2.00 L53,0.00 L54,0.00 L55,0.00 L56,0.00 L57,0.00 L58,2.00 L59,0.00 L60,0.00 L61,0.00 L62,0.00 L63,0.00 L64,2.00 L65,0.00 L66,0.00 L67,1.00 L68,0.00 L69,0.00 L70,2.00 L71,0.00 L72,7.00 L73,0.00 L74,0.00 L75,0.00 L76,2.00 L77,0.00 L78,0.00 L79,0.00 L80,0.00 L81,0.00 L82,2.00 L83,0.00 L84,0.00 L85,0.00 L86,0.00 L87,7.00 L88,0.00 L89,0.00 L90,0.00 L91,0.00 L92,0.00 L93,2.00 L94,0.00 L95,0.00 L96,0.00 L97,1.00 L98,0.00 L99,2.00 L100,0.00 L101,0.00 L102,0.00 L103,0.00 L104,0.00 L105,2.00 L106,0.00 L107,0.00 L108,34.00 L109,0.00 L110,0.00 L111,2.00 L112,0.00 L113,0.00 L114,0.00 L115,0.00 L116,0.00 L117,2.00 L118,0.00 L119,0.00 L120,0.00" style="vector-effect: non-scaling-stroke; stroke: #00ffff; stroke-width: 1; fill-opacity: 0" transform="scale(6.000000,-1.030928)"/>
</g>
<rect x="0" y="310" height="300" width="1050"/>
<text x="0" y="330" style="fill: yellow; stroke: none">I/O and transfer rate statistics (2)
<tspan x="795" y="335" style="fill: yellow; stroke: none; font-size: 12px">(Min, Max values)</tspan>
</text>
<polyline points="70,360 70,560 790,560" stroke="white" stroke-width="2"/>
<text x="795" y="360" style="fill: #ff0000; stroke: none; font-size: 12px">bread/s (0.00, 0.00)</text>
<text x="795" y="375" style="fill: #e85f00; stroke: none; font-size: 12px">bwrtn/s (0.00, 3328.00)</text>
<g transform="translate(70,560)">
<text x="0" y="0" style="fill: white; stroke: none; font-size: 12px; text-anchor: end">0.</text>
<polyline points="0,1000.00 720,1000.00" style="vector-effect: non-scaling-stroke; stroke: #202020" transform="scale(1,-0.060096)"/>
<text x="0" y="-60" style="fill: white; stroke: none; font-size: 12px; text-anchor: end">1000.</text>
<polyline points="0,2000.00 720,2000.00" style="vector-effect: non-scaling-stroke; stroke: #202020" transform="scale(1,-0.060096)"/>
<text x="0" y="-120" style="fill: white; stroke: none; font-size: 12px; text-anchor: end">2000.</text>
<polyline points="0,3000.00 720,3000.00" style="vector-effect: non-scaling-stroke; stroke: #202020" transform="scale(1,-0.060096)"/>
<text x="0" y="-180" style="fill: white; stroke: none; font-size: 12px; text-anchor: end">3000.</text>
<polyline points="0,0 0,-200" style="vector-effect: non-scaling-stroke; stroke: #202020" transform="scale(6.000000,1)"/>
<text x="0" y="10" style="fill: white; stroke: none; font-size: 12px; text-anchor: start" transform="rotate(45,0,0)">13:59:32</text>
<polyline points="12,0 12,-200" style="vector-effect: non-scaling-stroke; stroke: #202020" transform="scale(6.000000,1)"/>
<text x="72" y="10" style="fill: white; stroke: none; font-size: 12px; text-anchor: start" transform="rotate(45,72,0)">13:59:44</text>
<polyline points="24,0 24,-200" style="vector-effect: non-scaling-stroke; stroke: #202020" transform="scale(6.000000,1)"/>
<text x="144" y="10" style="fill: white; stroke: none; font-size: 12px; text-anchor: start" transform="rotate(45,144,0)">13:59:56</text>
<polyline points="36,0 36,-200" style="vector-effect: non-scaling-stroke; stroke: #202020" transform="scale(6.000000,1)"/>
<text x="216" y="10" style="fill: white; stroke: none; font-size: 12px; text-anchor: start" transform="rotate(45,216,0)">14:00:08</text>
<polyline points="48,0 48,-200" style="vector-effect: non-scaling-stroke; stroke: #202020" transform="scale(6.000000,1)"/>
<text x="288" y="10" style="fill: white; stroke: none; font-size: 12px; text-anchor: start" transform="rotate(45,288,0)">14:00:20</text>
<polyline points="60,0 60,-200" style="vector-effect: non-scaling-stroke; stroke: #202020" transform="scale(6.000000,1)"/>
<text x="360" y="10" style="fill: white; stroke: none; font-size: 12px; text-anchor: start" transform="rotate(45,360,0)">14:00:32</text>
<polyline points="72,0 72,-200" style="vector-effect: non-scaling-stroke; stroke: #202020" transform="scale(6.000000,1)"/>
<text x="432" y="10" style="fill: white; stroke: none; font-size: 12px; text-anchor: start" transform="rotate(45,432,0)">14:00:44</text>
<polyline points="84,0 84,-200" style="vector-effect: non-scaling-stroke; stroke: #202020" transform="scale(6.000000,1)"/>
<text x="504" y="10" style="fill: white; stroke: none; font-size: 12px; text-anchor: start" transform="rotate(45,504,0)">14:00:56</text>
<polyline points="96,0 96,-200" style="vector-effect: non-scaling-stroke; stroke: #202020" transform="scale(6.000000,1)"/>
<text x="576" y="10" style="fill: white; stroke: none; font-size: 12px; text-anchor: start" transform="rotate(45,576,0)">14:01:08</text>
<polyline points="108,0 108,-200" style="vector-effect: non-scaling-stroke; stroke: #202020" transform="scale(6.000000,1)"/>
<text x="648" y="10" style="fill: white; stroke: none; font-size: 12px; text-anchor: start" transform="rotate(45,648,0)">14:01:20</text>
<polyline points="120,0 120,-200" style="vector-effect: non-scaling-stroke; stroke: #202020" transform="scale(6.000000,1)"/>
<text x="720" y="10" style="fill: white; stroke: none; font-size: 12px; text-anchor: start" transform="rotate(45,720,0)">14:01:32</text>
<text x="-10" y="30" style="fill: yellow; stroke: none; font-size: 12px; text-anchor: end">UTC</text>
<path id="g1p3" d=" M1,0.00 L2,0.00 L3,0.00 L4,0.00 L5,0.00 L6,0.00 L7,0.00 L8,0.00 L9,0.00 L10,0.00 L11,0.00 L12,0.00 L13,0.00 L14,0.00 L15,0.00 L16,0.00 L17,0.00 L18,0.00 L19,0.00 L20,0.00 L21,0.00 L22,0.00 L23,0.00 L24,0.00 L25,0.00 L26,0.00 L27,0.00 L28,0.00 L29,0.00 L30,0.00 L31,0.00 L32,0.00 L33,0.00 L34,0.00 L35,0.00 L36,0.00 L37,0.00 L38,0.00 L39,0.00 L40,0.00 L41,0.00 L42,0.00 L43,0.00 L44,0.00 L45,0.00 L46,0.00 L47,0.00 L48,0.00 L49,0.00 L50,0.00 L51,0.00 L52,0.00 L53,0.00 L54,0.00 L55,0.00 L56,0.00 L57,0.00 L58,0.00 L59,0.00 L60,0.00 L61,0.00 L62,0.00 L63,0.00 L64,0.00 L65,0.00 L66,0.00 L67,0.00 L68,0.00 L69,0.00 L70,0.00 L71,0.00 L72,0.00 L73,0.00 L74,0.00 L75,0.00 L76,0.00 L77,0.00 L78,0.00 L79,0.00 L80,0.00 L81,0.00 L82,0.00 L83,0.00 L84,0.00 L85,0.00 L86,0.00 L87,0.00 L88,0.00 L89,0.00 L90,0.00 L91,0.00 L92,0.00 L93,0.00 L94,0.00 L95,0.00 L96,0.00 L97,0.00 L98,0.00 L99,0.00 L100,0.00 L101,0.00 L102,0.00 L103,0.00 L104,0.00 L105,0.00 L106,0.00 L107,0.00 L108,0.00 L109,0.00 L110,0.00 L111,0.00 L112,0.00 L113,0.00 L114,0.00 L115,0.00 L116,0.00 L117,0.00 L118,0.00 L119,0.00 L120,0.00" style="vector-effect: non-scaling-stroke; stroke: #ff0000; stroke-width: 1; fill-opacity: 0" transform="scale(6.000000,-0.060096)"/>
<path id="g1p4" d=" M1,1736.00 L2,1080.00 L3,496.00 L4,568.00 L5,3328.00 L6,904.00 L7,680.00 L8,88.00 L9,432.00 L10,0.00 L11,0.00 L12,0.00 L13,0.00 L14,0.00 L15,104.00 L16,0.00 L17,0.00 L18,0.00 L19,0.00 L20,24.00 L21,0.00 L22,0.00 L23,0.00 L24,0.00 L25,24.00 L26,0.00 L27,0.00 L28,0.00 L29,0.00 L30,0.00 L31,344.00 L32,0.00 L33,0.00 L34,0.00 L35,0.00 L36,256.00 L37,0.00 L38,0.00 L39,0.00 L40,0.00 L41,1224.00 L42,0.00 L43,0.00 L44,0.00 L45,0.00 L46,0.00 L47,80.00 L48,0.00 L49,0.00 L50,0.00 L51,0.00 L52,24.00 L53,0.00 L54,0.00 L55,0.00 L56,0.00 L57,0.00 L58,24.00 L59,0.00 L60,0.00 L61,0.00 L62,0.00 L63,0.00 L64,24.00 L65,0.00 L66,0.00 L67,232.00 L68,0.00 L69,0.00 L70,40.00 L71,0.00 L72,64.00 L73,0.00 L74,0.00 L75,0.00 L76,24.00 L77,0.00 L78,0.00 L79,0.00 L80,0.00 L81,0.00 L82,24.00 L83,0.00 L84,0.00 L85,0.00 L86,0.00 L87,80.00 L88,0.00 L89,0.00 L90,0.00 L91,0.00 L92,0.00 L93,48.00 L94,0.00 L95,0.00 L96,0.00 L97,224.00 L98,0.00 L99,40.00 L100,0.00 L101,0.00 L102,0.00 L103,0.00 L104,0.00 L105,24.00 L106,0.00 L107,0.00 L108,392.00 L109,0.00 L110,0.00 L111,40.00 L112,0.00 L113,0.00 L114,0.00 L115,0.00 L116,0.00 L117,24.00 L118,0.00 L119,0.00 L120,0.00" style="vector-effect: non-scaling-stroke; stroke: #e85f00; stroke-width: 1; fill-opacity: 0" transform="scale(6.000000,-0.060096)"/>
</g>
</g>
<!-- Actual canvas height: 980 -->
</svg>
