<?xml version="1.0" encoding="UTF-8"?>
<!DOCTYPE svg PUBLIC "-//W3C//DTD SVG 1.1//EN" "http://www.w3.org/Graphics/SVG/1.1/DTD/svg11.dtd">
<svg xmlns="http://www.w3.org/2000/svg" width="1060" height="1600" fill="black" stroke="gray" stroke-width="1">
<text x= "0" y="30" text-anchor="start" stroke="brown">Linux 4.15.0-58-generic (docker-host-1) 	08/25/19 	_x86_64_	(2 CPU)
</text>
<g id="g0" transform="translate(0,50)">
<rect x="0" y="0" height="300" width="1050"/>
<text x="0" y="20" style="fill: yellow; stroke: none">CPU load [all]
<tspan x="795" y="25" style="fill: yellow; stroke: none; font-size: 12px">(Min, Max values)</tspan>
</text>
<polyline points="70,50 70,250 790,250" stroke="white" stroke-width="2"/>
<text x="795" y="50" style="fill: #00cc00; stroke: none; font-size: 12px">%usr (1.57, 22.00)</text>
<text x="795" y="65" style="fill: #ff00bf; stroke: none; font-size: 12px">%nice (0.00, 0.00)</text>
<text x="795" y="80" style="fill: #00ffff; stroke: none; font-size: 12px">%sys (2.04, 82.63)</text>
<text x="795" y="95" style="fill: #ff0000; stroke: none; font-size: 12px">%iowait (0.00, 40.82)</text>
<text x="795" y="110" style="fill: #e85f00; stroke: none; font-size: 12px">%steal (0.00, 0.53)</text>
<text x="795" y="125" style="fill: #0000ff; stroke: none; font-size: 12px">%irq (0.00, 0.00)</text>
<text x="795" y="140" style="fill: #006020; stroke: none; font-size: 12px">%soft (0.00, 15.30)</text>
<text x="795" y="155" style="fill: #7030a0; stroke: none; font-size: 12px">%guest (0.00, 0.00)</text>
<text x="795" y="170" style="fill: #ffff00; stroke: none; font-size: 12px">%gnice (0.00, 0.00)</text>
<g transform="translate(70,250)">
<text x="0" y="0" style="fill: white; stroke: none; font-size: 12px; text-anchor: end">0.</text>
<polyline points="0,25.00 720,25.00" style="vector-effect: non-scaling-stroke; stroke: #202020" transform="scale(1,-2.000000)"/>
<text x="0" y="-50" style="fill: white; stroke: none; font-size: 12px; text-anchor: end">25.</text>
<polyline points="0,50.00 720,50.00" style="vector-effect: non-scaling-stroke; stroke: #202020" transform="scale(1,-2.000000)"/>
<text x="0" y="-100" style="fill: white; stroke: none; font-size: 12px; text-anchor: end">50.</text>
<polyline points="0,75.00 720,75.00" style="vector-effect: non-scaling-stroke; stroke: #202020" transform="scale(1,-2.000000)"/>
<text x="0" y="-150" style="fill: white; stroke: none; font-size: 12px; text-anchor: end">75.</text>
<polyline points="0,100.00 720,100.00" style="vector-effect: non-scaling-stroke; stroke: #202020" transform="scale(1,-2.000000)"/>
<text x="0" y="-200" style="fill: white; stroke: none; font-size: 12px; text-anchor: end">100.</text>
<polyline points="0,0 0,-200" style="vector-effect: non-scaling-stroke; stroke: #202020" transform="scale(6.000000,1)"/>
<text x="0" y="10" style="fill: white; stroke: none; font-size: 12px; text-anchor: start" transform="rotate(45,0,0)">13:55:17</text>
<polyline points="12,0 12,-200" style="vector-effect: non-scaling-stroke; stroke: #202020" transform="scale(6.000000,1)"/>
<text x="72" y="10" style="fill: white; stroke: none; font-size: 12px; text-anchor: start" transform="rotate(45,72,0)">13:55:29</text>
<polyline points="24,0 24,-200" style="vector-effect: non-scaling-stroke; stroke: #202020" transform="scale(6.000000,1)"/>
<text x="144" y="10" style="fill: white; stroke: none; font-size: 12px; text-anchor: start" transform="rotate(45,144,0)">13:55:41</text>
<polyline points="36,0 36,-200" style="vector-effect: non-scaling-stroke; stroke: #202020" transform="scale(6.000000,1)"/>
<text x="216" y="10" style="fill: white; stroke: none; font-size: 12px; text-anchor: start" transform="rotate(45,216,0)">13:55:53</text>
<polyline points="48,0 48,-200" style="vector-effect: non-scaling-stroke; stroke: #202020" transform="scale(6.000000,1)"/>
<text x="288" y="10" style="fill: white; stroke: none; font-size: 12px; text-anchor: start" transform="rotate(45,288,0)">13:56:05</text>
<polyline points="60,0 60,-200" style="vector-effect: non-scaling-stroke; stroke: #202020" transform="scale(6.000000,1)"/>
<text x="360" y="10" style="fill: white; stroke: none; font-size: 12px; text-anchor: start" transform="rotate(45,360,0)">13:56:17</text>
<polyline points="72,0 72,-200" style="vector-effect: non-scaling-stroke; stroke: #202020" transform="scale(6.000000,1)"/>
<text x="432" y="10" style="fill: white; stroke: none; font-size: 12px; text-anchor: start" transform="rotate(45,432,0)">13:56:29</text>
<polyline points="84,0 84,-200" style="vector-effect: non-scaling-stroke; stroke: #202020" transform="scale(6.000000,1)"/>
<text x="504" y="10" style="fill: white; stroke: none; font-size: 12px; text-anchor: start" transform="rotate(45,504,0)">13:56:41</text>
<polyline points="96,0 96,-200" style="vector-effect: non-scaling-stroke; stroke: #202020" transform="scale(6.000000,1)"/>
<text x="576" y="10" style="fill: white; stroke: none; font-size: 12px; text-anchor: start" transform="rotate(45,576,0)">13:56:53</text>
<polyline points="108,0 108,-200" style="vector-effect: non-scaling-stroke; stroke: #202020" transform="scale(6.000000,1)"/>
<text x="648" y="10" style="fill: white; stroke: none; font-size: 12px; text-anchor: start" transform="rotate(45,648,0)">13:57:05</text>
<polyline points="120,0 120,-200" style="vector-effect: non-scaling-stroke; stroke: #202020" transform="scale(6.000000,1)"/>
<text x="720" y="10" style="fill: white; stroke: none; font-size: 12px; text-anchor: start" transform="rotate(45,720,0)">13:57:17</text>
<text x="-10" y="30" style="fill: yellow; stroke: none; font-size: 12px; text-anchor: end">UTC</text>
<g style="fill: #00cc00; stroke: none" transform="scale(6.000000,-2.000000)">
<rect x="0" y="0.00" height="22.00" width="1"/><rect x="1" y="0.00" height="17.17" width="1"/><rect x="2" y="0.00" height="4.59" width="1"/><rect x="3" y="0.00" height="21.13" width="1"/><rect x="4" y="0.00" height="3.68" width="1"/><rect x="5" y="0.00" height="2.15" width="1"/><rect x="6" y="0.00" height="3.30" width="1"/><rect x="7" y="0.00" height="4.19" width="1"/><rect x="8" y="0.00" height="4.62" width="1"/><rect x="9" y="0.00" height="2.14" width="1"/><rect x="10" y="0.00" height="1.57" width="1"/><rect x="11" y="0.00" height="2.65" width="1"/><rect x="12" y="0.00" height="3.19" width="1"/><rect x="13" y="0.00" height="5.73" width="1"/><rect x="14" y="0.00" height="4.74" width="1"/><rect x="15" y="0.00" height="2.59" width="1"/><rect x="16" y="0.00" height="4.69" width="1"/><rect x="17" y="0.00" height="3.63" width="1"/><rect x="18" y="0.00" height="4.26" width="1"/><rect x="19" y="0.00" height="6.19" width="1"/><rect x="20" y="0.00" height="3.68" width="1"/><rect x="21" y="0.00" height="3.12" width="1"/><rect x="22" y="0.00" height="3.63" width="1"/><rect x="23" y="0.00" height="3.21" width="1"/><rect x="24" y="0.00" height="4.06" width="1"/><rect x="25" y="0.00" height="3.61" width="1"/><rect x="26" y="0.00" height="3.74" width="1"/><rect x="27" y="0.00" height="3.68" width="1"/><rect x="28" y="0.00" height="2.58" width="1"/><rect x="29" y="0.00" height="3.14" width="1"/><rect x="30" y="0.00" height="2.73" width="1"/><rect x="31" y="0.00" height="3.19" width="1"/><rect x="32" y="0.00" height="2.67" width="1"/><rect x="33" y="0.00" height="6.01" width="1"/><rect x="34" y="0.00" height="4.19" width="1"/><rect x="35" y="0.00" height="2.15" width="1"/><rect x="36" y="0.00" height="4.17" width="1"/><rect x="37" y="0.00" height="3.09" width="1"/><rect x="38" y="0.00" height="3.16" width="1"/><rect x="39" y="0.00" height="4.37" width="1"/><rect x="40" y="0.00" height="4.23" width="1"/><rect x="41" y="0.00" height="2.09" width="1"/><rect x="42" y="0.00" height="4.19" width="1"/><rect x="43" y="0.00" height="3.09" width="1"/><rect x="44" y="0.00" height="4.64" width="1"/><rect x="45" y="0.00" height="4.26" width="1"/><rect x="46" y="0.00" height="3.63" width="1"/><rect x="47" y="0.00" height="2.17" width="1"/><rect x="48" y="0.00" height="1.64" width="1"/><rect x="49" y="0.00" height="2.69" width="1"/><rect x="50" y="0.00" height="3.06" width="1"/><rect x="51" y="0.00" height="5.73" width="1"/><rect x="52" y="0.00" height="3.76" width="1"/><rect x="53" y="0.00" height="3.68" width="1"/><rect x="54" y="0.00" height="4.21" width="1"/><rect x="55" y="0.00" height="3.12" width="1"/><rect x="56" y="0.00" height="3.70" width="1"/><rect x="57" y="0.00" height="4.12" width="1"/><rect x="58" y="0.00" height="3.16" width="1"/><rect x="59" y="0.00" height="3.11" width="1"/><rect x="60" y="0.00" height="4.28" width="1"/><rect x="61" y="0.00" height="4.17" width="1"/><rect x="62" y="0.00" height="2.66" width="1"/><rect x="63" y="0.00" height="1.62" width="1"/><rect x="64" y="0.00" height="4.28" width="1"/><rect x="65" y="0.00" height="5.70" width="1"/><rect x="66" y="0.00" height="4.76" width="1"/><rect x="67" y="0.00" height="3.65" width="1"/><rect x="68" y="0.00" height="3.21" width="1"/><rect x="69" y="0.00" height="3.16" width="1"/><rect x="70" y="0.00" height="2.66" width="1"/><rect x="71" y="0.00" height="4.74" width="1"/><rect x="72" y="0.00" height="3.23" width="1"/><rect x="73" y="0.00" height="5.88" width="1"/><rect x="74" y="0.00" height="3.63" width="1"/><rect x="75" y="0.00" height="3.80" width="1"/><rect x="76" y="0.00" height="3.66" width="1"/><rect x="77" y="0.00" height="1.60" width="1"/><rect x="78" y="0.00" height="2.13" width="1"/><rect x="79" y="0.00" height="2.69" width="1"/><rect x="80" y="0.00" height="3.76" width="1"/><rect x="81" y="0.00" height="3.26" width="1"/><rect x="82" y="0.00" height="4.15" width="1"/><rect x="83" y="0.00" height="2.12" width="1"/><rect x="84" y="0.00" height="3.26" width="1"/><rect x="85" y="0.00" height="3.12" width="1"/><rect x="86" y="0.00" height="3.33" width="1"/><rect x="87" y="0.00" height="3.14" width="1"/><rect x="88" y="0.00" height="3.80" width="1"/><rect x="89" y="0.00" height="3.72" width="1"/><rect x="90" y="0.00" height="4.66" width="1"/><rect x="91" y="0.00" height="2.63" width="1"/><rect x="92" y="0.00" height="3.16" width="1"/><rect x="93" y="0.00" height="3.78" width="1"/><rect x="94" y="0.00" height="2.69" width="1"/><rect x="95" y="0.00" height="3.59" width="1"/><rect x="96" y="0.00" height="3.19" width="1"/><rect x="97" y="0.00" height="3.63" width="1"/><rect x="98" y="0.00" height="5.29" width="1"/><rect x="99" y="0.00" height="4.32" width="1"/><rect x="100" y="0.00" height="3.70" width="1"/><rect x="101" y="0.00" height="3.17" width="1"/><rect x="102" y="0.00" height="3.61" width="1"/><rect x="103" y="0.00" height="3.66" width="1"/><rect x="104" y="0.00" height="3.68" width="1"/><rect x="105" y="0.00" height="4.23" width="1"/><rect x="106" y="0.00" height="5.35" width="1"/><rect x="107" y="0.00" height="3.76" width="1"/><rect x="108" y="0.00" height="3.72" width="1"/><rect x="109" y="0.00" height="2.19" width="1"/><rect x="110" y="0.00" height="4.15" width="1"/><rect x="111" y="0.00" height="3.16" width="1"/><rect x="112" y="0.00" height="4.69" width="1"/><rect x="113" y="0.00" height="4.59" width="1"/><rect x="114" y="0.00" height="3.74" width="1"/><rect x="115" y="0.00" height="4.66" width="1"/><rect x="116" y="0.00" height="5.21" width="1"/><rect x="117" y="0.00" height="3.21" width="1"/><rect x="118" y="0.00" height="3.72" width="1"/><rect x="119" y="0.00" height="5.70" width="1"/>
</g>
<g style="fill: #00ffff; stroke: none" transform="scale(6.000000,-2.000000)">
<rect x="0" y="22.00" height="4.50" width="1"/><rect x="1" y="17.17" height="6.57" width="1"/><rect x="2" y="4.59" height="2.04" width="1"/><rect x="3" y="21.13" height="22.16" width="1"/><rect x="4" y="3.68" height="74.21" width="1"/><rect x="5" y="2.15" height="77.42" width="1"/><rect x="6" y="3.30" height="78.02" width="1"/><rect x="7" y="4.19" height="78.53" width="1"/><rect x="8" y="4.62" height="80.51" width="1"/><rect x="9" y="2.14" height="75.94" width="1"/><rect x="10" y="1.57" height="73.82" width="1"/><rect x="11" y="2.65" height="75.66" width="1"/><rect x="12" y="3.19" height="76.60" width="1"/><rect x="13" y="5.73" height="76.04" width="1"/><rect x="14" y="4.74" height="77.37" width="1"/><rect x="15" y="2.59" height="78.24" width="1"/><rect x="16" y="4.69" height="75.52" width="1"/><rect x="17" y="3.63" height="76.68" width="1"/><rect x="18" y="4.26" height="74.47" width="1"/><rect x="19" y="6.19" height="76.80" width="1"/><rect x="20" y="3.68" height="79.47" width="1"/><rect x="21" y="3.12" height="75.00" width="1"/><rect x="22" y="3.63" height="78.24" width="1"/><rect x="23" y="3.21" height="74.87" width="1"/><rect x="24" y="4.06" height="77.16" width="1"/><rect x="25" y="3.61" height="78.35" width="1"/><rect x="26" y="3.74" height="77.54" width="1"/><rect x="27" y="3.68" height="77.37" width="1"/><rect x="28" y="2.58" height="76.29" width="1"/><rect x="29" y="3.14" height="76.96" width="1"/><rect x="30" y="2.73" height="74.32" width="1"/><rect x="31" y="3.19" height="77.66" width="1"/><rect x="32" y="2.67" height="77.01" width="1"/><rect x="33" y="6.01" height="74.32" width="1"/><rect x="34" y="4.19" height="76.44" width="1"/><rect x="35" y="2.15" height="70.43" width="1"/><rect x="36" y="4.17" height="80.73" width="1"/><rect x="37" y="3.09" height="72.68" width="1"/><rect x="38" y="3.16" height="71.58" width="1"/><rect x="39" y="4.37" height="72.68" width="1"/><rect x="40" y="4.23" height="70.37" width="1"/><rect x="41" y="2.09" height="73.30" width="1"/><rect x="42" y="4.19" height="62.30" width="1"/><rect x="43" y="3.09" height="78.35" width="1"/><rect x="44" y="4.64" height="74.23" width="1"/><rect x="45" y="4.26" height="78.19" width="1"/><rect x="46" y="3.63" height="75.65" width="1"/><rect x="47" y="2.17" height="76.09" width="1"/><rect x="48" y="1.64" height="74.86" width="1"/><rect x="49" y="2.69" height="76.34" width="1"/><rect x="50" y="3.06" height="77.55" width="1"/><rect x="51" y="5.73" height="78.12" width="1"/><rect x="52" y="3.76" height="79.57" width="1"/><rect x="53" y="3.68" height="75.79" width="1"/><rect x="54" y="4.21" height="76.84" width="1"/><rect x="55" y="3.12" height="77.60" width="1"/><rect x="56" y="3.70" height="77.78" width="1"/><rect x="57" y="4.12" height="71.13" width="1"/><rect x="58" y="3.16" height="73.68" width="1"/><rect x="59" y="3.11" height="73.58" width="1"/><rect x="60" y="4.28" height="78.61" width="1"/><rect x="61" y="4.17" height="74.48" width="1"/><rect x="62" y="2.66" height="78.19" width="1"/><rect x="63" y="1.62" height="81.62" width="1"/><rect x="64" y="4.28" height="77.54" width="1"/><rect x="65" y="5.70" height="79.79" width="1"/><rect x="66" y="4.76" height="73.54" width="1"/><rect x="67" y="3.65" height="77.60" width="1"/><rect x="68" y="3.21" height="77.01" width="1"/><rect x="69" y="3.16" height="77.37" width="1"/><rect x="70" y="2.66" height="78.72" width="1"/><rect x="71" y="4.74" height="71.58" width="1"/><rect x="72" y="3.23" height="76.34" width="1"/><rect x="73" y="5.88" height="73.80" width="1"/><rect x="74" y="3.63" height="77.72" width="1"/><rect x="75" y="3.80" height="74.46" width="1"/><rect x="76" y="3.66" height="76.44" width="1"/><rect x="77" y="1.60" height="76.47" width="1"/><rect x="78" y="2.13" height="77.13" width="1"/><rect x="79" y="2.69" height="78.49" width="1"/><rect x="80" y="3.76" height="75.81" width="1"/><rect x="81" y="3.26" height="75.54" width="1"/><rect x="82" y="4.15" height="75.65" width="1"/><rect x="83" y="2.12" height="77.78" width="1"/><rect x="84" y="3.26" height="75.00" width="1"/><rect x="85" y="3.12" height="74.48" width="1"/><rect x="86" y="3.33" height="73.33" width="1"/><rect x="87" y="3.14" height="79.06" width="1"/><rect x="88" y="3.80" height="76.63" width="1"/><rect x="89" y="3.72" height="80.32" width="1"/><rect x="90" y="4.66" height="75.65" width="1"/><rect x="91" y="2.63" height="78.95" width="1"/><rect x="92" y="3.16" height="77.37" width="1"/><rect x="93" y="3.78" height="79.46" width="1"/><rect x="94" y="2.69" height="79.03" width="1"/><rect x="95" y="3.59" height="77.44" width="1"/><rect x="96" y="3.19" height="75.53" width="1"/><rect x="97" y="3.63" height="75.13" width="1"/><rect x="98" y="5.29" height="70.90" width="1"/><rect x="99" y="4.32" height="77.84" width="1"/><rect x="100" y="3.70" height="76.19" width="1"/><rect x="101" y="3.17" height="79.37" width="1"/><rect x="102" y="3.61" height="78.87" width="1"/><rect x="103" y="3.66" height="77.49" width="1"/><rect x="104" y="3.68" height="82.63" width="1"/><rect x="105" y="4.23" height="79.37" width="1"/><rect x="106" y="5.35" height="77.01" width="1"/><rect x="107" y="3.76" height="79.03" width="1"/><rect x="108" y="3.72" height="67.02" width="1"/><rect x="109" y="2.19" height="69.95" width="1"/><rect x="110" y="4.15" height="79.27" width="1"/><rect x="111" y="3.16" height="75.26" width="1"/><rect x="112" y="4.69" height="76.56" width="1"/><rect x="113" y="4.59" height="75.51" width="1"/><rect x="114" y="3.74" height="79.14" width="1"/><rect x="115" y="4.66" height="77.20" width="1"/><rect x="116" y="5.21" height="78.65" width="1"/><rect x="117" y="3.21" height="76.47" width="1"/><rect x="118" y="3.72" height="75.53" width="1"/><rect x="119" y="5.70" height="69.95" width="1"/>
</g>
<g style="fill: #ff0000; stroke: none" transform="scale(6.000000,-2.000000)">
<rect x="0" y="26.50" height="24.00" width="1"/><rect x="1" y="23.74" height="26.77" width="1"/><rect x="2" y="6.63" height="40.82" width="1"/><rect x="3" y="43.30" height="13.92" width="1"/><rect x="15" y="80.83" height="0.52" width="1"/><rect x="45" y="82.45" height="1.60" width="1"/><rect x="62" y="80.85" height="0.53" width="1"/><rect x="67" y="81.25" height="0.52" width="1"/><rect x="105" y="83.60" height="0.53" width="1"/><rect x="111" y="78.42" height="0.53" width="1"/>
</g>
<g style="fill: #e85f00; stroke: none" transform="scale(6.000000,-2.000000)">
<rect x="21" y="78.12" height="0.52" width="1"/><rect x="78" y="79.26" height="0.53" width="1"/>
</g>
<g style="fill: #006020; stroke: none" transform="scale(6.000000,-2.000000)">
<rect x="3" y="57.22" height="0.52" width="1"/><rect x="4" y="77.89" height="12.11" width="1"/><rect x="5" y="79.57" height="10.75" width="1"/><rect x="6" y="81.32" height="10.44" width="1"/><rect x="7" y="82.72" height="12.57" width="1"/><rect x="8" y="85.13" height="9.74" width="1"/><rect x="9" y="78.07" height="9.63" width="1"/><rect x="10" y="75.39" height="14.14" width="1"/><rect x="11" y="78.31" height="11.64" width="1"/><rect x="12" y="79.79" height="13.83" width="1"/><rect x="13" y="81.77" height="11.46" width="1"/><rect x="14" y="82.11" height="8.95" width="1"/><rect x="15" y="81.35" height="12.44" width="1"/><rect x="16" y="80.21" height="13.54" width="1"/><rect x="17" y="80.31" height="13.47" width="1"/><rect x="18" y="78.72" height="12.23" width="1"/><rect x="19" y="82.99" height="10.31" width="1"/><rect x="20" y="83.16" height="11.58" width="1"/><rect x="21" y="78.65" height="9.90" width="1"/><rect x="22" y="81.87" height="10.88" width="1"/><rect x="23" y="78.07" height="13.90" width="1"/><rect x="24" y="81.22" height="11.68" width="1"/><rect x="25" y="81.96" height="11.34" width="1"/><rect x="26" y="81.28" height="12.30" width="1"/><rect x="27" y="81.05" height="9.47" width="1"/><rect x="28" y="78.87" height="10.31" width="1"/><rect x="29" y="80.10" height="10.99" width="1"/><rect x="30" y="77.05" height="13.66" width="1"/><rect x="31" y="80.85" height="9.04" width="1"/><rect x="32" y="79.68" height="9.09" width="1"/><rect x="33" y="80.33" height="12.57" width="1"/><rect x="34" y="80.63" height="13.09" width="1"/><rect x="35" y="72.58" height="14.52" width="1"/><rect x="36" y="84.90" height="10.42" width="1"/><rect x="37" y="75.77" height="11.34" width="1"/><rect x="38" y="74.74" height="13.68" width="1"/><rect x="39" y="77.05" height="12.57" width="1"/><rect x="40" y="74.60" height="12.70" width="1"/><rect x="41" y="75.39" height="10.99" width="1"/><rect x="42" y="66.49" height="12.57" width="1"/><rect x="43" y="81.44" height="8.25" width="1"/><rect x="44" y="78.87" height="10.82" width="1"/><rect x="45" y="84.04" height="11.17" width="1"/><rect x="46" y="79.27" height="12.44" width="1"/><rect x="47" y="78.26" height="10.87" width="1"/><rect x="48" y="76.50" height="12.02" width="1"/><rect x="49" y="79.03" height="10.75" width="1"/><rect x="50" y="80.61" height="11.22" width="1"/><rect x="51" y="83.85" height="9.90" width="1"/><rect x="52" y="83.33" height="11.29" width="1"/><rect x="53" y="79.47" height="13.68" width="1"/><rect x="54" y="81.05" height="11.58" width="1"/><rect x="55" y="80.73" height="13.02" width="1"/><rect x="56" y="81.48" height="11.64" width="1"/><rect x="57" y="75.26" height="12.37" width="1"/><rect x="58" y="76.84" height="12.63" width="1"/><rect x="59" y="76.68" height="12.44" width="1"/><rect x="60" y="82.89" height="11.76" width="1"/><rect x="61" y="78.65" height="10.42" width="1"/><rect x="62" y="81.38" height="11.70" width="1"/><rect x="63" y="83.24" height="10.27" width="1"/><rect x="64" y="81.82" height="12.30" width="1"/><rect x="65" y="85.49" height="8.81" width="1"/><rect x="66" y="78.31" height="9.52" width="1"/><rect x="67" y="81.77" height="13.54" width="1"/><rect x="68" y="80.21" height="11.76" width="1"/><rect x="69" y="80.53" height="10.53" width="1"/><rect x="70" y="81.38" height="7.98" width="1"/><rect x="71" y="76.32" height="12.11" width="1"/><rect x="72" y="79.57" height="13.98" width="1"/><rect x="73" y="79.68" height="12.83" width="1"/><rect x="74" y="81.35" height="13.99" width="1"/><rect x="75" y="78.26" height="13.59" width="1"/><rect x="76" y="80.10" height="10.99" width="1"/><rect x="77" y="78.07" height="11.76" width="1"/><rect x="78" y="79.79" height="9.57" width="1"/><rect x="79" y="81.18" height="11.83" width="1"/><rect x="80" y="79.57" height="10.75" width="1"/><rect x="81" y="78.80" height="13.59" width="1"/><rect x="82" y="79.79" height="8.29" width="1"/><rect x="83" y="79.89" height="9.52" width="1"/><rect x="84" y="78.26" height="12.50" width="1"/><rect x="85" y="77.60" height="11.98" width="1"/><rect x="86" y="76.67" height="12.78" width="1"/><rect x="87" y="82.20" height="10.99" width="1"/><rect x="88" y="80.43" height="13.04" width="1"/><rect x="89" y="84.04" height="11.70" width="1"/><rect x="90" y="80.31" height="9.33" width="1"/><rect x="91" y="81.58" height="13.68" width="1"/><rect x="92" y="80.53" height="12.11" width="1"/><rect x="93" y="83.24" height="9.73" width="1"/><rect x="94" y="81.72" height="13.44" width="1"/><rect x="95" y="81.03" height="9.74" width="1"/><rect x="96" y="78.72" height="11.17" width="1"/><rect x="97" y="78.76" height="13.99" width="1"/><rect x="98" y="76.19" height="12.17" width="1"/><rect x="99" y="82.16" height="11.89" width="1"/><rect x="100" y="79.89" height="12.70" width="1"/><rect x="101" y="82.54" height="9.52" width="1"/><rect x="102" y="82.47" height="10.82" width="1"/><rect x="103" y="81.15" height="14.14" width="1"/><rect x="104" y="86.32" height="8.95" width="1"/><rect x="105" y="84.13" height="11.11" width="1"/><rect x="106" y="82.35" height="12.83" width="1"/><rect x="107" y="82.80" height="9.68" width="1"/><rect x="108" y="70.74" height="12.23" width="1"/><rect x="109" y="72.13" height="15.30" width="1"/><rect x="110" y="83.42" height="11.40" width="1"/><rect x="111" y="78.95" height="11.58" width="1"/><rect x="112" y="81.25" height="10.42" width="1"/><rect x="113" y="80.10" height="10.71" width="1"/><rect x="114" y="82.89" height="10.70" width="1"/><rect x="115" y="81.87" height="10.88" width="1"/><rect x="116" y="83.85" height="10.42" width="1"/><rect x="117" y="79.68" height="11.23" width="1"/><rect x="118" y="79.26" height="11.70" width="1"/><rect x="119" y="75.65" height="10.36" width="1"/>
</g>
</g>
</g>
<g id="g1" transform="translate(0,360)">
<rect x="0" y="0" height="300" width="1050"/>
<text x="0" y="20" style="fill: yellow; stroke: none">I/O and transfer rate statistics (1)
<tspan x="795" y="25" style="fill: yellow; stroke: none; font-size: 12px">(Min, Max values)</tspan>
</text>
<polyline points="70,50 70,250 790,250" stroke="white" stroke-width="2"/>
<text x="795" y="50" style="fill: #00cc00; stroke: none; font-size: 12px">tps (0.00, 144.00)</text>
<text x="795" y="65" style="fill: #ff00bf; stroke: none; font-size: 12px">rtps (0.00, 0.00)</text>
<text x="795" y="80" style="fill: #00ffff; stroke: none; font-size: 12px">wtps (0.00, 144.00)</text>
<g transform="translate(70,250)">
<text x="0" y="0" style="fill: white; stroke: none; font-size: 12px; text-anchor: end">0.</text>
<polyline points="0,40.00 720,40.00" style="vector-effect: non-scaling-stroke; stroke: #202020" transform="scale(1,-1.388889)"/>
<text x="0" y="-55" style="fill: white; stroke: none; font-size: 12px; text-anchor: end">40.</text>
<polyline points="0,80.00 720,80.00" style="vector-effect: non-scaling-stroke; stroke: #202020" transform="scale(1,-1.388889)"/>
<text x="0" y="-111" style="fill: white; stroke: none; font-size: 12px; text-anchor: end">80.</text>
<polyline points="0,120.00 720,120.00" style="vector-effect: non-scaling-stroke; stroke: #202020" transform="scale(1,-1.388889)"/>
<text x="0" y="-166" style="fill: white; stroke: none; font-size: 12px; text-anchor: end">120.</text>
<polyline points="0,0 0,-200" style="vector-effect: non-scaling-stroke; stroke: #202020" transform="scale(6.000000,1)"/>
<text x="0" y="10" style="fill: white; stroke: none; font-size: 12px; text-anchor: start" transform="rotate(45,0,0)">13:55:17</text>
<polyline points="12,0 12,-200" style="vector-effect: non-scaling-stroke; stroke: #202020" transform="scale(6.000000,1)"/>
<text x="72" y="10" style="fill: white; stroke: none; font-size: 12px; text-anchor: start" transform="rotate(45,72,0)">13:55:29</text>
<polyline points="24,0 24,-200" style="vector-effect: non-scaling-stroke; stroke: #202020" transform="scale(6.000000,1)"/>
<text x="144" y="10" style="fill: white; stroke: none; font-size: 12px; text-anchor: start" transform="rotate(45,144,0)">13:55:41</text>
<polyline points="36,0 36,-200" style="vector-effect: non-scaling-stroke; stroke: #202020" transform="scale(6.000000,1)"/>
<text x="216" y="10" style="fill: white; stroke: none; font-size: 12px; text-anchor: start" transform="rotate(45,216,0)">13:55:53</text>
<polyline points="48,0 48,-200" style="vector-effect: non-scaling-stroke; stroke: #202020" transform="scale(6.000000,1)"/>
<text x="288" y="10" style="fill: white; stroke: none; font-size: 12px; text-anchor: start" transform="rotate(45,288,0)">13:56:05</text>
<polyline points="60,0 60,-200" style="vector-effect: non-scaling-stroke; stroke: #202020" transform="scale(6.000000,1)"/>
<text x="360" y="10" style="fill: white; stroke: none; font-size: 12px; text-anchor: start" transform="rotate(45,360,0)">13:56:17</text>
<polyline points="72,0 72,-200" style="vector-effect: non-scaling-stroke; stroke: #202020" transform="scale(6.000000,1)"/>
<text x="432" y="10" style="fill: white; stroke: none; font-size: 12px; text-anchor: start" transform="rotate(45,432,0)">13:56:29</text>
<polyline points="84,0 84,-200" style="vector-effect: non-scaling-stroke; stroke: #202020" transform="scale(6.000000,1)"/>
<text x="504" y="10" style="fill: white; stroke: none; font-size: 12px; text-anchor: start" transform="rotate(45,504,0)">13:56:41</text>
<polyline points="96,0 96,-200" style="vector-effect: non-scaling-stroke; stroke: #202020" transform="scale(6.000000,1)"/>
<text x="576" y="10" style="fill: white; stroke: none; font-size: 12px; text-anchor: start" transform="rotate(45,576,0)">13:56:53</text>
<polyline points="108,0 108,-200" style="vector-effect: non-scaling-stroke; stroke: #202020" transform="scale(6.000000,1)"/>
<text x="648" y="10" style="fill: white; stroke: none; font-size: 12px; text-anchor: start" transform="rotate(45,648,0)">13:57:05</text>
<polyline points="120,0 120,-200" style="vector-effect: non-scaling-stroke; stroke: #202020" transform="scale(6.000000,1)"/>
<text x="720" y="10" style="fill: white; stroke: none; font-size: 12px; text-anchor: start" transform="rotate(45,720,0)">13:57:17</text>
<text x="-10" y="30" style="fill: yellow; stroke: none; font-size: 12px; text-anchor: end">UTC</text>
<path id="g1p0" d=" M1,144.00 L2,61.00 L3,123.00 L4,58.00 L5,0.00 L6,0.00 L7,0.00 L8,0.00 L9,0.00 L10,2.00 L11,0.00 L12,0.00 L13,0.00 L14,0.00 L15,0.00 L16,2.00 L17,0.00 L18,0.00 L19,0.00 L20,0.00 L21,0.00 L22,2.00 L23,0.00 L24,21.00 L25,0.00 L26,0.00 L27,0.00 L28,3.00 L29,0.00 L30,0.00 L31,0.00 L32,0.00 L33,0.00 L34,32.00 L35,0.00 L36,0.00 L37,0.00 L38,0.00 L39,0.00 L40,2.00 L41,0.00 L42,0.00 L43,0.00 L44,0.00 L45,0.00 L46,2.00 L47,0.00 L48,0.00 L49,0.00 L50,0.00 L51,2.00 L52,0.00 L53,0.00 L54,0.00 L55,0.00 L56,0.00 L57,2.00 L58,0.00 L59,0.00 L60,6.00 L61,0.00 L62,0.00 L63,2.00 L64,0.00 L65,2.00 L66,0.00 L67,0.00 L68,2.00 L69,0.00 L70,0.00 L71,0.00 L72,0.00 L73,0.00 L74,2.00 L75,28.00 L76,0.00 L77,0.00 L78,0.00 L79,0.00 L80,2.00 L81,0.00 L82,0.00 L83,0.00 L84,0.00 L85,0.00 L86,2.00 L87,0.00 L88,0.00 L89,0.00 L90,0.00 L91,2.00 L92,0.00 L93,0.00 L94,0.00 L95,0.00 L96,4.00 L97,0.00 L98,0.00 L99,0.00 L100,0.00 L101,6.00 L102,0.00 L103,0.00 L104,0.00 L105,0.00 L106,2.00 L107,0.00 L108,0.00 L109,0.00 L110,0.00 L111,0.00 L112,2.00 L113,0.00 L114,0.00 L115,0.00 L116,0.00 L117,0.00 L118,2.00 L119,0.00 L120,0.00" style="vector-effect: non-scaling-stroke; stroke: #00cc00; stroke-width: 1; fill-opacity: 0" transform="scale(6.000000,-1.388889)"/>
<path id="g1p1" d=" M1,0.00 L2,0.00 L3,0.00 L4,0.00 L5,0.00 L6,0.00 L7,0.00 L8,0.00 L9,0.00 L10,0.00 L11,0.00 L12,0.00 L13,0.00 L14,0.00 L15,0.00 L16,0.00 L17,0.00 L18,0.00 L19,0.00 L20,0.00 L21,0.00 L22,0.00 L23,0.00 L24,0.00 L25,0.00 L26,0.00 L27,0.00 L28,0.00 L29,0.00 L30,0.00 L31,0.00 L32,0.00 L33,0.00 L34,0.00 L35,0.00 L36,0.00 L37,0.00 L38,0.00 L39,0.00 L40,0.00 L41,0.00 L42,0.00 L43,0.00 L44,0.00 L45,0.00 L46,0.00 L47,0.00 L48,0.00 L49,0.00 L50,0.00 L51,0.00 L52,0.00 L53,0.00 L54,0.00 L55,0.00 L56,0.00 L57,0.00 L58,0.00 L59,0.00 L60,0.00 L61,0.00 L62,0.00 L63,0.00 L64,0.00 L65,0.00 L66,0.00 L67,0.00 L68,0.00 L69,0.00 L70,0.00 L71,0.00 L72,0.00 L73,0.00 L74,0.00 L75,0.00 L76,0.00 L77,0.00 L78,0.00 L79,0.00 L80,0.00 L81,0.00 L82,0.00 L83,0.00 L84,0.00 L85,0.00 L86,0.00 L87,0.00 L88,0.00 L89,0.00 L90,0.00 L91,0.00 L92,0.00 L93,0.00 L94,0.00 L95,0.00 L96,0.00 L97,0.00 L98,0.00 L99,0.00 L100,0.00 L101,0.00 L102,0.00 L103,0.00 L104,0.00 L105,0.00 L106,0.00 L107,0.00 L108,0.00 L109,0.00 L110,0.00 L111,0.00 L112,0.00 L113,0.00 L114,0.00 L115,0.00 L116,0.00 L117,0.00 L118,0.00 L119,0.00 L120,0.00" style="vector-effect: non-scaling-stroke; stroke: #ff00bf; stroke-width: 1; fill-opacity: 0" transform="scale(6.000000,-1.388889)"/>
<path id="g1p2" d=" M1,144.00 L2,61.00 L3,123.00 L4,58.00 L5,0.00 L6,0.00 L7,0.00 L8,0.00 L9,0.00 L10,2.00 L11,0.00 L12,0.00 L13,0.00 L14,0.00 L15,0.00 L16,2.00 L17,0.00 L18,0.00 L19,0.00 L20,0.00 L21,0.00 L22,2.00 L23,0.00 L24,21.00 L25,0.00 L26,0.00 L27,0.00 L28,3.00 L29,0.00 L30,0.00 L31,0.00 L32,0.00 L33,0.00 L34,32.00 L35,0.00 L36,0.00 L37,0.00 L38,0.00 L39,0.00 L40,2.00 L41,0.00 L42,0.00 L43,0.00 L44,0.00 L45,0.00 L46,2.00 L47,0.00 L48,0.00 L49,0.00 L50,0.00 L51,2.00 L52,0.00 L53,0.00 L54,0.00 L55,0.00 L56,0.00 L57,2.00 L58,0.00 L59,0.00 L60,6.00 L61,0.00 L62,0.00 L63,2.00 L64,0.00 L65,2.00 L66,0.00 L67,0.00 L68,2.00 L69,0.00 L70,0.00 L71,0.00 L72,0.00 L73,0.00 L74,2.00 L75,28.00 L76,0.00 L77,0.00 L78,0.00 L79,0.00 L80,2.00 L81,0.00 L82,0.00 L83,0.00 L84,0.00 L85,0.00 L86,2.00 L87,0.00 L88,0.00 L89,0.00 L90,0.00 L91,2.00 L92,0.00 L93,0.00 L94,0.00 L95,0.00 L96,4.00 L97,0.00 L98,0.00 L99,0.00 L100,0.00 L101,6.00 L102,0.00 L103,0.00 L104,0.00 L105,0.00 L106,2.00 L107,0.00 L108,0.00 L109,0.00 L110,0.00 L111,0.00 L112,2.00 L113,0.00 L114,0.00 L115,0.00 L116,0.00 L117,0.00 L118,2.00 L119,0.00 L120,0.00" style="vector-effect: non-scaling-stroke; stroke: #00ffff; stroke-width: 1; fill-opacity: 0" transform="scale(6.000000,-1.388889)"/>
</g>
<rect x="0" y="310" height="300" width="1050"/>
<text x="0" y="330" style="fill: yellow; stroke: none">I/O and transfer rate statistics (2)
<tspan x="795" y="335" style="fill: yellow; stroke: none; font-size: 12px">(Min, Max values)</tspan>
</text>
<polyline points="70,360 70,560 790,560" stroke="white" stroke-width="2"/>
<text x="795" y="360" style="fill: #ff0000; stroke: none; font-size: 12px">bread/s (0.00, 0.00)</text>
<text x="795" y="375" style="fill: #e85f00; stroke: none; font-size: 12px">bwrtn/s (0.00, 2384.00)</text>
<g transform="translate(70,560)">
<text x="0" y="0" style="fill: white; stroke: none; font-size: 12px; text-anchor: end">0.</text>
<polyline points="0,700.00 720,700.00" style="vector-effect: non-scaling-stroke; stroke: #202020" transform="scale(1,-0.083893)"/>
<text x="0" y="-58" style="fill: white; stroke: none; font-size: 12px; text-anchor: end">700.</text>
<polyline points="0,1400.00 720,1400.00" style="vector-effect: non-scaling-stroke; stroke: #202020" transform="scale(1,-0.083893)"/>
<text x="0" y="-117" style="fill: white; stroke: none; font-size: 12px; text-anchor: end">1400.</text>
<polyline points="0,2100.00 720,2100.00" style="vector-effect: non-scaling-stroke; stroke: #202020" transform="scale(1,-0.083893)"/>
<text x="0" y="-176" style="fill: white; stroke: none; font-size: 12px; text-anchor: end">2100.</text>
<polyline points="0,0 0,-200" style="vector-effect: non-scaling-stroke; stroke: #202020" transform="scale(6.000000,1)"/>
<text x="0" y="10" style="fill: white; stroke: none; font-size: 12px; text-anchor: start" transform="rotate(45,0,0)">13:55:17</text>
<polyline points="12,0 12,-200" style="vector-effect: non-scaling-stroke; stroke: #202020" transform="scale(6.000000,1)"/>
<text x="72" y="10" style="fill: white; stroke: none; font-size: 12px; text-anchor: start" transform="rotate(45,72,0)">13:55:29</text>
<polyline points="24,0 24,-200" style="vector-effect: non-scaling-stroke; stroke: #202020" transform="scale(6.000000,1)"/>
<text x="144" y="10" style="fill: white; stroke: none; font-size: 12px; text-anchor: start" transform="rotate(45,144,0)">13:55:41</text>
<polyline points="36,0 36,-200" style="vector-effect: non-scaling-stroke; stroke: #202020" transform="scale(6.000000,1)"/>
<text x="216" y="10" style="fill: white; stroke: none; font-size: 12px; text-anchor: start" transform="rotate(45,216,0)">13:55:53</text>
<polyline points="48,0 48,-200" style="vector-effect: non-scaling-stroke; stroke: #202020" transform="scale(6.000000,1)"/>
<text x="288" y="10" style="fill: white; stroke: none; font-size: 12px; text-anchor: start" transform="rotate(45,288,0)">13:56:05</text>
<polyline points="60,0 60,-200" style="vector-effect: non-scaling-stroke; stroke: #202020" transform="scale(6.000000,1)"/>
<text x="360" y="10" style="fill: white; stroke: none; font-size: 12px; text-anchor: start" transform="rotate(45,360,0)">13:56:17</text>
<polyline points="72,0 72,-200" style="vector-effect: non-scaling-stroke; stroke: #202020" transform="scale(6.000000,1)"/>
<text x="432" y="10" style="fill: white; stroke: none; font-size: 12px; text-anchor: start" transform="rotate(45,432,0)">13:56:29</text>
<polyline points="84,0 84,-200" style="vector-effect: non-scaling-stroke; stroke: #202020" transform="scale(6.000000,1)"/>
<text x="504" y="10" style="fill: white; stroke: none; font-size: 12px; text-anchor: start" transform="rotate(45,504,0)">13:56:41</text>
<polyline points="96,0 96,-200" style="vector-effect: non-scaling-stroke; stroke: #202020" transform="scale(6.000000,1)"/>
<text x="576" y="10" style="fill: white; stroke: none; font-size: 12px; text-anchor: start" transform="rotate(45,576,0)">13:56:53</text>
<polyline points="108,0 108,-200" style="vector-effect: non-scaling-stroke; stroke: #202020" transform="scale(6.000000,1)"/>
<text x="648" y="10" style="fill: white; stroke: none; font-size: 12px; text-anchor: start" transform="rotate(45,648,0)">13:57:05</text>
<polyline points="120,0 120,-200" style="vector-effect: non-scaling-stroke; stroke: #202020" transform="scale(6.000000,1)"/>
<text x="720" y="10" style="fill: white; stroke: none; font-size: 12px; text-anchor: start" transform="rotate(45,720,0)">13:57:17</text>
<text x="-10" y="30" style="fill: yellow; stroke: none; font-size: 12px; text-anchor: end">UTC</text>
<path id="g1p3" d=" M1,0.00 L2,0.00 L3,0.00 L4,0.00 L5,0.00 L6,0.00 L7,0.00 L8,0.00 L9,0.00 L10,0.00 L11,0.00 L12,0.00 L13,0.00 L14,0.00 L15,0.00 L16,0.00 L17,0.00 L18,0.00 L19,0.00 L20,0.00 L21,0.00 L22,0.00 L23,0.00 L24,0.00 L25,0.00 L26,0.00 L27,0.00 L28,0.00 L29,0.00 L30,0.00 L31,0.00 L32,0.00 L33,0.00 L34,0.00 L35,0.00 L36,0.00 L37,0.00 L38,0.00 L39,0.00 L40,0.00 L41,0.00 L42,0.00 L43,0.00 L44,0.00 L45,0.00 L46,0.00 L47,0.00 L48,0.00 L49,0.00 L50,0.00 L51,0.00 L52,0.00 L53,0.00 L54,0.00 L55,0.00 L56,0.00 L57,0.00 L58,0.00 L59,0.00 L60,0.00 L61,0.00 L62,0.00 L63,0.00 L64,0.00 L65,0.00 L66,0.00 L67,0.00 L68,0.00 L69,0.00 L70,0.00 L71,0.00 L72,0.00 L73,0.00 L74,0.00 L75,0.00 L76,0.00 L77,0.00 L78,0.00 L79,0.00 L80,0.00 L81,0.00 L82,0.00 L83,0.00 L84,0.00 L85,0.00 L86,0.00 L87,0.00 L88,0.00 L89,0.00 L90,0.00 L91,0.00 L92,0.00 L93,0.00 L94,0.00 L95,0.00 L96,0.00 L97,0.00 L98,0.00 L99,0.00 L100,0.00 L101,0.00 L102,0.00 L103,0.00 L104,0.00 L105,0.00 L106,0.00 L107,0.00 L108,0.00 L109,0.00 L110,0.00 L111,0.00 L112,0.00 L113,0.00 L114,0.00 L115,0.00 L116,0.00 L117,0.00 L118,0.00 L119,0.00 L120,0.00" style="vector-effect: non-scaling-stroke; stroke: #ff0000; stroke-width: 1; fill-opacity: 0" transform="scale(6.000000,-0.083893)"/>
<path id="g1p4" d=" M1,2384.00 L2,696.00 L3,2208.00 L4,944.00 L5,0.00 L6,0.00 L7,0.00 L8,0.00 L9,0.00 L10,80.00 L11,0.00 L12,0.00 L13,0.00 L14,0.00 L15,0.00 L16,24.00 L17,0.00 L18,0.00 L19,0.00 L20,0.00 L21,0.00 L22,32.00 L23,0.00 L24,272.00 L25,0.00 L26,0.00 L27,0.00 L28,32.00 L29,0.00 L30,0.00 L31,0.00 L32,0.00 L33,0.00 L34,488.00 L35,0.00 L36,0.00 L37,0.00 L38,0.00 L39,0.00 L40,64.00 L41,0.00 L42,0.00 L43,0.00 L44,0.00 L45,0.00 L46,48.00 L47,0.00 L48,0.00 L49,0.00 L50,0.00 L51,24.00 L52,0.00 L53,0.00 L54,0.00 L55,0.00 L56,0.00 L57,24.00 L58,0.00 L59,0.00 L60,64.00 L61,0.00 L62,0.00 L63,24.00 L64,0.00 L65,208.00 L66,0.00 L67,0.00 L68,40.00 L69,0.00 L70,0.00 L71,0.00 L72,0.00 L73,0.00 L74,24.00 L75,264.00 L76,0.00 L77,0.00 L78,0.00 L79,0.00 L80,24.00 L81,0.00 L82,0.00 L83,0.00 L84,0.00 L85,0.00 L86,24.00 L87,0.00 L88,0.00 L89,0.00 L90,0.00 L91,24.00 L92,0.00 L93,0.00 L94,0.00 L95,0.00 L96,240.00 L97,0.00 L98,0.00 L99,0.00 L100,0.00 L101,88.00 L102,0.00 L103,0.00 L104,0.00 L105,0.00 L106,24.00 L107,0.00 L108,0.00 L109,0.00 L110,0.00 L111,0.00 L112,24.00 L113,0.00 L114,0.00 L115,0.00 L116,0.00 L117,0.00 L118,24.00 L119,0.00 L120,0.00" style="vector-effect: non-scaling-stroke; stroke: #e85f00; stroke-width: 1; fill-opacity: 0" transform="scale(6.000000,-0.083893)"/>
</g>
</g>
<!-- Actual canvas height: 980 -->
</svg>
