<?xml version="1.0" encoding="UTF-8"?>
<!DOCTYPE svg PUBLIC "-//W3C//DTD SVG 1.1//EN" "http://www.w3.org/Graphics/SVG/1.1/DTD/svg11.dtd">
<svg xmlns="http://www.w3.org/2000/svg" width="1060" height="1600" fill="black" stroke="gray" stroke-width="1">
<text x= "0" y="30" text-anchor="start" stroke="brown">Linux 4.15.0-54-generic (dockernet-1) 	06/30/19 	_x86_64_	(2 CPU)
</text>
<g id="g0" transform="translate(0,50)">
<rect x="0" y="0" height="300" width="1050"/>
<text x="0" y="20" style="fill: yellow; stroke: none">CPU load [all]
<tspan x="795" y="25" style="fill: yellow; stroke: none; font-size: 12px">(Min, Max values)</tspan>
</text>
<polyline points="70,50 70,250 790,250" stroke="white" stroke-width="2"/>
<text x="795" y="50" style="fill: #00cc00; stroke: none; font-size: 12px">%usr (1.52, 26.13)</text>
<text x="795" y="65" style="fill: #ff00bf; stroke: none; font-size: 12px">%nice (0.00, 0.00)</text>
<text x="795" y="80" style="fill: #00ffff; stroke: none; font-size: 12px">%sys (3.57, 86.87)</text>
<text x="795" y="95" style="fill: #ff0000; stroke: none; font-size: 12px">%iowait (0.00, 32.99)</text>
<text x="795" y="110" style="fill: #e85f00; stroke: none; font-size: 12px">%steal (0.00, 0.52)</text>
<text x="795" y="125" style="fill: #0000ff; stroke: none; font-size: 12px">%irq (0.00, 0.00)</text>
<text x="795" y="140" style="fill: #006020; stroke: none; font-size: 12px">%soft (0.00, 14.52)</text>
<text x="795" y="155" style="fill: #7030a0; stroke: none; font-size: 12px">%guest (0.00, 0.00)</text>
<text x="795" y="170" style="fill: #ffff00; stroke: none; font-size: 12px">%gnice (0.00, 0.00)</text>
<g transform="translate(70,250)">
<text x="0" y="0" style="fill: white; stroke: none; font-size: 12px; text-anchor: end">0.</text>
<polyline points="0,25.00 720,25.00" style="vector-effect: non-scaling-stroke; stroke: #202020" transform="scale(1,-2.000000)"/>
<text x="0" y="-50" style="fill: white; stroke: none; font-size: 12px; text-anchor: end">25.</text>
<polyline points="0,50.00 720,50.00" style="vector-effect: non-scaling-stroke; stroke: #202020" transform="scale(1,-2.000000)"/>
<text x="0" y="-100" style="fill: white; stroke: none; font-size: 12px; text-anchor: end">50.</text>
<polyline points="0,75.00 720,75.00" style="vector-effect: non-scaling-stroke; stroke: #202020" transform="scale(1,-2.000000)"/>
<text x="0" y="-150" style="fill: white; stroke: none; font-size: 12px; text-anchor: end">75.</text>
<polyline points="0,100.00 720,100.00" style="vector-effect: non-scaling-stroke; stroke: #202020" transform="scale(1,-2.000000)"/>
<text x="0" y="-200" style="fill: white; stroke: none; font-size: 12px; text-anchor: end">100.</text>
<polyline points="0,0 0,-200" style="vector-effect: non-scaling-stroke; stroke: #202020" transform="scale(6.000000,1)"/>
<text x="0" y="10" style="fill: white; stroke: none; font-size: 12px; text-anchor: start" transform="rotate(45,0,0)">17:46:14</text>
<polyline points="12,0 12,-200" style="vector-effect: non-scaling-stroke; stroke: #202020" transform="scale(6.000000,1)"/>
<text x="72" y="10" style="fill: white; stroke: none; font-size: 12px; text-anchor: start" transform="rotate(45,72,0)">17:46:26</text>
<polyline points="24,0 24,-200" style="vector-effect: non-scaling-stroke; stroke: #202020" transform="scale(6.000000,1)"/>
<text x="144" y="10" style="fill: white; stroke: none; font-size: 12px; text-anchor: start" transform="rotate(45,144,0)">17:46:38</text>
<polyline points="36,0 36,-200" style="vector-effect: non-scaling-stroke; stroke: #202020" transform="scale(6.000000,1)"/>
<text x="216" y="10" style="fill: white; stroke: none; font-size: 12px; text-anchor: start" transform="rotate(45,216,0)">17:46:50</text>
<polyline points="48,0 48,-200" style="vector-effect: non-scaling-stroke; stroke: #202020" transform="scale(6.000000,1)"/>
<text x="288" y="10" style="fill: white; stroke: none; font-size: 12px; text-anchor: start" transform="rotate(45,288,0)">17:47:02</text>
<polyline points="60,0 60,-200" style="vector-effect: non-scaling-stroke; stroke: #202020" transform="scale(6.000000,1)"/>
<text x="360" y="10" style="fill: white; stroke: none; font-size: 12px; text-anchor: start" transform="rotate(45,360,0)">17:47:14</text>
<polyline points="72,0 72,-200" style="vector-effect: non-scaling-stroke; stroke: #202020" transform="scale(6.000000,1)"/>
<text x="432" y="10" style="fill: white; stroke: none; font-size: 12px; text-anchor: start" transform="rotate(45,432,0)">17:47:26</text>
<polyline points="84,0 84,-200" style="vector-effect: non-scaling-stroke; stroke: #202020" transform="scale(6.000000,1)"/>
<text x="504" y="10" style="fill: white; stroke: none; font-size: 12px; text-anchor: start" transform="rotate(45,504,0)">17:47:38</text>
<polyline points="96,0 96,-200" style="vector-effect: non-scaling-stroke; stroke: #202020" transform="scale(6.000000,1)"/>
<text x="576" y="10" style="fill: white; stroke: none; font-size: 12px; text-anchor: start" transform="rotate(45,576,0)">17:47:50</text>
<polyline points="108,0 108,-200" style="vector-effect: non-scaling-stroke; stroke: #202020" transform="scale(6.000000,1)"/>
<text x="648" y="10" style="fill: white; stroke: none; font-size: 12px; text-anchor: start" transform="rotate(45,648,0)">17:48:02</text>
<polyline points="120,0 120,-200" style="vector-effect: non-scaling-stroke; stroke: #202020" transform="scale(6.000000,1)"/>
<text x="720" y="10" style="fill: white; stroke: none; font-size: 12px; text-anchor: start" transform="rotate(45,720,0)">17:48:14</text>
<text x="-10" y="30" style="fill: yellow; stroke: none; font-size: 12px; text-anchor: end">UTC</text>
<g style="fill: #00cc00; stroke: none" transform="scale(6.000000,-2.000000)">
<rect x="0" y="0.00" height="26.13" width="1"/><rect x="1" y="0.00" height="11.34" width="1"/><rect x="2" y="0.00" height="20.41" width="1"/><rect x="3" y="0.00" height="25.13" width="1"/><rect x="4" y="0.00" height="3.19" width="1"/><rect x="5" y="0.00" height="4.92" width="1"/><rect x="6" y="0.00" height="2.55" width="1"/><rect x="7" y="0.00" height="4.17" width="1"/><rect x="8" y="0.00" height="3.59" width="1"/><rect x="9" y="0.00" height="4.69" width="1"/><rect x="10" y="0.00" height="3.59" width="1"/><rect x="11" y="0.00" height="2.05" width="1"/><rect x="12" y="0.00" height="4.08" width="1"/><rect x="13" y="0.00" height="5.10" width="1"/><rect x="14" y="0.00" height="4.19" width="1"/><rect x="15" y="0.00" height="4.26" width="1"/><rect x="16" y="0.00" height="5.13" width="1"/><rect x="17" y="0.00" height="4.02" width="1"/><rect x="18" y="0.00" height="5.70" width="1"/><rect x="19" y="0.00" height="4.17" width="1"/><rect x="20" y="0.00" height="4.12" width="1"/><rect x="21" y="0.00" height="3.70" width="1"/><rect x="22" y="0.00" height="4.15" width="1"/><rect x="23" y="0.00" height="3.14" width="1"/><rect x="24" y="0.00" height="5.24" width="1"/><rect x="25" y="0.00" height="3.76" width="1"/><rect x="26" y="0.00" height="3.61" width="1"/><rect x="27" y="0.00" height="4.15" width="1"/><rect x="28" y="0.00" height="5.58" width="1"/><rect x="29" y="0.00" height="4.17" width="1"/><rect x="30" y="0.00" height="4.59" width="1"/><rect x="31" y="0.00" height="5.38" width="1"/><rect x="32" y="0.00" height="3.57" width="1"/><rect x="33" y="0.00" height="3.78" width="1"/><rect x="34" y="0.00" height="4.23" width="1"/><rect x="35" y="0.00" height="4.23" width="1"/><rect x="36" y="0.00" height="6.03" width="1"/><rect x="37" y="0.00" height="4.69" width="1"/><rect x="38" y="0.00" height="1.52" width="1"/><rect x="39" y="0.00" height="5.21" width="1"/><rect x="40" y="0.00" height="5.05" width="1"/><rect x="41" y="0.00" height="4.12" width="1"/><rect x="42" y="0.00" height="4.12" width="1"/><rect x="43" y="0.00" height="4.10" width="1"/><rect x="44" y="0.00" height="4.08" width="1"/><rect x="45" y="0.00" height="3.09" width="1"/><rect x="46" y="0.00" height="4.02" width="1"/><rect x="47" y="0.00" height="3.02" width="1"/><rect x="48" y="0.00" height="5.10" width="1"/><rect x="49" y="0.00" height="4.26" width="1"/><rect x="50" y="0.00" height="4.52" width="1"/><rect x="51" y="0.00" height="3.52" width="1"/><rect x="52" y="0.00" height="3.08" width="1"/><rect x="53" y="0.00" height="5.05" width="1"/><rect x="54" y="0.00" height="5.61" width="1"/><rect x="55" y="0.00" height="4.19" width="1"/><rect x="56" y="0.00" height="3.61" width="1"/><rect x="57" y="0.00" height="4.59" width="1"/><rect x="58" y="0.00" height="3.66" width="1"/><rect x="59" y="0.00" height="4.15" width="1"/><rect x="60" y="0.00" height="4.12" width="1"/><rect x="61" y="0.00" height="3.74" width="1"/><rect x="62" y="0.00" height="3.63" width="1"/><rect x="63" y="0.00" height="5.58" width="1"/><rect x="64" y="0.00" height="3.70" width="1"/><rect x="65" y="0.00" height="4.08" width="1"/><rect x="66" y="0.00" height="3.65" width="1"/><rect x="67" y="0.00" height="4.06" width="1"/><rect x="68" y="0.00" height="3.61" width="1"/><rect x="69" y="0.00" height="3.11" width="1"/><rect x="70" y="0.00" height="3.80" width="1"/><rect x="71" y="0.00" height="5.56" width="1"/><rect x="72" y="0.00" height="3.59" width="1"/><rect x="73" y="0.00" height="3.68" width="1"/><rect x="74" y="0.00" height="4.10" width="1"/><rect x="75" y="0.00" height="5.24" width="1"/><rect x="76" y="0.00" height="4.23" width="1"/><rect x="77" y="0.00" height="5.15" width="1"/><rect x="78" y="0.00" height="5.56" width="1"/><rect x="79" y="0.00" height="6.06" width="1"/><rect x="80" y="0.00" height="5.79" width="1"/><rect x="81" y="0.00" height="4.12" width="1"/><rect x="82" y="0.00" height="3.17" width="1"/><rect x="83" y="0.00" height="6.12" width="1"/><rect x="84" y="0.00" height="3.16" width="1"/><rect x="85" y="0.00" height="3.48" width="1"/><rect x="86" y="0.00" height="3.06" width="1"/><rect x="87" y="0.00" height="4.55" width="1"/><rect x="88" y="0.00" height="4.06" width="1"/><rect x="89" y="0.00" height="5.10" width="1"/><rect x="90" y="0.00" height="3.12" width="1"/><rect x="91" y="0.00" height="3.59" width="1"/><rect x="92" y="0.00" height="4.59" width="1"/><rect x="93" y="0.00" height="4.28" width="1"/><rect x="94" y="0.00" height="5.38" width="1"/><rect x="95" y="0.00" height="3.02" width="1"/><rect x="96" y="0.00" height="3.09" width="1"/><rect x="97" y="0.00" height="4.64" width="1"/><rect x="98" y="0.00" height="5.61" width="1"/><rect x="99" y="0.00" height="3.57" width="1"/><rect x="100" y="0.00" height="1.52" width="1"/><rect x="101" y="0.00" height="4.08" width="1"/><rect x="102" y="0.00" height="3.52" width="1"/><rect x="103" y="0.00" height="4.59" width="1"/><rect x="104" y="0.00" height="3.05" width="1"/><rect x="105" y="0.00" height="4.21" width="1"/><rect x="106" y="0.00" height="3.47" width="1"/><rect x="107" y="0.00" height="3.74" width="1"/><rect x="108" y="0.00" height="2.07" width="1"/><rect x="109" y="0.00" height="3.08" width="1"/><rect x="110" y="0.00" height="4.17" width="1"/><rect x="111" y="0.00" height="4.69" width="1"/><rect x="112" y="0.00" height="3.70" width="1"/><rect x="113" y="0.00" height="4.06" width="1"/><rect x="114" y="0.00" height="2.58" width="1"/><rect x="115" y="0.00" height="3.54" width="1"/><rect x="116" y="0.00" height="2.03" width="1"/><rect x="117" y="0.00" height="4.59" width="1"/><rect x="118" y="0.00" height="3.63" width="1"/><rect x="119" y="0.00" height="4.59" width="1"/>
</g>
<g style="fill: #00ffff; stroke: none" transform="scale(6.000000,-2.000000)">
<rect x="0" y="26.13" height="10.05" width="1"/><rect x="1" y="11.34" height="5.67" width="1"/><rect x="2" y="20.41" height="3.57" width="1"/><rect x="3" y="25.13" height="30.77" width="1"/><rect x="4" y="3.19" height="76.06" width="1"/><rect x="5" y="4.92" height="74.32" width="1"/><rect x="6" y="2.55" height="85.20" width="1"/><rect x="7" y="4.17" height="77.08" width="1"/><rect x="8" y="3.59" height="76.41" width="1"/><rect x="9" y="4.69" height="78.12" width="1"/><rect x="10" y="3.59" height="78.97" width="1"/><rect x="11" y="2.05" height="81.03" width="1"/><rect x="12" y="4.08" height="78.06" width="1"/><rect x="13" y="5.10" height="77.55" width="1"/><rect x="14" y="4.19" height="78.53" width="1"/><rect x="15" y="4.26" height="76.60" width="1"/><rect x="16" y="5.13" height="75.90" width="1"/><rect x="17" y="4.02" height="78.89" width="1"/><rect x="18" y="5.70" height="76.68" width="1"/><rect x="19" y="4.17" height="74.48" width="1"/><rect x="20" y="4.12" height="76.29" width="1"/><rect x="21" y="3.70" height="77.78" width="1"/><rect x="22" y="4.15" height="80.83" width="1"/><rect x="23" y="3.14" height="74.87" width="1"/><rect x="24" y="5.24" height="76.44" width="1"/><rect x="25" y="3.76" height="73.12" width="1"/><rect x="26" y="3.61" height="80.93" width="1"/><rect x="27" y="4.15" height="77.20" width="1"/><rect x="28" y="5.58" height="76.65" width="1"/><rect x="29" y="4.17" height="78.65" width="1"/><rect x="30" y="4.59" height="78.06" width="1"/><rect x="31" y="5.38" height="72.58" width="1"/><rect x="32" y="3.57" height="79.59" width="1"/><rect x="33" y="3.78" height="76.22" width="1"/><rect x="34" y="4.23" height="77.78" width="1"/><rect x="35" y="4.23" height="77.25" width="1"/><rect x="36" y="6.03" height="75.88" width="1"/><rect x="37" y="4.69" height="75.52" width="1"/><rect x="38" y="1.52" height="83.25" width="1"/><rect x="39" y="5.21" height="77.08" width="1"/><rect x="40" y="5.05" height="77.27" width="1"/><rect x="41" y="4.12" height="80.93" width="1"/><rect x="42" y="4.12" height="80.41" width="1"/><rect x="43" y="4.10" height="81.54" width="1"/><rect x="44" y="4.08" height="83.67" width="1"/><rect x="45" y="3.09" height="81.96" width="1"/><rect x="46" y="4.02" height="80.90" width="1"/><rect x="47" y="3.02" height="80.90" width="1"/><rect x="48" y="5.10" height="80.10" width="1"/><rect x="49" y="4.26" height="78.19" width="1"/><rect x="50" y="4.52" height="79.90" width="1"/><rect x="51" y="3.52" height="82.91" width="1"/><rect x="52" y="3.08" height="80.51" width="1"/><rect x="53" y="5.05" height="77.78" width="1"/><rect x="54" y="5.61" height="78.06" width="1"/><rect x="55" y="4.19" height="81.15" width="1"/><rect x="56" y="3.61" height="77.32" width="1"/><rect x="57" y="4.59" height="82.14" width="1"/><rect x="58" y="3.66" height="82.20" width="1"/><rect x="59" y="4.15" height="76.68" width="1"/><rect x="60" y="4.12" height="80.41" width="1"/><rect x="61" y="3.74" height="69.52" width="1"/><rect x="62" y="3.63" height="79.79" width="1"/><rect x="63" y="5.58" height="78.68" width="1"/><rect x="64" y="3.70" height="78.31" width="1"/><rect x="65" y="4.08" height="81.12" width="1"/><rect x="66" y="3.65" height="80.21" width="1"/><rect x="67" y="4.06" height="83.76" width="1"/><rect x="68" y="3.61" height="75.77" width="1"/><rect x="69" y="3.11" height="75.13" width="1"/><rect x="70" y="3.80" height="72.83" width="1"/><rect x="71" y="5.56" height="69.70" width="1"/><rect x="72" y="3.59" height="77.95" width="1"/><rect x="73" y="3.68" height="74.21" width="1"/><rect x="74" y="4.10" height="77.95" width="1"/><rect x="75" y="5.24" height="78.01" width="1"/><rect x="76" y="4.23" height="80.42" width="1"/><rect x="77" y="5.15" height="80.93" width="1"/><rect x="78" y="5.56" height="79.80" width="1"/><rect x="79" y="6.06" height="80.30" width="1"/><rect x="80" y="5.79" height="74.21" width="1"/><rect x="81" y="4.12" height="80.93" width="1"/><rect x="82" y="3.17" height="76.19" width="1"/><rect x="83" y="6.12" height="75.00" width="1"/><rect x="84" y="3.16" height="77.89" width="1"/><rect x="85" y="3.48" height="84.58" width="1"/><rect x="86" y="3.06" height="83.16" width="1"/><rect x="87" y="4.55" height="75.25" width="1"/><rect x="88" y="4.06" height="76.14" width="1"/><rect x="89" y="5.10" height="78.57" width="1"/><rect x="90" y="3.12" height="76.56" width="1"/><rect x="91" y="3.59" height="79.49" width="1"/><rect x="92" y="4.59" height="84.69" width="1"/><rect x="93" y="4.28" height="74.33" width="1"/><rect x="94" y="5.38" height="76.34" width="1"/><rect x="95" y="3.02" height="82.91" width="1"/><rect x="96" y="3.09" height="81.96" width="1"/><rect x="97" y="4.64" height="79.38" width="1"/><rect x="98" y="5.61" height="75.51" width="1"/><rect x="99" y="3.57" height="81.12" width="1"/><rect x="100" y="1.52" height="85.86" width="1"/><rect x="101" y="4.08" height="84.69" width="1"/><rect x="102" y="3.52" height="79.90" width="1"/><rect x="103" y="4.59" height="77.04" width="1"/><rect x="104" y="3.05" height="78.68" width="1"/><rect x="105" y="4.21" height="81.05" width="1"/><rect x="106" y="3.47" height="82.67" width="1"/><rect x="107" y="3.74" height="78.61" width="1"/><rect x="108" y="2.07" height="76.68" width="1"/><rect x="109" y="3.08" height="80.51" width="1"/><rect x="110" y="4.17" height="78.12" width="1"/><rect x="111" y="4.69" height="78.12" width="1"/><rect x="112" y="3.70" height="78.84" width="1"/><rect x="113" y="4.06" height="78.17" width="1"/><rect x="114" y="2.58" height="79.38" width="1"/><rect x="115" y="3.54" height="86.87" width="1"/><rect x="116" y="2.03" height="83.25" width="1"/><rect x="117" y="4.59" height="80.10" width="1"/><rect x="118" y="3.63" height="77.72" width="1"/><rect x="119" y="4.59" height="74.49" width="1"/>
</g>
<g style="fill: #ff0000; stroke: none" transform="scale(6.000000,-2.000000)">
<rect x="0" y="36.18" height="14.07" width="1"/><rect x="1" y="17.01" height="32.99" width="1"/><rect x="2" y="23.98" height="25.00" width="1"/><rect x="3" y="55.90" height="6.15" width="1"/><rect x="20" y="80.41" height="0.52" width="1"/><rect x="41" y="85.05" height="0.52" width="1"/><rect x="73" y="77.89" height="0.53" width="1"/><rect x="84" y="81.05" height="0.53" width="1"/><rect x="95" y="85.93" height="0.50" width="1"/><rect x="107" y="82.35" height="0.53" width="1"/><rect x="113" y="82.23" height="1.02" width="1"/>
</g>
<g style="fill: #e85f00; stroke: none" transform="scale(6.000000,-2.000000)">
<rect x="48" y="85.20" height="0.51" width="1"/><rect x="97" y="84.02" height="0.52" width="1"/>
</g>
<g style="fill: #006020; stroke: none" transform="scale(6.000000,-2.000000)">
<rect x="3" y="62.05" height="3.59" width="1"/><rect x="4" y="79.26" height="10.64" width="1"/><rect x="5" y="79.23" height="10.93" width="1"/><rect x="6" y="87.76" height="8.16" width="1"/><rect x="7" y="81.25" height="11.46" width="1"/><rect x="8" y="80.00" height="11.28" width="1"/><rect x="9" y="82.81" height="10.94" width="1"/><rect x="10" y="82.56" height="9.74" width="1"/><rect x="11" y="83.08" height="8.72" width="1"/><rect x="12" y="82.14" height="9.69" width="1"/><rect x="13" y="82.65" height="9.69" width="1"/><rect x="14" y="82.72" height="8.90" width="1"/><rect x="15" y="80.85" height="10.64" width="1"/><rect x="16" y="81.03" height="10.26" width="1"/><rect x="17" y="82.91" height="9.05" width="1"/><rect x="18" y="82.38" height="10.36" width="1"/><rect x="19" y="78.65" height="12.50" width="1"/><rect x="20" y="80.93" height="10.31" width="1"/><rect x="21" y="81.48" height="11.11" width="1"/><rect x="22" y="84.97" height="9.33" width="1"/><rect x="23" y="78.01" height="12.57" width="1"/><rect x="24" y="81.68" height="10.47" width="1"/><rect x="25" y="76.88" height="14.52" width="1"/><rect x="26" y="84.54" height="10.31" width="1"/><rect x="27" y="81.35" height="11.92" width="1"/><rect x="28" y="82.23" height="9.14" width="1"/><rect x="29" y="82.81" height="9.38" width="1"/><rect x="30" y="82.65" height="9.18" width="1"/><rect x="31" y="77.96" height="11.83" width="1"/><rect x="32" y="83.16" height="9.69" width="1"/><rect x="33" y="80.00" height="11.35" width="1"/><rect x="34" y="82.01" height="10.58" width="1"/><rect x="35" y="81.48" height="11.11" width="1"/><rect x="36" y="81.91" height="11.06" width="1"/><rect x="37" y="80.21" height="10.94" width="1"/><rect x="38" y="84.77" height="10.15" width="1"/><rect x="39" y="82.29" height="10.94" width="1"/><rect x="40" y="82.32" height="10.10" width="1"/><rect x="41" y="85.57" height="9.28" width="1"/><rect x="42" y="84.54" height="9.28" width="1"/><rect x="43" y="85.64" height="9.74" width="1"/><rect x="44" y="87.76" height="8.16" width="1"/><rect x="45" y="85.05" height="9.79" width="1"/><rect x="46" y="84.92" height="8.54" width="1"/><rect x="47" y="83.92" height="9.55" width="1"/><rect x="48" y="85.71" height="8.16" width="1"/><rect x="49" y="82.45" height="9.57" width="1"/><rect x="50" y="84.42" height="9.05" width="1"/><rect x="51" y="86.43" height="7.54" width="1"/><rect x="52" y="83.59" height="10.26" width="1"/><rect x="53" y="82.83" height="8.08" width="1"/><rect x="54" y="83.67" height="10.71" width="1"/><rect x="55" y="85.34" height="10.47" width="1"/><rect x="56" y="80.93" height="11.34" width="1"/><rect x="57" y="86.73" height="9.18" width="1"/><rect x="58" y="85.86" height="8.38" width="1"/><rect x="59" y="80.83" height="11.40" width="1"/><rect x="60" y="84.54" height="8.76" width="1"/><rect x="61" y="73.26" height="11.23" width="1"/><rect x="62" y="83.42" height="10.36" width="1"/><rect x="63" y="84.26" height="8.12" width="1"/><rect x="64" y="82.01" height="9.52" width="1"/><rect x="65" y="85.20" height="7.65" width="1"/><rect x="66" y="83.85" height="10.42" width="1"/><rect x="67" y="87.82" height="7.61" width="1"/><rect x="68" y="79.38" height="12.89" width="1"/><rect x="69" y="78.24" height="12.95" width="1"/><rect x="70" y="76.63" height="14.13" width="1"/><rect x="71" y="75.25" height="12.12" width="1"/><rect x="72" y="81.54" height="11.28" width="1"/><rect x="73" y="78.42" height="13.68" width="1"/><rect x="74" y="82.05" height="10.77" width="1"/><rect x="75" y="83.25" height="10.47" width="1"/><rect x="76" y="84.66" height="10.58" width="1"/><rect x="77" y="86.08" height="8.76" width="1"/><rect x="78" y="85.35" height="6.57" width="1"/><rect x="79" y="86.36" height="8.08" width="1"/><rect x="80" y="80.00" height="12.11" width="1"/><rect x="81" y="85.05" height="8.25" width="1"/><rect x="82" y="79.37" height="12.70" width="1"/><rect x="83" y="81.12" height="11.22" width="1"/><rect x="84" y="81.58" height="10.00" width="1"/><rect x="85" y="88.06" height="7.96" width="1"/><rect x="86" y="86.22" height="8.16" width="1"/><rect x="87" y="79.80" height="13.13" width="1"/><rect x="88" y="80.20" height="12.18" width="1"/><rect x="89" y="83.67" height="9.69" width="1"/><rect x="90" y="79.69" height="11.46" width="1"/><rect x="91" y="83.08" height="10.26" width="1"/><rect x="92" y="89.29" height="7.65" width="1"/><rect x="93" y="78.61" height="11.76" width="1"/><rect x="94" y="81.72" height="11.29" width="1"/><rect x="95" y="86.43" height="7.54" width="1"/><rect x="96" y="85.05" height="8.76" width="1"/><rect x="97" y="84.54" height="10.82" width="1"/><rect x="98" y="81.12" height="12.76" width="1"/><rect x="99" y="84.69" height="8.67" width="1"/><rect x="100" y="87.37" height="8.59" width="1"/><rect x="101" y="88.78" height="6.12" width="1"/><rect x="102" y="83.42" height="10.55" width="1"/><rect x="103" y="81.63" height="10.71" width="1"/><rect x="104" y="81.73" height="11.68" width="1"/><rect x="105" y="85.26" height="7.89" width="1"/><rect x="106" y="86.14" height="8.42" width="1"/><rect x="107" y="82.89" height="12.30" width="1"/><rect x="108" y="78.76" height="13.47" width="1"/><rect x="109" y="83.59" height="10.26" width="1"/><rect x="110" y="82.29" height="9.90" width="1"/><rect x="111" y="82.81" height="8.85" width="1"/><rect x="112" y="82.54" height="10.58" width="1"/><rect x="113" y="83.25" height="8.12" width="1"/><rect x="114" y="81.96" height="9.79" width="1"/><rect x="115" y="90.40" height="8.59" width="1"/><rect x="116" y="85.28" height="7.11" width="1"/><rect x="117" y="84.69" height="9.69" width="1"/><rect x="118" y="81.35" height="11.40" width="1"/><rect x="119" y="79.08" height="11.73" width="1"/>
</g>
</g>
</g>
<g id="g1" transform="translate(0,360)">
<rect x="0" y="0" height="300" width="1050"/>
<text x="0" y="20" style="fill: yellow; stroke: none">I/O and transfer rate statistics (1)
<tspan x="795" y="25" style="fill: yellow; stroke: none; font-size: 12px">(Min, Max values)</tspan>
</text>
<polyline points="70,50 70,250 790,250" stroke="white" stroke-width="2"/>
<text x="795" y="50" style="fill: #00cc00; stroke: none; font-size: 12px">tps (0.00, 142.00)</text>
<text x="795" y="65" style="fill: #ff00bf; stroke: none; font-size: 12px">rtps (0.00, 0.00)</text>
<text x="795" y="80" style="fill: #00ffff; stroke: none; font-size: 12px">wtps (0.00, 142.00)</text>
<g transform="translate(70,250)">
<text x="0" y="0" style="fill: white; stroke: none; font-size: 12px; text-anchor: end">0.</text>
<polyline points="0,40.00 720,40.00" style="vector-effect: non-scaling-stroke; stroke: #202020" transform="scale(1,-1.408451)"/>
<text x="0" y="-56" style="fill: white; stroke: none; font-size: 12px; text-anchor: end">40.</text>
<polyline points="0,80.00 720,80.00" style="vector-effect: non-scaling-stroke; stroke: #202020" transform="scale(1,-1.408451)"/>
<text x="0" y="-112" style="fill: white; stroke: none; font-size: 12px; text-anchor: end">80.</text>
<polyline points="0,120.00 720,120.00" style="vector-effect: non-scaling-stroke; stroke: #202020" transform="scale(1,-1.408451)"/>
<text x="0" y="-169" style="fill: white; stroke: none; font-size: 12px; text-anchor: end">120.</text>
<polyline points="0,0 0,-200" style="vector-effect: non-scaling-stroke; stroke: #202020" transform="scale(6.000000,1)"/>
<text x="0" y="10" style="fill: white; stroke: none; font-size: 12px; text-anchor: start" transform="rotate(45,0,0)">17:46:14</text>
<polyline points="12,0 12,-200" style="vector-effect: non-scaling-stroke; stroke: #202020" transform="scale(6.000000,1)"/>
<text x="72" y="10" style="fill: white; stroke: none; font-size: 12px; text-anchor: start" transform="rotate(45,72,0)">17:46:26</text>
<polyline points="24,0 24,-200" style="vector-effect: non-scaling-stroke; stroke: #202020" transform="scale(6.000000,1)"/>
<text x="144" y="10" style="fill: white; stroke: none; font-size: 12px; text-anchor: start" transform="rotate(45,144,0)">17:46:38</text>
<polyline points="36,0 36,-200" style="vector-effect: non-scaling-stroke; stroke: #202020" transform="scale(6.000000,1)"/>
<text x="216" y="10" style="fill: white; stroke: none; font-size: 12px; text-anchor: start" transform="rotate(45,216,0)">17:46:50</text>
<polyline points="48,0 48,-200" style="vector-effect: non-scaling-stroke; stroke: #202020" transform="scale(6.000000,1)"/>
<text x="288" y="10" style="fill: white; stroke: none; font-size: 12px; text-anchor: start" transform="rotate(45,288,0)">17:47:02</text>
<polyline points="60,0 60,-200" style="vector-effect: non-scaling-stroke; stroke: #202020" transform="scale(6.000000,1)"/>
<text x="360" y="10" style="fill: white; stroke: none; font-size: 12px; text-anchor: start" transform="rotate(45,360,0)">17:47:14</text>
<polyline points="72,0 72,-200" style="vector-effect: non-scaling-stroke; stroke: #202020" transform="scale(6.000000,1)"/>
<text x="432" y="10" style="fill: white; stroke: none; font-size: 12px; text-anchor: start" transform="rotate(45,432,0)">17:47:26</text>
<polyline points="84,0 84,-200" style="vector-effect: non-scaling-stroke; stroke: #202020" transform="scale(6.000000,1)"/>
<text x="504" y="10" style="fill: white; stroke: none; font-size: 12px; text-anchor: start" transform="rotate(45,504,0)">17:47:38</text>
<polyline points="96,0 96,-200" style="vector-effect: non-scaling-stroke; stroke: #202020" transform="scale(6.000000,1)"/>
<text x="576" y="10" style="fill: white; stroke: none; font-size: 12px; text-anchor: start" transform="rotate(45,576,0)">17:47:50</text>
<polyline points="108,0 108,-200" style="vector-effect: non-scaling-stroke; stroke: #202020" transform="scale(6.000000,1)"/>
<text x="648" y="10" style="fill: white; stroke: none; font-size: 12px; text-anchor: start" transform="rotate(45,648,0)">17:48:02</text>
<polyline points="120,0 120,-200" style="vector-effect: non-scaling-stroke; stroke: #202020" transform="scale(6.000000,1)"/>
<text x="720" y="10" style="fill: white; stroke: none; font-size: 12px; text-anchor: start" transform="rotate(45,720,0)">17:48:14</text>
<text x="-10" y="30" style="fill: yellow; stroke: none; font-size: 12px; text-anchor: end">UTC</text>
<path id="g1p0" d=" M1,91.00 L2,93.00 L3,142.00 L4,20.00 L5,0.00 L6,0.00 L7,0.00 L8,0.00 L9,0.00 L10,2.00 L11,0.00 L12,0.00 L13,0.00 L14,0.00 L15,2.00 L16,0.00 L17,0.00 L18,0.00 L19,0.00 L20,0.00 L21,2.00 L22,0.00 L23,0.00 L24,0.00 L25,0.00 L26,2.00 L27,0.00 L28,0.00 L29,48.00 L30,0.00 L31,2.00 L32,0.00 L33,0.00 L34,0.00 L35,0.00 L36,0.00 L37,1.98 L38,0.00 L39,0.00 L40,6.00 L41,0.00 L42,2.00 L43,0.00 L44,0.00 L45,0.00 L46,0.00 L47,2.00 L48,0.00 L49,0.00 L50,0.00 L51,0.00 L52,2.00 L53,0.00 L54,0.00 L55,0.00 L56,0.00 L57,2.00 L58,0.00 L59,0.00 L60,0.00 L61,0.00 L62,2.00 L63,0.00 L64,0.00 L65,0.00 L66,2.00 L67,0.00 L68,2.00 L69,0.00 L70,0.00 L71,0.00 L72,0.00 L73,0.00 L74,2.00 L75,0.00 L76,0.00 L77,47.00 L78,0.00 L79,2.00 L80,0.00 L81,0.00 L82,0.00 L83,0.00 L84,0.00 L85,2.00 L86,0.00 L87,0.00 L88,0.00 L89,0.00 L90,2.00 L91,0.00 L92,0.00 L93,2.00 L94,0.00 L95,0.00 L96,6.00 L97,0.00 L98,0.00 L99,0.00 L100,0.00 L101,0.00 L102,2.00 L103,0.00 L104,2.00 L105,0.00 L106,0.00 L107,0.00 L108,2.00 L109,0.00 L110,0.00 L111,0.00 L112,0.00 L113,0.00 L114,2.00 L115,0.00 L116,0.00 L117,0.00 L118,0.00 L119,2.00 L120,0.00" style="vector-effect: non-scaling-stroke; stroke: #00cc00; stroke-width: 1; fill-opacity: 0" transform="scale(6.000000,-1.408451)"/>
<path id="g1p1" d=" M1,0.00 L2,0.00 L3,0.00 L4,0.00 L5,0.00 L6,0.00 L7,0.00 L8,0.00 L9,0.00 L10,0.00 L11,0.00 L12,0.00 L13,0.00 L14,0.00 L15,0.00 L16,0.00 L17,0.00 L18,0.00 L19,0.00 L20,0.00 L21,0.00 L22,0.00 L23,0.00 L24,0.00 L25,0.00 L26,0.00 L27,0.00 L28,0.00 L29,0.00 L30,0.00 L31,0.00 L32,0.00 L33,0.00 L34,0.00 L35,0.00 L36,0.00 L37,0.00 L38,0.00 L39,0.00 L40,0.00 L41,0.00 L42,0.00 L43,0.00 L44,0.00 L45,0.00 L46,0.00 L47,0.00 L48,0.00 L49,0.00 L50,0.00 L51,0.00 L52,0.00 L53,0.00 L54,0.00 L55,0.00 L56,0.00 L57,0.00 L58,0.00 L59,0.00 L60,0.00 L61,0.00 L62,0.00 L63,0.00 L64,0.00 L65,0.00 L66,0.00 L67,0.00 L68,0.00 L69,0.00 L70,0.00 L71,0.00 L72,0.00 L73,0.00 L74,0.00 L75,0.00 L76,0.00 L77,0.00 L78,0.00 L79,0.00 L80,0.00 L81,0.00 L82,0.00 L83,0.00 L84,0.00 L85,0.00 L86,0.00 L87,0.00 L88,0.00 L89,0.00 L90,0.00 L91,0.00 L92,0.00 L93,0.00 L94,0.00 L95,0.00 L96,0.00 L97,0.00 L98,0.00 L99,0.00 L100,0.00 L101,0.00 L102,0.00 L103,0.00 L104,0.00 L105,0.00 L106,0.00 L107,0.00 L108,0.00 L109,0.00 L110,0.00 L111,0.00 L112,0.00 L113,0.00 L114,0.00 L115,0.00 L116,0.00 L117,0.00 L118,0.00 L119,0.00 L120,0.00" style="vector-effect: non-scaling-stroke; stroke: #ff00bf; stroke-width: 1; fill-opacity: 0" transform="scale(6.000000,-1.408451)"/>
<path id="g1p2" d=" M1,91.00 L2,93.00 L3,142.00 L4,20.00 L5,0.00 L6,0.00 L7,0.00 L8,0.00 L9,0.00 L10,2.00 L11,0.00 L12,0.00 L13,0.00 L14,0.00 L15,2.00 L16,0.00 L17,0.00 L18,0.00 L19,0.00 L20,0.00 L21,2.00 L22,0.00 L23,0.00 L24,0.00 L25,0.00 L26,2.00 L27,0.00 L28,0.00 L29,48.00 L30,0.00 L31,2.00 L32,0.00 L33,0.00 L34,0.00 L35,0.00 L36,0.00 L37,1.98 L38,0.00 L39,0.00 L40,6.00 L41,0.00 L42,2.00 L43,0.00 L44,0.00 L45,0.00 L46,0.00 L47,2.00 L48,0.00 L49,0.00 L50,0.00 L51,0.00 L52,2.00 L53,0.00 L54,0.00 L55,0.00 L56,0.00 L57,2.00 L58,0.00 L59,0.00 L60,0.00 L61,0.00 L62,2.00 L63,0.00 L64,0.00 L65,0.00 L66,2.00 L67,0.00 L68,2.00 L69,0.00 L70,0.00 L71,0.00 L72,0.00 L73,0.00 L74,2.00 L75,0.00 L76,0.00 L77,47.00 L78,0.00 L79,2.00 L80,0.00 L81,0.00 L82,0.00 L83,0.00 L84,0.00 L85,2.00 L86,0.00 L87,0.00 L88,0.00 L89,0.00 L90,2.00 L91,0.00 L92,0.00 L93,2.00 L94,0.00 L95,0.00 L96,6.00 L97,0.00 L98,0.00 L99,0.00 L100,0.00 L101,0.00 L102,2.00 L103,0.00 L104,2.00 L105,0.00 L106,0.00 L107,0.00 L108,2.00 L109,0.00 L110,0.00 L111,0.00 L112,0.00 L113,0.00 L114,2.00 L115,0.00 L116,0.00 L117,0.00 L118,0.00 L119,2.00 L120,0.00" style="vector-effect: non-scaling-stroke; stroke: #00ffff; stroke-width: 1; fill-opacity: 0" transform="scale(6.000000,-1.408451)"/>
</g>
<rect x="0" y="310" height="300" width="1050"/>
<text x="0" y="330" style="fill: yellow; stroke: none">I/O and transfer rate statistics (2)
<tspan x="795" y="335" style="fill: yellow; stroke: none; font-size: 12px">(Min, Max values)</tspan>
</text>
<polyline points="70,360 70,560 790,560" stroke="white" stroke-width="2"/>
<text x="795" y="360" style="fill: #ff0000; stroke: none; font-size: 12px">bread/s (0.00, 0.00)</text>
<text x="795" y="375" style="fill: #e85f00; stroke: none; font-size: 12px">bwrtn/s (0.00, 2320.00)</text>
<g transform="translate(70,560)">
<text x="0" y="0" style="fill: white; stroke: none; font-size: 12px; text-anchor: end">0.</text>
<polyline points="0,700.00 720,700.00" style="vector-effect: non-scaling-stroke; stroke: #202020" transform="scale(1,-0.086207)"/>
<text x="0" y="-60" style="fill: white; stroke: none; font-size: 12px; text-anchor: end">700.</text>
<polyline points="0,1400.00 720,1400.00" style="vector-effect: non-scaling-stroke; stroke: #202020" transform="scale(1,-0.086207)"/>
<text x="0" y="-120" style="fill: white; stroke: none; font-size: 12px; text-anchor: end">1400.</text>
<polyline points="0,2100.00 720,2100.00" style="vector-effect: non-scaling-stroke; stroke: #202020" transform="scale(1,-0.086207)"/>
<text x="0" y="-181" style="fill: white; stroke: none; font-size: 12px; text-anchor: end">2100.</text>
<polyline points="0,0 0,-200" style="vector-effect: non-scaling-stroke; stroke: #202020" transform="scale(6.000000,1)"/>
<text x="0" y="10" style="fill: white; stroke: none; font-size: 12px; text-anchor: start" transform="rotate(45,0,0)">17:46:14</text>
<polyline points="12,0 12,-200" style="vector-effect: non-scaling-stroke; stroke: #202020" transform="scale(6.000000,1)"/>
<text x="72" y="10" style="fill: white; stroke: none; font-size: 12px; text-anchor: start" transform="rotate(45,72,0)">17:46:26</text>
<polyline points="24,0 24,-200" style="vector-effect: non-scaling-stroke; stroke: #202020" transform="scale(6.000000,1)"/>
<text x="144" y="10" style="fill: white; stroke: none; font-size: 12px; text-anchor: start" transform="rotate(45,144,0)">17:46:38</text>
<polyline points="36,0 36,-200" style="vector-effect: non-scaling-stroke; stroke: #202020" transform="scale(6.000000,1)"/>
<text x="216" y="10" style="fill: white; stroke: none; font-size: 12px; text-anchor: start" transform="rotate(45,216,0)">17:46:50</text>
<polyline points="48,0 48,-200" style="vector-effect: non-scaling-stroke; stroke: #202020" transform="scale(6.000000,1)"/>
<text x="288" y="10" style="fill: white; stroke: none; font-size: 12px; text-anchor: start" transform="rotate(45,288,0)">17:47:02</text>
<polyline points="60,0 60,-200" style="vector-effect: non-scaling-stroke; stroke: #202020" transform="scale(6.000000,1)"/>
<text x="360" y="10" style="fill: white; stroke: none; font-size: 12px; text-anchor: start" transform="rotate(45,360,0)">17:47:14</text>
<polyline points="72,0 72,-200" style="vector-effect: non-scaling-stroke; stroke: #202020" transform="scale(6.000000,1)"/>
<text x="432" y="10" style="fill: white; stroke: none; font-size: 12px; text-anchor: start" transform="rotate(45,432,0)">17:47:26</text>
<polyline points="84,0 84,-200" style="vector-effect: non-scaling-stroke; stroke: #202020" transform="scale(6.000000,1)"/>
<text x="504" y="10" style="fill: white; stroke: none; font-size: 12px; text-anchor: start" transform="rotate(45,504,0)">17:47:38</text>
<polyline points="96,0 96,-200" style="vector-effect: non-scaling-stroke; stroke: #202020" transform="scale(6.000000,1)"/>
<text x="576" y="10" style="fill: white; stroke: none; font-size: 12px; text-anchor: start" transform="rotate(45,576,0)">17:47:50</text>
<polyline points="108,0 108,-200" style="vector-effect: non-scaling-stroke; stroke: #202020" transform="scale(6.000000,1)"/>
<text x="648" y="10" style="fill: white; stroke: none; font-size: 12px; text-anchor: start" transform="rotate(45,648,0)">17:48:02</text>
<polyline points="120,0 120,-200" style="vector-effect: non-scaling-stroke; stroke: #202020" transform="scale(6.000000,1)"/>
<text x="720" y="10" style="fill: white; stroke: none; font-size: 12px; text-anchor: start" transform="rotate(45,720,0)">17:48:14</text>
<text x="-10" y="30" style="fill: yellow; stroke: none; font-size: 12px; text-anchor: end">UTC</text>
<path id="g1p3" d=" M1,0.00 L2,0.00 L3,0.00 L4,0.00 L5,0.00 L6,0.00 L7,0.00 L8,0.00 L9,0.00 L10,0.00 L11,0.00 L12,0.00 L13,0.00 L14,0.00 L15,0.00 L16,0.00 L17,0.00 L18,0.00 L19,0.00 L20,0.00 L21,0.00 L22,0.00 L23,0.00 L24,0.00 L25,0.00 L26,0.00 L27,0.00 L28,0.00 L29,0.00 L30,0.00 L31,0.00 L32,0.00 L33,0.00 L34,0.00 L35,0.00 L36,0.00 L37,0.00 L38,0.00 L39,0.00 L40,0.00 L41,0.00 L42,0.00 L43,0.00 L44,0.00 L45,0.00 L46,0.00 L47,0.00 L48,0.00 L49,0.00 L50,0.00 L51,0.00 L52,0.00 L53,0.00 L54,0.00 L55,0.00 L56,0.00 L57,0.00 L58,0.00 L59,0.00 L60,0.00 L61,0.00 L62,0.00 L63,0.00 L64,0.00 L65,0.00 L66,0.00 L67,0.00 L68,0.00 L69,0.00 L70,0.00 L71,0.00 L72,0.00 L73,0.00 L74,0.00 L75,0.00 L76,0.00 L77,0.00 L78,0.00 L79,0.00 L80,0.00 L81,0.00 L82,0.00 L83,0.00 L84,0.00 L85,0.00 L86,0.00 L87,0.00 L88,0.00 L89,0.00 L90,0.00 L91,0.00 L92,0.00 L93,0.00 L94,0.00 L95,0.00 L96,0.00 L97,0.00 L98,0.00 L99,0.00 L100,0.00 L101,0.00 L102,0.00 L103,0.00 L104,0.00 L105,0.00 L106,0.00 L107,0.00 L108,0.00 L109,0.00 L110,0.00 L111,0.00 L112,0.00 L113,0.00 L114,0.00 L115,0.00 L116,0.00 L117,0.00 L118,0.00 L119,0.00 L120,0.00" style="vector-effect: non-scaling-stroke; stroke: #ff0000; stroke-width: 1; fill-opacity: 0" transform="scale(6.000000,-0.086207)"/>
<path id="g1p4" d=" M1,1416.00 L2,1304.00 L3,2320.00 L4,520.00 L5,0.00 L6,0.00 L7,0.00 L8,0.00 L9,0.00 L10,80.00 L11,0.00 L12,0.00 L13,0.00 L14,0.00 L15,24.00 L16,0.00 L17,0.00 L18,0.00 L19,0.00 L20,0.00 L21,24.00 L22,0.00 L23,0.00 L24,0.00 L25,0.00 L26,24.00 L27,0.00 L28,0.00 L29,672.00 L30,0.00 L31,80.00 L32,0.00 L33,0.00 L34,0.00 L35,0.00 L36,0.00 L37,23.76 L38,0.00 L39,0.00 L40,112.00 L41,0.00 L42,40.00 L43,0.00 L44,0.00 L45,0.00 L46,0.00 L47,24.00 L48,0.00 L49,0.00 L50,0.00 L51,0.00 L52,24.00 L53,0.00 L54,0.00 L55,0.00 L56,0.00 L57,24.00 L58,0.00 L59,0.00 L60,0.00 L61,0.00 L62,24.00 L63,0.00 L64,0.00 L65,0.00 L66,152.00 L67,0.00 L68,88.00 L69,0.00 L70,0.00 L71,0.00 L72,0.00 L73,0.00 L74,24.00 L75,0.00 L76,0.00 L77,448.00 L78,0.00 L79,56.00 L80,0.00 L81,0.00 L82,0.00 L83,0.00 L84,0.00 L85,24.00 L86,0.00 L87,0.00 L88,0.00 L89,0.00 L90,24.00 L91,0.00 L92,0.00 L93,104.00 L94,0.00 L95,0.00 L96,80.00 L97,0.00 L98,0.00 L99,0.00 L100,0.00 L101,0.00 L102,24.00 L103,0.00 L104,80.00 L105,0.00 L106,0.00 L107,0.00 L108,48.00 L109,0.00 L110,0.00 L111,0.00 L112,0.00 L113,0.00 L114,24.00 L115,0.00 L116,0.00 L117,0.00 L118,0.00 L119,24.00 L120,0.00" style="vector-effect: non-scaling-stroke; stroke: #e85f00; stroke-width: 1; fill-opacity: 0" transform="scale(6.000000,-0.086207)"/>
</g>
</g>
<!-- Actual canvas height: 980 -->
</svg>
