<?xml version="1.0" encoding="UTF-8"?>
<!DOCTYPE svg PUBLIC "-//W3C//DTD SVG 1.1//EN" "http://www.w3.org/Graphics/SVG/1.1/DTD/svg11.dtd">
<svg xmlns="http://www.w3.org/2000/svg" width="1060" height="1600" fill="black" stroke="gray" stroke-width="1">
<text x= "0" y="30" text-anchor="start" stroke="brown">Linux 4.15.0-58-generic (docker-host-1) 	08/25/19 	_x86_64_	(2 CPU)
</text>
<g id="g0" transform="translate(0,50)">
<rect x="0" y="0" height="300" width="1050"/>
<text x="0" y="20" style="fill: yellow; stroke: none">CPU load [all]
<tspan x="795" y="25" style="fill: yellow; stroke: none; font-size: 12px">(Min, Max values)</tspan>
</text>
<polyline points="70,50 70,250 790,250" stroke="white" stroke-width="2"/>
<text x="795" y="50" style="fill: #00cc00; stroke: none; font-size: 12px">%usr (1.03, 20.81)</text>
<text x="795" y="65" style="fill: #ff00bf; stroke: none; font-size: 12px">%nice (0.00, 0.00)</text>
<text x="795" y="80" style="fill: #00ffff; stroke: none; font-size: 12px">%sys (1.52, 74.87)</text>
<text x="795" y="95" style="fill: #ff0000; stroke: none; font-size: 12px">%iowait (0.00, 42.64)</text>
<text x="795" y="110" style="fill: #e85f00; stroke: none; font-size: 12px">%steal (0.00, 0.52)</text>
<text x="795" y="125" style="fill: #0000ff; stroke: none; font-size: 12px">%irq (0.00, 0.00)</text>
<text x="795" y="140" style="fill: #006020; stroke: none; font-size: 12px">%soft (0.00, 35.71)</text>
<text x="795" y="155" style="fill: #7030a0; stroke: none; font-size: 12px">%guest (0.00, 0.00)</text>
<text x="795" y="170" style="fill: #ffff00; stroke: none; font-size: 12px">%gnice (0.00, 0.00)</text>
<g transform="translate(70,250)">
<text x="0" y="0" style="fill: white; stroke: none; font-size: 12px; text-anchor: end">0.</text>
<polyline points="0,25.00 720,25.00" style="vector-effect: non-scaling-stroke; stroke: #202020" transform="scale(1,-2.000000)"/>
<text x="0" y="-50" style="fill: white; stroke: none; font-size: 12px; text-anchor: end">25.</text>
<polyline points="0,50.00 720,50.00" style="vector-effect: non-scaling-stroke; stroke: #202020" transform="scale(1,-2.000000)"/>
<text x="0" y="-100" style="fill: white; stroke: none; font-size: 12px; text-anchor: end">50.</text>
<polyline points="0,75.00 720,75.00" style="vector-effect: non-scaling-stroke; stroke: #202020" transform="scale(1,-2.000000)"/>
<text x="0" y="-150" style="fill: white; stroke: none; font-size: 12px; text-anchor: end">75.</text>
<polyline points="0,100.00 720,100.00" style="vector-effect: non-scaling-stroke; stroke: #202020" transform="scale(1,-2.000000)"/>
<text x="0" y="-200" style="fill: white; stroke: none; font-size: 12px; text-anchor: end">100.</text>
<polyline points="0,0 0,-200" style="vector-effect: non-scaling-stroke; stroke: #202020" transform="scale(6.000000,1)"/>
<text x="0" y="10" style="fill: white; stroke: none; font-size: 12px; text-anchor: start" transform="rotate(45,0,0)">13:57:23</text>
<polyline points="12,0 12,-200" style="vector-effect: non-scaling-stroke; stroke: #202020" transform="scale(6.000000,1)"/>
<text x="72" y="10" style="fill: white; stroke: none; font-size: 12px; text-anchor: start" transform="rotate(45,72,0)">13:57:35</text>
<polyline points="24,0 24,-200" style="vector-effect: non-scaling-stroke; stroke: #202020" transform="scale(6.000000,1)"/>
<text x="144" y="10" style="fill: white; stroke: none; font-size: 12px; text-anchor: start" transform="rotate(45,144,0)">13:57:47</text>
<polyline points="36,0 36,-200" style="vector-effect: non-scaling-stroke; stroke: #202020" transform="scale(6.000000,1)"/>
<text x="216" y="10" style="fill: white; stroke: none; font-size: 12px; text-anchor: start" transform="rotate(45,216,0)">13:57:59</text>
<polyline points="48,0 48,-200" style="vector-effect: non-scaling-stroke; stroke: #202020" transform="scale(6.000000,1)"/>
<text x="288" y="10" style="fill: white; stroke: none; font-size: 12px; text-anchor: start" transform="rotate(45,288,0)">13:58:11</text>
<polyline points="60,0 60,-200" style="vector-effect: non-scaling-stroke; stroke: #202020" transform="scale(6.000000,1)"/>
<text x="360" y="10" style="fill: white; stroke: none; font-size: 12px; text-anchor: start" transform="rotate(45,360,0)">13:58:23</text>
<polyline points="72,0 72,-200" style="vector-effect: non-scaling-stroke; stroke: #202020" transform="scale(6.000000,1)"/>
<text x="432" y="10" style="fill: white; stroke: none; font-size: 12px; text-anchor: start" transform="rotate(45,432,0)">13:58:35</text>
<polyline points="84,0 84,-200" style="vector-effect: non-scaling-stroke; stroke: #202020" transform="scale(6.000000,1)"/>
<text x="504" y="10" style="fill: white; stroke: none; font-size: 12px; text-anchor: start" transform="rotate(45,504,0)">13:58:47</text>
<polyline points="96,0 96,-200" style="vector-effect: non-scaling-stroke; stroke: #202020" transform="scale(6.000000,1)"/>
<text x="576" y="10" style="fill: white; stroke: none; font-size: 12px; text-anchor: start" transform="rotate(45,576,0)">13:58:59</text>
<polyline points="108,0 108,-200" style="vector-effect: non-scaling-stroke; stroke: #202020" transform="scale(6.000000,1)"/>
<text x="648" y="10" style="fill: white; stroke: none; font-size: 12px; text-anchor: start" transform="rotate(45,648,0)">13:59:11</text>
<polyline points="120,0 120,-200" style="vector-effect: non-scaling-stroke; stroke: #202020" transform="scale(6.000000,1)"/>
<text x="720" y="10" style="fill: white; stroke: none; font-size: 12px; text-anchor: start" transform="rotate(45,720,0)">13:59:23</text>
<text x="-10" y="30" style="fill: yellow; stroke: none; font-size: 12px; text-anchor: end">UTC</text>
<g style="fill: #00cc00; stroke: none" transform="scale(6.000000,-2.000000)">
<rect x="0" y="0.00" height="20.81" width="1"/><rect x="1" y="0.00" height="11.62" width="1"/><rect x="2" y="0.00" height="17.17" width="1"/><rect x="3" y="0.00" height="4.06" width="1"/><rect x="4" y="0.00" height="13.78" width="1"/><rect x="5" y="0.00" height="15.90" width="1"/><rect x="6" y="0.00" height="2.59" width="1"/><rect x="7" y="0.00" height="3.14" width="1"/><rect x="8" y="0.00" height="3.16" width="1"/><rect x="9" y="0.00" height="3.09" width="1"/><rect x="10" y="0.00" height="2.08" width="1"/><rect x="11" y="0.00" height="1.06" width="1"/><rect x="12" y="0.00" height="2.07" width="1"/><rect x="13" y="0.00" height="4.15" width="1"/><rect x="14" y="0.00" height="6.19" width="1"/><rect x="15" y="0.00" height="3.63" width="1"/><rect x="16" y="0.00" height="3.61" width="1"/><rect x="17" y="0.00" height="4.71" width="1"/><rect x="18" y="0.00" height="3.65" width="1"/><rect x="19" y="0.00" height="2.06" width="1"/><rect x="20" y="0.00" height="3.61" width="1"/><rect x="21" y="0.00" height="2.59" width="1"/><rect x="22" y="0.00" height="4.23" width="1"/><rect x="23" y="0.00" height="3.63" width="1"/><rect x="24" y="0.00" height="3.12" width="1"/><rect x="25" y="0.00" height="2.14" width="1"/><rect x="26" y="0.00" height="2.09" width="1"/><rect x="27" y="0.00" height="3.65" width="1"/><rect x="28" y="0.00" height="2.58" width="1"/><rect x="29" y="0.00" height="2.66" width="1"/><rect x="30" y="0.00" height="3.59" width="1"/><rect x="31" y="0.00" height="3.68" width="1"/><rect x="32" y="0.00" height="3.63" width="1"/><rect x="33" y="0.00" height="2.62" width="1"/><rect x="34" y="0.00" height="2.59" width="1"/><rect x="35" y="0.00" height="4.19" width="1"/><rect x="36" y="0.00" height="2.11" width="1"/><rect x="37" y="0.00" height="1.03" width="1"/><rect x="38" y="0.00" height="1.54" width="1"/><rect x="39" y="0.00" height="3.12" width="1"/><rect x="40" y="0.00" height="2.60" width="1"/><rect x="41" y="0.00" height="4.74" width="1"/><rect x="42" y="0.00" height="3.09" width="1"/><rect x="43" y="0.00" height="1.60" width="1"/><rect x="44" y="0.00" height="1.59" width="1"/><rect x="45" y="0.00" height="1.57" width="1"/><rect x="46" y="0.00" height="3.17" width="1"/><rect x="47" y="0.00" height="3.65" width="1"/><rect x="48" y="0.00" height="4.64" width="1"/><rect x="49" y="0.00" height="2.11" width="1"/><rect x="50" y="0.00" height="3.12" width="1"/><rect x="51" y="0.00" height="2.58" width="1"/><rect x="52" y="0.00" height="3.11" width="1"/><rect x="53" y="0.00" height="4.66" width="1"/><rect x="54" y="0.00" height="3.63" width="1"/><rect x="55" y="0.00" height="2.66" width="1"/><rect x="56" y="0.00" height="2.13" width="1"/><rect x="57" y="0.00" height="2.11" width="1"/><rect x="58" y="0.00" height="2.55" width="1"/><rect x="59" y="0.00" height="2.60" width="1"/><rect x="60" y="0.00" height="4.10" width="1"/><rect x="61" y="0.00" height="3.08" width="1"/><rect x="62" y="0.00" height="2.07" width="1"/><rect x="63" y="0.00" height="3.61" width="1"/><rect x="64" y="0.00" height="2.58" width="1"/><rect x="65" y="0.00" height="3.11" width="1"/><rect x="66" y="0.00" height="3.65" width="1"/><rect x="67" y="0.00" height="2.07" width="1"/><rect x="68" y="0.00" height="3.08" width="1"/><rect x="69" y="0.00" height="1.58" width="1"/><rect x="70" y="0.00" height="1.55" width="1"/><rect x="71" y="0.00" height="4.66" width="1"/><rect x="72" y="0.00" height="2.55" width="1"/><rect x="73" y="0.00" height="3.09" width="1"/><rect x="74" y="0.00" height="3.61" width="1"/><rect x="75" y="0.00" height="4.10" width="1"/><rect x="76" y="0.00" height="4.12" width="1"/><rect x="77" y="0.00" height="3.61" width="1"/><rect x="78" y="0.00" height="2.13" width="1"/><rect x="79" y="0.00" height="4.66" width="1"/><rect x="80" y="0.00" height="3.16" width="1"/><rect x="81" y="0.00" height="3.59" width="1"/><rect x="82" y="0.00" height="3.63" width="1"/><rect x="83" y="0.00" height="3.21" width="1"/><rect x="84" y="0.00" height="3.12" width="1"/><rect x="85" y="0.00" height="2.55" width="1"/><rect x="86" y="0.00" height="5.24" width="1"/><rect x="87" y="0.00" height="4.10" width="1"/><rect x="88" y="0.00" height="2.14" width="1"/><rect x="89" y="0.00" height="2.07" width="1"/><rect x="90" y="0.00" height="2.08" width="1"/><rect x="91" y="0.00" height="3.19" width="1"/><rect x="92" y="0.00" height="2.58" width="1"/><rect x="93" y="0.00" height="3.02" width="1"/><rect x="94" y="0.00" height="1.04" width="1"/><rect x="95" y="0.00" height="2.08" width="1"/><rect x="96" y="0.00" height="3.12" width="1"/><rect x="97" y="0.00" height="4.21" width="1"/><rect x="98" y="0.00" height="3.66" width="1"/><rect x="99" y="0.00" height="1.57" width="1"/><rect x="100" y="0.00" height="3.14" width="1"/><rect x="101" y="0.00" height="3.09" width="1"/><rect x="102" y="0.00" height="1.55" width="1"/><rect x="103" y="0.00" height="2.07" width="1"/><rect x="104" y="0.00" height="2.58" width="1"/><rect x="105" y="0.00" height="1.58" width="1"/><rect x="106" y="0.00" height="2.59" width="1"/><rect x="107" y="0.00" height="2.59" width="1"/><rect x="108" y="0.00" height="2.70" width="1"/><rect x="109" y="0.00" height="2.65" width="1"/><rect x="110" y="0.00" height="2.63" width="1"/><rect x="111" y="0.00" height="2.11" width="1"/><rect x="112" y="0.00" height="2.04" width="1"/><rect x="113" y="0.00" height="3.68" width="1"/><rect x="114" y="0.00" height="2.06" width="1"/><rect x="115" y="0.00" height="2.66" width="1"/><rect x="116" y="0.00" height="1.55" width="1"/><rect x="117" y="0.00" height="3.09" width="1"/><rect x="118" y="0.00" height="2.07" width="1"/><rect x="119" y="0.00" height="2.58" width="1"/>
</g>
<g style="fill: #00ffff; stroke: none" transform="scale(6.000000,-2.000000)">
<rect x="0" y="20.81" height="7.11" width="1"/><rect x="1" y="11.62" height="7.58" width="1"/><rect x="2" y="17.17" height="5.56" width="1"/><rect x="3" y="4.06" height="1.52" width="1"/><rect x="4" y="13.78" height="9.69" width="1"/><rect x="5" y="15.90" height="45.13" width="1"/><rect x="6" y="2.59" height="57.51" width="1"/><rect x="7" y="3.14" height="64.92" width="1"/><rect x="8" y="3.16" height="64.21" width="1"/><rect x="9" y="3.09" height="65.98" width="1"/><rect x="10" y="2.08" height="68.23" width="1"/><rect x="11" y="1.06" height="69.84" width="1"/><rect x="12" y="2.07" height="70.47" width="1"/><rect x="13" y="4.15" height="58.55" width="1"/><rect x="14" y="6.19" height="61.34" width="1"/><rect x="15" y="3.63" height="61.14" width="1"/><rect x="16" y="3.61" height="64.95" width="1"/><rect x="17" y="4.71" height="61.78" width="1"/><rect x="18" y="3.65" height="60.94" width="1"/><rect x="19" y="2.06" height="65.98" width="1"/><rect x="20" y="3.61" height="65.98" width="1"/><rect x="21" y="2.59" height="66.84" width="1"/><rect x="22" y="4.23" height="62.43" width="1"/><rect x="23" y="3.63" height="61.66" width="1"/><rect x="24" y="3.12" height="63.02" width="1"/><rect x="25" y="2.14" height="65.78" width="1"/><rect x="26" y="2.09" height="63.87" width="1"/><rect x="27" y="3.65" height="59.38" width="1"/><rect x="28" y="2.58" height="62.37" width="1"/><rect x="29" y="2.66" height="61.17" width="1"/><rect x="30" y="3.59" height="67.69" width="1"/><rect x="31" y="3.68" height="64.21" width="1"/><rect x="32" y="3.63" height="64.25" width="1"/><rect x="33" y="2.62" height="65.45" width="1"/><rect x="34" y="2.59" height="61.66" width="1"/><rect x="35" y="4.19" height="61.26" width="1"/><rect x="36" y="2.11" height="68.95" width="1"/><rect x="37" y="1.03" height="68.04" width="1"/><rect x="38" y="1.54" height="74.87" width="1"/><rect x="39" y="3.12" height="67.71" width="1"/><rect x="40" y="2.60" height="66.15" width="1"/><rect x="41" y="4.74" height="62.63" width="1"/><rect x="42" y="3.09" height="63.92" width="1"/><rect x="43" y="1.60" height="68.09" width="1"/><rect x="44" y="1.59" height="67.72" width="1"/><rect x="45" y="1.57" height="70.16" width="1"/><rect x="46" y="3.17" height="65.08" width="1"/><rect x="47" y="3.65" height="66.15" width="1"/><rect x="48" y="4.64" height="60.31" width="1"/><rect x="49" y="2.11" height="61.05" width="1"/><rect x="50" y="3.12" height="60.42" width="1"/><rect x="51" y="2.58" height="61.34" width="1"/><rect x="52" y="3.11" height="65.28" width="1"/><rect x="53" y="4.66" height="61.66" width="1"/><rect x="54" y="3.63" height="64.25" width="1"/><rect x="55" y="2.66" height="67.02" width="1"/><rect x="56" y="2.13" height="71.28" width="1"/><rect x="57" y="2.11" height="65.79" width="1"/><rect x="58" y="2.55" height="60.20" width="1"/><rect x="59" y="2.60" height="65.10" width="1"/><rect x="60" y="4.10" height="60.00" width="1"/><rect x="61" y="3.08" height="68.21" width="1"/><rect x="62" y="2.07" height="67.88" width="1"/><rect x="63" y="3.61" height="59.28" width="1"/><rect x="64" y="2.58" height="65.98" width="1"/><rect x="65" y="3.11" height="69.95" width="1"/><rect x="66" y="3.65" height="59.90" width="1"/><rect x="67" y="2.07" height="67.88" width="1"/><rect x="68" y="3.08" height="64.62" width="1"/><rect x="69" y="1.58" height="68.95" width="1"/><rect x="70" y="1.55" height="68.56" width="1"/><rect x="71" y="4.66" height="61.66" width="1"/><rect x="72" y="2.55" height="58.67" width="1"/><rect x="73" y="3.09" height="64.43" width="1"/><rect x="74" y="3.61" height="63.92" width="1"/><rect x="75" y="4.10" height="62.56" width="1"/><rect x="76" y="4.12" height="65.98" width="1"/><rect x="77" y="3.61" height="61.34" width="1"/><rect x="78" y="2.13" height="63.30" width="1"/><rect x="79" y="4.66" height="62.18" width="1"/><rect x="80" y="3.16" height="65.26" width="1"/><rect x="81" y="3.59" height="58.97" width="1"/><rect x="82" y="3.63" height="63.73" width="1"/><rect x="83" y="3.21" height="65.78" width="1"/><rect x="84" y="3.12" height="61.98" width="1"/><rect x="85" y="2.55" height="66.33" width="1"/><rect x="86" y="5.24" height="61.78" width="1"/><rect x="87" y="4.10" height="71.28" width="1"/><rect x="88" y="2.14" height="68.45" width="1"/><rect x="89" y="2.07" height="72.02" width="1"/><rect x="90" y="2.08" height="66.67" width="1"/><rect x="91" y="3.19" height="65.43" width="1"/><rect x="92" y="2.58" height="70.62" width="1"/><rect x="93" y="3.02" height="68.34" width="1"/><rect x="94" y="1.04" height="71.50" width="1"/><rect x="95" y="2.08" height="63.02" width="1"/><rect x="96" y="3.12" height="64.06" width="1"/><rect x="97" y="4.21" height="63.16" width="1"/><rect x="98" y="3.66" height="63.87" width="1"/><rect x="99" y="1.57" height="65.45" width="1"/><rect x="100" y="3.14" height="64.92" width="1"/><rect x="101" y="3.09" height="63.40" width="1"/><rect x="102" y="1.55" height="68.04" width="1"/><rect x="103" y="2.07" height="71.50" width="1"/><rect x="104" y="2.58" height="72.16" width="1"/><rect x="105" y="1.58" height="66.32" width="1"/><rect x="106" y="2.59" height="65.28" width="1"/><rect x="107" y="2.59" height="64.77" width="1"/><rect x="108" y="2.70" height="65.41" width="1"/><rect x="109" y="2.65" height="64.55" width="1"/><rect x="110" y="2.63" height="72.11" width="1"/><rect x="111" y="2.11" height="68.95" width="1"/><rect x="112" y="2.04" height="69.90" width="1"/><rect x="113" y="3.68" height="62.11" width="1"/><rect x="114" y="2.06" height="69.07" width="1"/><rect x="115" y="2.66" height="68.62" width="1"/><rect x="116" y="1.55" height="66.84" width="1"/><rect x="117" y="3.09" height="64.95" width="1"/><rect x="118" y="2.07" height="66.32" width="1"/><rect x="119" y="2.58" height="68.04" width="1"/>
</g>
<g style="fill: #ff0000; stroke: none" transform="scale(6.000000,-2.000000)">
<rect x="0" y="27.92" height="22.34" width="1"/><rect x="1" y="19.19" height="34.85" width="1"/><rect x="2" y="22.73" height="12.12" width="1"/><rect x="3" y="5.58" height="42.64" width="1"/><rect x="4" y="23.47" height="13.78" width="1"/><rect x="5" y="61.03" height="3.08" width="1"/><rect x="28" y="64.95" height="0.52" width="1"/><rect x="63" y="62.89" height="0.52" width="1"/>
</g>
<g style="fill: #e85f00; stroke: none" transform="scale(6.000000,-2.000000)">
<rect x="7" y="68.06" height="0.52" width="1"/><rect x="117" y="68.04" height="0.52" width="1"/>
</g>
<g style="fill: #006020; stroke: none" transform="scale(6.000000,-2.000000)">
<rect x="1" y="54.04" height="0.51" width="1"/><rect x="2" y="34.85" height="0.51" width="1"/><rect x="3" y="48.22" height="0.51" width="1"/><rect x="5" y="64.10" height="20.51" width="1"/><rect x="6" y="60.10" height="35.23" width="1"/><rect x="7" y="68.59" height="28.27" width="1"/><rect x="8" y="67.37" height="30.00" width="1"/><rect x="9" y="69.07" height="28.35" width="1"/><rect x="10" y="70.31" height="26.56" width="1"/><rect x="11" y="70.90" height="24.87" width="1"/><rect x="12" y="72.54" height="22.80" width="1"/><rect x="13" y="62.69" height="33.16" width="1"/><rect x="14" y="67.53" height="29.90" width="1"/><rect x="15" y="64.77" height="33.16" width="1"/><rect x="16" y="68.56" height="27.84" width="1"/><rect x="17" y="66.49" height="31.41" width="1"/><rect x="18" y="64.58" height="33.33" width="1"/><rect x="19" y="68.04" height="29.90" width="1"/><rect x="20" y="69.59" height="28.35" width="1"/><rect x="21" y="69.43" height="27.98" width="1"/><rect x="22" y="66.67" height="30.69" width="1"/><rect x="23" y="65.28" height="29.53" width="1"/><rect x="24" y="66.15" height="30.73" width="1"/><rect x="25" y="67.91" height="29.95" width="1"/><rect x="26" y="65.97" height="30.37" width="1"/><rect x="27" y="63.02" height="33.85" width="1"/><rect x="28" y="65.46" height="32.99" width="1"/><rect x="29" y="63.83" height="34.04" width="1"/><rect x="30" y="71.28" height="26.15" width="1"/><rect x="31" y="67.89" height="28.42" width="1"/><rect x="32" y="67.88" height="29.53" width="1"/><rect x="33" y="68.06" height="29.84" width="1"/><rect x="34" y="64.25" height="33.68" width="1"/><rect x="35" y="65.45" height="32.98" width="1"/><rect x="36" y="71.05" height="25.26" width="1"/><rect x="37" y="69.07" height="28.87" width="1"/><rect x="38" y="76.41" height="18.97" width="1"/><rect x="39" y="70.83" height="25.52" width="1"/><rect x="40" y="68.75" height="27.60" width="1"/><rect x="41" y="67.37" height="31.05" width="1"/><rect x="42" y="67.01" height="30.93" width="1"/><rect x="43" y="69.68" height="26.60" width="1"/><rect x="44" y="69.31" height="26.46" width="1"/><rect x="45" y="71.73" height="24.08" width="1"/><rect x="46" y="68.25" height="27.51" width="1"/><rect x="47" y="69.79" height="27.60" width="1"/><rect x="48" y="64.95" height="32.99" width="1"/><rect x="49" y="63.16" height="34.74" width="1"/><rect x="50" y="63.54" height="34.38" width="1"/><rect x="51" y="63.92" height="33.51" width="1"/><rect x="52" y="68.39" height="29.53" width="1"/><rect x="53" y="66.32" height="25.91" width="1"/><rect x="54" y="67.88" height="30.05" width="1"/><rect x="55" y="69.68" height="26.06" width="1"/><rect x="56" y="73.40" height="21.28" width="1"/><rect x="57" y="67.89" height="28.42" width="1"/><rect x="58" y="62.76" height="34.69" width="1"/><rect x="59" y="67.71" height="30.21" width="1"/><rect x="60" y="64.10" height="33.85" width="1"/><rect x="61" y="71.28" height="25.13" width="1"/><rect x="62" y="69.95" height="25.91" width="1"/><rect x="63" y="63.40" height="34.54" width="1"/><rect x="64" y="68.56" height="28.87" width="1"/><rect x="65" y="73.06" height="23.32" width="1"/><rect x="66" y="63.54" height="29.69" width="1"/><rect x="67" y="69.95" height="27.46" width="1"/><rect x="68" y="67.69" height="29.23" width="1"/><rect x="69" y="70.53" height="25.26" width="1"/><rect x="70" y="70.10" height="26.80" width="1"/><rect x="71" y="66.32" height="31.09" width="1"/><rect x="72" y="61.22" height="35.71" width="1"/><rect x="73" y="67.53" height="29.90" width="1"/><rect x="74" y="67.53" height="30.41" width="1"/><rect x="75" y="66.67" height="31.28" width="1"/><rect x="76" y="70.10" height="27.84" width="1"/><rect x="77" y="64.95" height="32.47" width="1"/><rect x="78" y="65.43" height="32.45" width="1"/><rect x="79" y="66.84" height="31.09" width="1"/><rect x="80" y="68.42" height="28.95" width="1"/><rect x="81" y="62.56" height="34.87" width="1"/><rect x="82" y="67.36" height="30.57" width="1"/><rect x="83" y="68.98" height="28.88" width="1"/><rect x="84" y="65.10" height="32.29" width="1"/><rect x="85" y="68.88" height="28.57" width="1"/><rect x="86" y="67.02" height="30.89" width="1"/><rect x="87" y="75.38" height="21.54" width="1"/><rect x="88" y="70.59" height="25.67" width="1"/><rect x="89" y="74.09" height="22.28" width="1"/><rect x="90" y="68.75" height="27.60" width="1"/><rect x="91" y="68.62" height="28.19" width="1"/><rect x="92" y="73.20" height="23.71" width="1"/><rect x="93" y="71.36" height="21.61" width="1"/><rect x="94" y="72.54" height="23.83" width="1"/><rect x="95" y="65.10" height="31.77" width="1"/><rect x="96" y="67.19" height="30.21" width="1"/><rect x="97" y="67.37" height="30.53" width="1"/><rect x="98" y="67.54" height="30.37" width="1"/><rect x="99" y="67.02" height="30.89" width="1"/><rect x="100" y="68.06" height="29.84" width="1"/><rect x="101" y="66.49" height="30.93" width="1"/><rect x="102" y="69.59" height="26.29" width="1"/><rect x="103" y="73.58" height="21.24" width="1"/><rect x="104" y="74.74" height="20.62" width="1"/><rect x="105" y="67.89" height="27.37" width="1"/><rect x="106" y="67.88" height="29.53" width="1"/><rect x="107" y="67.36" height="30.05" width="1"/><rect x="108" y="68.11" height="27.03" width="1"/><rect x="109" y="67.20" height="28.57" width="1"/><rect x="110" y="74.74" height="21.05" width="1"/><rect x="111" y="71.05" height="24.74" width="1"/><rect x="112" y="71.94" height="24.49" width="1"/><rect x="113" y="65.79" height="31.58" width="1"/><rect x="114" y="71.13" height="24.23" width="1"/><rect x="115" y="71.28" height="23.94" width="1"/><rect x="116" y="68.39" height="27.98" width="1"/><rect x="117" y="68.56" height="26.80" width="1"/><rect x="118" y="68.39" height="27.98" width="1"/><rect x="119" y="70.62" height="26.80" width="1"/>
</g>
</g>
</g>
<g id="g1" transform="translate(0,360)">
<rect x="0" y="0" height="300" width="1050"/>
<text x="0" y="20" style="fill: yellow; stroke: none">I/O and transfer rate statistics (1)
<tspan x="795" y="25" style="fill: yellow; stroke: none; font-size: 12px">(Min, Max values)</tspan>
</text>
<polyline points="70,50 70,250 790,250" stroke="white" stroke-width="2"/>
<text x="795" y="50" style="fill: #00cc00; stroke: none; font-size: 12px">tps (0.00, 206.00)</text>
<text x="795" y="65" style="fill: #ff00bf; stroke: none; font-size: 12px">rtps (0.00, 0.00)</text>
<text x="795" y="80" style="fill: #00ffff; stroke: none; font-size: 12px">wtps (0.00, 206.00)</text>
<g transform="translate(70,250)">
<text x="0" y="0" style="fill: white; stroke: none; font-size: 12px; text-anchor: end">0.</text>
<polyline points="0,60.00 720,60.00" style="vector-effect: non-scaling-stroke; stroke: #202020" transform="scale(1,-0.970874)"/>
<text x="0" y="-58" style="fill: white; stroke: none; font-size: 12px; text-anchor: end">60.</text>
<polyline points="0,120.00 720,120.00" style="vector-effect: non-scaling-stroke; stroke: #202020" transform="scale(1,-0.970874)"/>
<text x="0" y="-116" style="fill: white; stroke: none; font-size: 12px; text-anchor: end">120.</text>
<polyline points="0,180.00 720,180.00" style="vector-effect: non-scaling-stroke; stroke: #202020" transform="scale(1,-0.970874)"/>
<text x="0" y="-174" style="fill: white; stroke: none; font-size: 12px; text-anchor: end">180.</text>
<polyline points="0,0 0,-200" style="vector-effect: non-scaling-stroke; stroke: #202020" transform="scale(6.000000,1)"/>
<text x="0" y="10" style="fill: white; stroke: none; font-size: 12px; text-anchor: start" transform="rotate(45,0,0)">13:57:23</text>
<polyline points="12,0 12,-200" style="vector-effect: non-scaling-stroke; stroke: #202020" transform="scale(6.000000,1)"/>
<text x="72" y="10" style="fill: white; stroke: none; font-size: 12px; text-anchor: start" transform="rotate(45,72,0)">13:57:35</text>
<polyline points="24,0 24,-200" style="vector-effect: non-scaling-stroke; stroke: #202020" transform="scale(6.000000,1)"/>
<text x="144" y="10" style="fill: white; stroke: none; font-size: 12px; text-anchor: start" transform="rotate(45,144,0)">13:57:47</text>
<polyline points="36,0 36,-200" style="vector-effect: non-scaling-stroke; stroke: #202020" transform="scale(6.000000,1)"/>
<text x="216" y="10" style="fill: white; stroke: none; font-size: 12px; text-anchor: start" transform="rotate(45,216,0)">13:57:59</text>
<polyline points="48,0 48,-200" style="vector-effect: non-scaling-stroke; stroke: #202020" transform="scale(6.000000,1)"/>
<text x="288" y="10" style="fill: white; stroke: none; font-size: 12px; text-anchor: start" transform="rotate(45,288,0)">13:58:11</text>
<polyline points="60,0 60,-200" style="vector-effect: non-scaling-stroke; stroke: #202020" transform="scale(6.000000,1)"/>
<text x="360" y="10" style="fill: white; stroke: none; font-size: 12px; text-anchor: start" transform="rotate(45,360,0)">13:58:23</text>
<polyline points="72,0 72,-200" style="vector-effect: non-scaling-stroke; stroke: #202020" transform="scale(6.000000,1)"/>
<text x="432" y="10" style="fill: white; stroke: none; font-size: 12px; text-anchor: start" transform="rotate(45,432,0)">13:58:35</text>
<polyline points="84,0 84,-200" style="vector-effect: non-scaling-stroke; stroke: #202020" transform="scale(6.000000,1)"/>
<text x="504" y="10" style="fill: white; stroke: none; font-size: 12px; text-anchor: start" transform="rotate(45,504,0)">13:58:47</text>
<polyline points="96,0 96,-200" style="vector-effect: non-scaling-stroke; stroke: #202020" transform="scale(6.000000,1)"/>
<text x="576" y="10" style="fill: white; stroke: none; font-size: 12px; text-anchor: start" transform="rotate(45,576,0)">13:58:59</text>
<polyline points="108,0 108,-200" style="vector-effect: non-scaling-stroke; stroke: #202020" transform="scale(6.000000,1)"/>
<text x="648" y="10" style="fill: white; stroke: none; font-size: 12px; text-anchor: start" transform="rotate(45,648,0)">13:59:11</text>
<polyline points="120,0 120,-200" style="vector-effect: non-scaling-stroke; stroke: #202020" transform="scale(6.000000,1)"/>
<text x="720" y="10" style="fill: white; stroke: none; font-size: 12px; text-anchor: start" transform="rotate(45,720,0)">13:59:23</text>
<text x="-10" y="30" style="fill: yellow; stroke: none; font-size: 12px; text-anchor: end">UTC</text>
<path id="g1p0" d=" M1,116.00 L2,146.00 L3,9.00 L4,206.00 L5,38.00 L6,6.00 L7,0.00 L8,0.00 L9,0.00 L10,0.00 L11,2.00 L12,0.00 L13,0.00 L14,20.00 L15,0.00 L16,0.00 L17,2.00 L18,0.00 L19,0.00 L20,0.00 L21,0.00 L22,0.00 L23,2.00 L24,0.00 L25,0.00 L26,0.00 L27,0.00 L28,0.00 L29,2.00 L30,0.00 L31,0.00 L32,0.00 L33,0.00 L34,0.00 L35,89.00 L36,0.00 L37,0.00 L38,0.00 L39,0.00 L40,3.00 L41,0.00 L42,0.00 L43,0.00 L44,0.00 L45,0.00 L46,2.00 L47,0.00 L48,0.00 L49,0.00 L50,11.00 L51,0.00 L52,2.00 L53,0.00 L54,0.00 L55,0.00 L56,0.00 L57,0.00 L58,2.00 L59,0.00 L60,0.00 L61,0.00 L62,0.00 L63,0.00 L64,2.00 L65,0.00 L66,0.00 L67,0.00 L68,0.00 L69,0.00 L70,2.00 L71,1.00 L72,0.00 L73,0.00 L74,0.00 L75,0.00 L76,2.00 L77,0.00 L78,0.00 L79,0.00 L80,0.00 L81,0.00 L82,2.00 L83,0.00 L84,0.00 L85,0.00 L86,0.00 L87,0.00 L88,2.00 L89,0.00 L90,0.00 L91,0.00 L92,2.00 L93,0.00 L94,2.00 L95,0.00 L96,0.00 L97,0.00 L98,0.00 L99,0.00 L100,2.00 L101,0.00 L102,0.00 L103,2.00 L104,0.00 L105,0.00 L106,2.00 L107,0.00 L108,0.00 L109,1.00 L110,0.00 L111,0.00 L112,2.00 L113,0.00 L114,0.00 L115,1.00 L116,0.00 L117,0.00 L118,2.00 L119,0.00 L120,0.00" style="vector-effect: non-scaling-stroke; stroke: #00cc00; stroke-width: 1; fill-opacity: 0" transform="scale(6.000000,-0.970874)"/>
<path id="g1p1" d=" M1,0.00 L2,0.00 L3,0.00 L4,0.00 L5,0.00 L6,0.00 L7,0.00 L8,0.00 L9,0.00 L10,0.00 L11,0.00 L12,0.00 L13,0.00 L14,0.00 L15,0.00 L16,0.00 L17,0.00 L18,0.00 L19,0.00 L20,0.00 L21,0.00 L22,0.00 L23,0.00 L24,0.00 L25,0.00 L26,0.00 L27,0.00 L28,0.00 L29,0.00 L30,0.00 L31,0.00 L32,0.00 L33,0.00 L34,0.00 L35,0.00 L36,0.00 L37,0.00 L38,0.00 L39,0.00 L40,0.00 L41,0.00 L42,0.00 L43,0.00 L44,0.00 L45,0.00 L46,0.00 L47,0.00 L48,0.00 L49,0.00 L50,0.00 L51,0.00 L52,0.00 L53,0.00 L54,0.00 L55,0.00 L56,0.00 L57,0.00 L58,0.00 L59,0.00 L60,0.00 L61,0.00 L62,0.00 L63,0.00 L64,0.00 L65,0.00 L66,0.00 L67,0.00 L68,0.00 L69,0.00 L70,0.00 L71,0.00 L72,0.00 L73,0.00 L74,0.00 L75,0.00 L76,0.00 L77,0.00 L78,0.00 L79,0.00 L80,0.00 L81,0.00 L82,0.00 L83,0.00 L84,0.00 L85,0.00 L86,0.00 L87,0.00 L88,0.00 L89,0.00 L90,0.00 L91,0.00 L92,0.00 L93,0.00 L94,0.00 L95,0.00 L96,0.00 L97,0.00 L98,0.00 L99,0.00 L100,0.00 L101,0.00 L102,0.00 L103,0.00 L104,0.00 L105,0.00 L106,0.00 L107,0.00 L108,0.00 L109,0.00 L110,0.00 L111,0.00 L112,0.00 L113,0.00 L114,0.00 L115,0.00 L116,0.00 L117,0.00 L118,0.00 L119,0.00 L120,0.00" style="vector-effect: non-scaling-stroke; stroke: #ff00bf; stroke-width: 1; fill-opacity: 0" transform="scale(6.000000,-0.970874)"/>
<path id="g1p2" d=" M1,116.00 L2,146.00 L3,9.00 L4,206.00 L5,38.00 L6,6.00 L7,0.00 L8,0.00 L9,0.00 L10,0.00 L11,2.00 L12,0.00 L13,0.00 L14,20.00 L15,0.00 L16,0.00 L17,2.00 L18,0.00 L19,0.00 L20,0.00 L21,0.00 L22,0.00 L23,2.00 L24,0.00 L25,0.00 L26,0.00 L27,0.00 L28,0.00 L29,2.00 L30,0.00 L31,0.00 L32,0.00 L33,0.00 L34,0.00 L35,89.00 L36,0.00 L37,0.00 L38,0.00 L39,0.00 L40,3.00 L41,0.00 L42,0.00 L43,0.00 L44,0.00 L45,0.00 L46,2.00 L47,0.00 L48,0.00 L49,0.00 L50,11.00 L51,0.00 L52,2.00 L53,0.00 L54,0.00 L55,0.00 L56,0.00 L57,0.00 L58,2.00 L59,0.00 L60,0.00 L61,0.00 L62,0.00 L63,0.00 L64,2.00 L65,0.00 L66,0.00 L67,0.00 L68,0.00 L69,0.00 L70,2.00 L71,1.00 L72,0.00 L73,0.00 L74,0.00 L75,0.00 L76,2.00 L77,0.00 L78,0.00 L79,0.00 L80,0.00 L81,0.00 L82,2.00 L83,0.00 L84,0.00 L85,0.00 L86,0.00 L87,0.00 L88,2.00 L89,0.00 L90,0.00 L91,0.00 L92,2.00 L93,0.00 L94,2.00 L95,0.00 L96,0.00 L97,0.00 L98,0.00 L99,0.00 L100,2.00 L101,0.00 L102,0.00 L103,2.00 L104,0.00 L105,0.00 L106,2.00 L107,0.00 L108,0.00 L109,1.00 L110,0.00 L111,0.00 L112,2.00 L113,0.00 L114,0.00 L115,1.00 L116,0.00 L117,0.00 L118,2.00 L119,0.00 L120,0.00" style="vector-effect: non-scaling-stroke; stroke: #00ffff; stroke-width: 1; fill-opacity: 0" transform="scale(6.000000,-0.970874)"/>
</g>
<rect x="0" y="310" height="300" width="1050"/>
<text x="0" y="330" style="fill: yellow; stroke: none">I/O and transfer rate statistics (2)
<tspan x="795" y="335" style="fill: yellow; stroke: none; font-size: 12px">(Min, Max values)</tspan>
</text>
<polyline points="70,360 70,560 790,560" stroke="white" stroke-width="2"/>
<text x="795" y="360" style="fill: #ff0000; stroke: none; font-size: 12px">bread/s (0.00, 0.00)</text>
<text x="795" y="375" style="fill: #e85f00; stroke: none; font-size: 12px">bwrtn/s (0.00, 3144.00)</text>
<g transform="translate(70,560)">
<text x="0" y="0" style="fill: white; stroke: none; font-size: 12px; text-anchor: end">0.</text>
<polyline points="0,1000.00 720,1000.00" style="vector-effect: non-scaling-stroke; stroke: #202020" transform="scale(1,-0.063613)"/>
<text x="0" y="-63" style="fill: white; stroke: none; font-size: 12px; text-anchor: end">1000.</text>
<polyline points="0,2000.00 720,2000.00" style="vector-effect: non-scaling-stroke; stroke: #202020" transform="scale(1,-0.063613)"/>
<text x="0" y="-127" style="fill: white; stroke: none; font-size: 12px; text-anchor: end">2000.</text>
<polyline points="0,3000.00 720,3000.00" style="vector-effect: non-scaling-stroke; stroke: #202020" transform="scale(1,-0.063613)"/>
<text x="0" y="-190" style="fill: white; stroke: none; font-size: 12px; text-anchor: end">3000.</text>
<polyline points="0,0 0,-200" style="vector-effect: non-scaling-stroke; stroke: #202020" transform="scale(6.000000,1)"/>
<text x="0" y="10" style="fill: white; stroke: none; font-size: 12px; text-anchor: start" transform="rotate(45,0,0)">13:57:23</text>
<polyline points="12,0 12,-200" style="vector-effect: non-scaling-stroke; stroke: #202020" transform="scale(6.000000,1)"/>
<text x="72" y="10" style="fill: white; stroke: none; font-size: 12px; text-anchor: start" transform="rotate(45,72,0)">13:57:35</text>
<polyline points="24,0 24,-200" style="vector-effect: non-scaling-stroke; stroke: #202020" transform="scale(6.000000,1)"/>
<text x="144" y="10" style="fill: white; stroke: none; font-size: 12px; text-anchor: start" transform="rotate(45,144,0)">13:57:47</text>
<polyline points="36,0 36,-200" style="vector-effect: non-scaling-stroke; stroke: #202020" transform="scale(6.000000,1)"/>
<text x="216" y="10" style="fill: white; stroke: none; font-size: 12px; text-anchor: start" transform="rotate(45,216,0)">13:57:59</text>
<polyline points="48,0 48,-200" style="vector-effect: non-scaling-stroke; stroke: #202020" transform="scale(6.000000,1)"/>
<text x="288" y="10" style="fill: white; stroke: none; font-size: 12px; text-anchor: start" transform="rotate(45,288,0)">13:58:11</text>
<polyline points="60,0 60,-200" style="vector-effect: non-scaling-stroke; stroke: #202020" transform="scale(6.000000,1)"/>
<text x="360" y="10" style="fill: white; stroke: none; font-size: 12px; text-anchor: start" transform="rotate(45,360,0)">13:58:23</text>
<polyline points="72,0 72,-200" style="vector-effect: non-scaling-stroke; stroke: #202020" transform="scale(6.000000,1)"/>
<text x="432" y="10" style="fill: white; stroke: none; font-size: 12px; text-anchor: start" transform="rotate(45,432,0)">13:58:35</text>
<polyline points="84,0 84,-200" style="vector-effect: non-scaling-stroke; stroke: #202020" transform="scale(6.000000,1)"/>
<text x="504" y="10" style="fill: white; stroke: none; font-size: 12px; text-anchor: start" transform="rotate(45,504,0)">13:58:47</text>
<polyline points="96,0 96,-200" style="vector-effect: non-scaling-stroke; stroke: #202020" transform="scale(6.000000,1)"/>
<text x="576" y="10" style="fill: white; stroke: none; font-size: 12px; text-anchor: start" transform="rotate(45,576,0)">13:58:59</text>
<polyline points="108,0 108,-200" style="vector-effect: non-scaling-stroke; stroke: #202020" transform="scale(6.000000,1)"/>
<text x="648" y="10" style="fill: white; stroke: none; font-size: 12px; text-anchor: start" transform="rotate(45,648,0)">13:59:11</text>
<polyline points="120,0 120,-200" style="vector-effect: non-scaling-stroke; stroke: #202020" transform="scale(6.000000,1)"/>
<text x="720" y="10" style="fill: white; stroke: none; font-size: 12px; text-anchor: start" transform="rotate(45,720,0)">13:59:23</text>
<text x="-10" y="30" style="fill: yellow; stroke: none; font-size: 12px; text-anchor: end">UTC</text>
<path id="g1p3" d=" M1,0.00 L2,0.00 L3,0.00 L4,0.00 L5,0.00 L6,0.00 L7,0.00 L8,0.00 L9,0.00 L10,0.00 L11,0.00 L12,0.00 L13,0.00 L14,0.00 L15,0.00 L16,0.00 L17,0.00 L18,0.00 L19,0.00 L20,0.00 L21,0.00 L22,0.00 L23,0.00 L24,0.00 L25,0.00 L26,0.00 L27,0.00 L28,0.00 L29,0.00 L30,0.00 L31,0.00 L32,0.00 L33,0.00 L34,0.00 L35,0.00 L36,0.00 L37,0.00 L38,0.00 L39,0.00 L40,0.00 L41,0.00 L42,0.00 L43,0.00 L44,0.00 L45,0.00 L46,0.00 L47,0.00 L48,0.00 L49,0.00 L50,0.00 L51,0.00 L52,0.00 L53,0.00 L54,0.00 L55,0.00 L56,0.00 L57,0.00 L58,0.00 L59,0.00 L60,0.00 L61,0.00 L62,0.00 L63,0.00 L64,0.00 L65,0.00 L66,0.00 L67,0.00 L68,0.00 L69,0.00 L70,0.00 L71,0.00 L72,0.00 L73,0.00 L74,0.00 L75,0.00 L76,0.00 L77,0.00 L78,0.00 L79,0.00 L80,0.00 L81,0.00 L82,0.00 L83,0.00 L84,0.00 L85,0.00 L86,0.00 L87,0.00 L88,0.00 L89,0.00 L90,0.00 L91,0.00 L92,0.00 L93,0.00 L94,0.00 L95,0.00 L96,0.00 L97,0.00 L98,0.00 L99,0.00 L100,0.00 L101,0.00 L102,0.00 L103,0.00 L104,0.00 L105,0.00 L106,0.00 L107,0.00 L108,0.00 L109,0.00 L110,0.00 L111,0.00 L112,0.00 L113,0.00 L114,0.00 L115,0.00 L116,0.00 L117,0.00 L118,0.00 L119,0.00 L120,0.00" style="vector-effect: non-scaling-stroke; stroke: #ff0000; stroke-width: 1; fill-opacity: 0" transform="scale(6.000000,-0.063613)"/>
<path id="g1p4" d=" M1,1976.00 L2,1896.00 L3,208.00 L4,3144.00 L5,488.00 L6,424.00 L7,0.00 L8,0.00 L9,0.00 L10,0.00 L11,96.00 L12,0.00 L13,0.00 L14,288.00 L15,0.00 L16,0.00 L17,32.00 L18,0.00 L19,0.00 L20,0.00 L21,0.00 L22,0.00 L23,24.00 L24,0.00 L25,0.00 L26,0.00 L27,0.00 L28,0.00 L29,24.00 L30,0.00 L31,0.00 L32,0.00 L33,0.00 L34,0.00 L35,1192.00 L36,0.00 L37,0.00 L38,0.00 L39,0.00 L40,104.00 L41,0.00 L42,0.00 L43,0.00 L44,0.00 L45,0.00 L46,24.00 L47,0.00 L48,0.00 L49,0.00 L50,192.00 L51,0.00 L52,40.00 L53,0.00 L54,0.00 L55,0.00 L56,0.00 L57,0.00 L58,24.00 L59,0.00 L60,0.00 L61,0.00 L62,0.00 L63,0.00 L64,24.00 L65,0.00 L66,0.00 L67,0.00 L68,0.00 L69,0.00 L70,24.00 L71,144.00 L72,0.00 L73,0.00 L74,0.00 L75,0.00 L76,40.00 L77,0.00 L78,0.00 L79,0.00 L80,0.00 L81,0.00 L82,24.00 L83,0.00 L84,0.00 L85,0.00 L86,0.00 L87,0.00 L88,24.00 L89,0.00 L90,0.00 L91,0.00 L92,144.00 L93,0.00 L94,56.00 L95,0.00 L96,0.00 L97,0.00 L98,0.00 L99,0.00 L100,24.00 L101,0.00 L102,0.00 L103,88.00 L104,0.00 L105,0.00 L106,48.00 L107,0.00 L108,0.00 L109,48.00 L110,0.00 L111,0.00 L112,48.00 L113,0.00 L114,0.00 L115,48.00 L116,0.00 L117,0.00 L118,48.00 L119,0.00 L120,0.00" style="vector-effect: non-scaling-stroke; stroke: #e85f00; stroke-width: 1; fill-opacity: 0" transform="scale(6.000000,-0.063613)"/>
</g>
</g>
<!-- Actual canvas height: 980 -->
</svg>
