<?xml version="1.0" encoding="UTF-8"?>
<!DOCTYPE svg PUBLIC "-//W3C//DTD SVG 1.1//EN" "http://www.w3.org/Graphics/SVG/1.1/DTD/svg11.dtd">
<svg xmlns="http://www.w3.org/2000/svg" width="1060" height="1600" fill="black" stroke="gray" stroke-width="1">
<text x= "0" y="30" text-anchor="start" stroke="brown">Linux 4.15.0-58-generic (docker-host-1) 	08/25/19 	_x86_64_	(2 CPU)
</text>
<g id="g0" transform="translate(0,50)">
<rect x="0" y="0" height="300" width="1050"/>
<text x="0" y="20" style="fill: yellow; stroke: none">CPU load [all]
<tspan x="795" y="25" style="fill: yellow; stroke: none; font-size: 12px">(Min, Max values)</tspan>
</text>
<polyline points="70,50 70,250 790,250" stroke="white" stroke-width="2"/>
<text x="795" y="50" style="fill: #00cc00; stroke: none; font-size: 12px">%usr (0.00, 24.62)</text>
<text x="795" y="65" style="fill: #ff00bf; stroke: none; font-size: 12px">%nice (0.00, 0.00)</text>
<text x="795" y="80" style="fill: #00ffff; stroke: none; font-size: 12px">%sys (0.00, 81.05)</text>
<text x="795" y="95" style="fill: #ff0000; stroke: none; font-size: 12px">%iowait (0.00, 46.43)</text>
<text x="795" y="110" style="fill: #e85f00; stroke: none; font-size: 12px">%steal (0.00, 0.53)</text>
<text x="795" y="125" style="fill: #0000ff; stroke: none; font-size: 12px">%irq (0.00, 0.00)</text>
<text x="795" y="140" style="fill: #006020; stroke: none; font-size: 12px">%soft (0.00, 20.21)</text>
<text x="795" y="155" style="fill: #7030a0; stroke: none; font-size: 12px">%guest (0.00, 0.00)</text>
<text x="795" y="170" style="fill: #ffff00; stroke: none; font-size: 12px">%gnice (0.00, 0.00)</text>
<g transform="translate(70,250)">
<text x="0" y="0" style="fill: white; stroke: none; font-size: 12px; text-anchor: end">0.</text>
<polyline points="0,25.00 720,25.00" style="vector-effect: non-scaling-stroke; stroke: #202020" transform="scale(1,-2.000000)"/>
<text x="0" y="-50" style="fill: white; stroke: none; font-size: 12px; text-anchor: end">25.</text>
<polyline points="0,50.00 720,50.00" style="vector-effect: non-scaling-stroke; stroke: #202020" transform="scale(1,-2.000000)"/>
<text x="0" y="-100" style="fill: white; stroke: none; font-size: 12px; text-anchor: end">50.</text>
<polyline points="0,75.00 720,75.00" style="vector-effect: non-scaling-stroke; stroke: #202020" transform="scale(1,-2.000000)"/>
<text x="0" y="-150" style="fill: white; stroke: none; font-size: 12px; text-anchor: end">75.</text>
<polyline points="0,100.00 720,100.00" style="vector-effect: non-scaling-stroke; stroke: #202020" transform="scale(1,-2.000000)"/>
<text x="0" y="-200" style="fill: white; stroke: none; font-size: 12px; text-anchor: end">100.</text>
<polyline points="0,0 0,-200" style="vector-effect: non-scaling-stroke; stroke: #202020" transform="scale(6.000000,1)"/>
<text x="0" y="10" style="fill: white; stroke: none; font-size: 12px; text-anchor: start" transform="rotate(45,0,0)">14:01:43</text>
<polyline points="12,0 12,-200" style="vector-effect: non-scaling-stroke; stroke: #202020" transform="scale(6.000000,1)"/>
<text x="72" y="10" style="fill: white; stroke: none; font-size: 12px; text-anchor: start" transform="rotate(45,72,0)">14:01:55</text>
<polyline points="24,0 24,-200" style="vector-effect: non-scaling-stroke; stroke: #202020" transform="scale(6.000000,1)"/>
<text x="144" y="10" style="fill: white; stroke: none; font-size: 12px; text-anchor: start" transform="rotate(45,144,0)">14:02:07</text>
<polyline points="36,0 36,-200" style="vector-effect: non-scaling-stroke; stroke: #202020" transform="scale(6.000000,1)"/>
<text x="216" y="10" style="fill: white; stroke: none; font-size: 12px; text-anchor: start" transform="rotate(45,216,0)">14:02:19</text>
<polyline points="48,0 48,-200" style="vector-effect: non-scaling-stroke; stroke: #202020" transform="scale(6.000000,1)"/>
<text x="288" y="10" style="fill: white; stroke: none; font-size: 12px; text-anchor: start" transform="rotate(45,288,0)">14:02:31</text>
<polyline points="60,0 60,-200" style="vector-effect: non-scaling-stroke; stroke: #202020" transform="scale(6.000000,1)"/>
<text x="360" y="10" style="fill: white; stroke: none; font-size: 12px; text-anchor: start" transform="rotate(45,360,0)">14:02:43</text>
<polyline points="72,0 72,-200" style="vector-effect: non-scaling-stroke; stroke: #202020" transform="scale(6.000000,1)"/>
<text x="432" y="10" style="fill: white; stroke: none; font-size: 12px; text-anchor: start" transform="rotate(45,432,0)">14:02:55</text>
<polyline points="84,0 84,-200" style="vector-effect: non-scaling-stroke; stroke: #202020" transform="scale(6.000000,1)"/>
<text x="504" y="10" style="fill: white; stroke: none; font-size: 12px; text-anchor: start" transform="rotate(45,504,0)">14:03:07</text>
<polyline points="96,0 96,-200" style="vector-effect: non-scaling-stroke; stroke: #202020" transform="scale(6.000000,1)"/>
<text x="576" y="10" style="fill: white; stroke: none; font-size: 12px; text-anchor: start" transform="rotate(45,576,0)">14:03:19</text>
<polyline points="108,0 108,-200" style="vector-effect: non-scaling-stroke; stroke: #202020" transform="scale(6.000000,1)"/>
<text x="648" y="10" style="fill: white; stroke: none; font-size: 12px; text-anchor: start" transform="rotate(45,648,0)">14:03:31</text>
<polyline points="120,0 120,-200" style="vector-effect: non-scaling-stroke; stroke: #202020" transform="scale(6.000000,1)"/>
<text x="720" y="10" style="fill: white; stroke: none; font-size: 12px; text-anchor: start" transform="rotate(45,720,0)">14:03:43</text>
<text x="-10" y="30" style="fill: yellow; stroke: none; font-size: 12px; text-anchor: end">UTC</text>
<g style="fill: #00cc00; stroke: none" transform="scale(6.000000,-2.000000)">
<rect x="0" y="0.00" height="18.27" width="1"/><rect x="4" y="0.00" height="0.50" width="1"/><rect x="12" y="0.00" height="1.01" width="1"/><rect x="14" y="0.00" height="0.50" width="1"/><rect x="15" y="0.00" height="1.99" width="1"/><rect x="16" y="0.00" height="2.04" width="1"/><rect x="17" y="0.00" height="24.62" width="1"/><rect x="18" y="0.00" height="3.50" width="1"/><rect x="19" y="0.00" height="12.31" width="1"/><rect x="20" y="0.00" height="16.49" width="1"/><rect x="21" y="0.00" height="3.09" width="1"/><rect x="22" y="0.00" height="4.19" width="1"/><rect x="23" y="0.00" height="3.59" width="1"/><rect x="24" y="0.00" height="3.66" width="1"/><rect x="25" y="0.00" height="3.63" width="1"/><rect x="26" y="0.00" height="3.17" width="1"/><rect x="27" y="0.00" height="2.09" width="1"/><rect x="28" y="0.00" height="3.65" width="1"/><rect x="29" y="0.00" height="2.66" width="1"/><rect x="30" y="0.00" height="2.13" width="1"/><rect x="31" y="0.00" height="3.12" width="1"/><rect x="32" y="0.00" height="3.16" width="1"/><rect x="33" y="0.00" height="3.17" width="1"/><rect x="34" y="0.00" height="1.56" width="1"/><rect x="35" y="0.00" height="2.05" width="1"/><rect x="36" y="0.00" height="2.59" width="1"/><rect x="37" y="0.00" height="3.61" width="1"/><rect x="38" y="0.00" height="3.57" width="1"/><rect x="39" y="0.00" height="3.16" width="1"/><rect x="40" y="0.00" height="4.69" width="1"/><rect x="41" y="0.00" height="3.59" width="1"/><rect x="42" y="0.00" height="2.11" width="1"/><rect x="43" y="0.00" height="3.14" width="1"/><rect x="44" y="0.00" height="1.60" width="1"/><rect x="45" y="0.00" height="3.59" width="1"/><rect x="46" y="0.00" height="2.09" width="1"/><rect x="47" y="0.00" height="3.09" width="1"/><rect x="48" y="0.00" height="3.78" width="1"/><rect x="49" y="0.00" height="2.63" width="1"/><rect x="50" y="0.00" height="3.61" width="1"/><rect x="51" y="0.00" height="3.61" width="1"/><rect x="52" y="0.00" height="2.11" width="1"/><rect x="53" y="0.00" height="2.05" width="1"/><rect x="54" y="0.00" height="3.11" width="1"/><rect x="55" y="0.00" height="4.59" width="1"/><rect x="56" y="0.00" height="2.62" width="1"/><rect x="57" y="0.00" height="3.70" width="1"/><rect x="58" y="0.00" height="2.12" width="1"/><rect x="59" y="0.00" height="4.59" width="1"/><rect x="60" y="0.00" height="3.17" width="1"/><rect x="61" y="0.00" height="2.09" width="1"/><rect x="62" y="0.00" height="3.14" width="1"/><rect x="63" y="0.00" height="3.09" width="1"/><rect x="64" y="0.00" height="3.19" width="1"/><rect x="65" y="0.00" height="3.19" width="1"/><rect x="66" y="0.00" height="2.15" width="1"/><rect x="67" y="0.00" height="3.19" width="1"/><rect x="68" y="0.00" height="1.57" width="1"/><rect x="69" y="0.00" height="3.72" width="1"/><rect x="70" y="0.00" height="3.28" width="1"/><rect x="71" y="0.00" height="2.72" width="1"/><rect x="72" y="0.00" height="2.65" width="1"/><rect x="73" y="0.00" height="4.57" width="1"/><rect x="74" y="0.00" height="3.11" width="1"/><rect x="75" y="0.00" height="2.12" width="1"/><rect x="76" y="0.00" height="2.60" width="1"/><rect x="77" y="0.00" height="3.65" width="1"/><rect x="78" y="0.00" height="2.60" width="1"/><rect x="79" y="0.00" height="3.09" width="1"/><rect x="80" y="0.00" height="3.61" width="1"/><rect x="81" y="0.00" height="5.26" width="1"/><rect x="82" y="0.00" height="3.12" width="1"/><rect x="83" y="0.00" height="3.61" width="1"/><rect x="84" y="0.00" height="4.26" width="1"/><rect x="85" y="0.00" height="3.68" width="1"/><rect x="86" y="0.00" height="2.56" width="1"/><rect x="87" y="0.00" height="3.61" width="1"/><rect x="88" y="0.00" height="3.65" width="1"/><rect x="89" y="0.00" height="3.16" width="1"/><rect x="90" y="0.00" height="3.11" width="1"/><rect x="91" y="0.00" height="3.11" width="1"/><rect x="92" y="0.00" height="4.17" width="1"/><rect x="93" y="0.00" height="2.11" width="1"/><rect x="94" y="0.00" height="2.62" width="1"/><rect x="95" y="0.00" height="3.59" width="1"/><rect x="96" y="0.00" height="4.21" width="1"/><rect x="97" y="0.00" height="4.19" width="1"/><rect x="98" y="0.00" height="3.11" width="1"/><rect x="99" y="0.00" height="4.19" width="1"/><rect x="100" y="0.00" height="2.59" width="1"/><rect x="101" y="0.00" height="4.28" width="1"/><rect x="102" y="0.00" height="3.72" width="1"/><rect x="103" y="0.00" height="1.57" width="1"/><rect x="104" y="0.00" height="4.26" width="1"/><rect x="105" y="0.00" height="2.60" width="1"/><rect x="106" y="0.00" height="2.62" width="1"/><rect x="107" y="0.00" height="3.16" width="1"/><rect x="108" y="0.00" height="3.59" width="1"/><rect x="109" y="0.00" height="4.12" width="1"/><rect x="110" y="0.00" height="3.63" width="1"/><rect x="111" y="0.00" height="1.56" width="1"/><rect x="112" y="0.00" height="4.66" width="1"/><rect x="113" y="0.00" height="4.21" width="1"/><rect x="114" y="0.00" height="4.17" width="1"/><rect x="115" y="0.00" height="4.17" width="1"/><rect x="116" y="0.00" height="1.55" width="1"/><rect x="117" y="0.00" height="4.19" width="1"/><rect x="118" y="0.00" height="3.63" width="1"/><rect x="119" y="0.00" height="3.11" width="1"/>
</g>
<g style="fill: #00ffff; stroke: none" transform="scale(6.000000,-2.000000)">
<rect x="0" y="18.27" height="4.57" width="1"/><rect x="1" y="0.00" height="0.50" width="1"/><rect x="8" y="0.00" height="0.50" width="1"/><rect x="9" y="0.00" height="0.50" width="1"/><rect x="12" y="1.01" height="1.01" width="1"/><rect x="15" y="1.99" height="1.99" width="1"/><rect x="16" y="2.04" height="1.53" width="1"/><rect x="17" y="24.62" height="11.28" width="1"/><rect x="18" y="3.50" height="1.00" width="1"/><rect x="19" y="12.31" height="8.72" width="1"/><rect x="20" y="16.49" height="30.93" width="1"/><rect x="21" y="3.09" height="75.26" width="1"/><rect x="22" y="4.19" height="72.77" width="1"/><rect x="23" y="3.59" height="77.95" width="1"/><rect x="24" y="3.66" height="75.39" width="1"/><rect x="25" y="3.63" height="75.65" width="1"/><rect x="26" y="3.17" height="77.25" width="1"/><rect x="27" y="2.09" height="75.39" width="1"/><rect x="28" y="3.65" height="75.52" width="1"/><rect x="29" y="2.66" height="73.94" width="1"/><rect x="30" y="2.13" height="77.13" width="1"/><rect x="31" y="3.12" height="76.04" width="1"/><rect x="32" y="3.16" height="77.89" width="1"/><rect x="33" y="3.17" height="69.84" width="1"/><rect x="34" y="1.56" height="73.96" width="1"/><rect x="35" y="2.05" height="78.97" width="1"/><rect x="36" y="2.59" height="76.68" width="1"/><rect x="37" y="3.61" height="76.80" width="1"/><rect x="38" y="3.57" height="78.57" width="1"/><rect x="39" y="3.16" height="81.05" width="1"/><rect x="40" y="4.69" height="73.96" width="1"/><rect x="41" y="3.59" height="77.95" width="1"/><rect x="42" y="2.11" height="78.95" width="1"/><rect x="43" y="3.14" height="76.96" width="1"/><rect x="44" y="1.60" height="79.14" width="1"/><rect x="45" y="3.59" height="75.90" width="1"/><rect x="46" y="2.09" height="75.39" width="1"/><rect x="47" y="3.09" height="77.84" width="1"/><rect x="48" y="3.78" height="78.38" width="1"/><rect x="49" y="2.63" height="76.84" width="1"/><rect x="50" y="3.61" height="79.38" width="1"/><rect x="51" y="3.61" height="77.32" width="1"/><rect x="52" y="2.11" height="75.26" width="1"/><rect x="53" y="2.05" height="68.72" width="1"/><rect x="54" y="3.11" height="76.68" width="1"/><rect x="55" y="4.59" height="77.04" width="1"/><rect x="56" y="2.62" height="78.01" width="1"/><rect x="57" y="3.70" height="79.89" width="1"/><rect x="58" y="2.12" height="77.78" width="1"/><rect x="59" y="4.59" height="79.08" width="1"/><rect x="60" y="3.17" height="76.72" width="1"/><rect x="61" y="2.09" height="76.44" width="1"/><rect x="62" y="3.14" height="78.53" width="1"/><rect x="63" y="3.09" height="80.93" width="1"/><rect x="64" y="3.19" height="74.47" width="1"/><rect x="65" y="3.19" height="77.66" width="1"/><rect x="66" y="2.15" height="76.88" width="1"/><rect x="67" y="3.19" height="77.13" width="1"/><rect x="68" y="1.57" height="79.58" width="1"/><rect x="69" y="3.72" height="78.19" width="1"/><rect x="70" y="3.28" height="77.05" width="1"/><rect x="71" y="2.72" height="76.09" width="1"/><rect x="72" y="2.65" height="76.72" width="1"/><rect x="73" y="4.57" height="75.63" width="1"/><rect x="74" y="3.11" height="77.72" width="1"/><rect x="75" y="2.12" height="74.60" width="1"/><rect x="76" y="2.60" height="78.65" width="1"/><rect x="77" y="3.65" height="76.04" width="1"/><rect x="78" y="2.60" height="79.69" width="1"/><rect x="79" y="3.09" height="74.74" width="1"/><rect x="80" y="3.61" height="76.29" width="1"/><rect x="81" y="5.26" height="75.26" width="1"/><rect x="82" y="3.12" height="75.00" width="1"/><rect x="83" y="3.61" height="76.80" width="1"/><rect x="84" y="4.26" height="76.60" width="1"/><rect x="85" y="3.68" height="75.79" width="1"/><rect x="86" y="2.56" height="80.00" width="1"/><rect x="87" y="3.61" height="76.80" width="1"/><rect x="88" y="3.65" height="77.60" width="1"/><rect x="89" y="3.16" height="78.42" width="1"/><rect x="90" y="3.11" height="78.76" width="1"/><rect x="91" y="3.11" height="78.24" width="1"/><rect x="92" y="4.17" height="76.04" width="1"/><rect x="93" y="2.11" height="74.74" width="1"/><rect x="94" y="2.62" height="75.92" width="1"/><rect x="95" y="3.59" height="75.38" width="1"/><rect x="96" y="4.21" height="76.32" width="1"/><rect x="97" y="4.19" height="74.35" width="1"/><rect x="98" y="3.11" height="79.27" width="1"/><rect x="99" y="4.19" height="76.96" width="1"/><rect x="100" y="2.59" height="80.83" width="1"/><rect x="101" y="4.28" height="79.14" width="1"/><rect x="102" y="3.72" height="75.53" width="1"/><rect x="103" y="1.57" height="80.63" width="1"/><rect x="104" y="4.26" height="72.87" width="1"/><rect x="105" y="2.60" height="79.17" width="1"/><rect x="106" y="2.62" height="76.96" width="1"/><rect x="107" y="3.16" height="76.32" width="1"/><rect x="108" y="3.59" height="74.36" width="1"/><rect x="109" y="4.12" height="75.77" width="1"/><rect x="110" y="3.63" height="79.27" width="1"/><rect x="111" y="1.56" height="79.69" width="1"/><rect x="112" y="4.66" height="75.13" width="1"/><rect x="113" y="4.21" height="75.79" width="1"/><rect x="114" y="4.17" height="75.52" width="1"/><rect x="115" y="4.17" height="73.96" width="1"/><rect x="116" y="1.55" height="78.24" width="1"/><rect x="117" y="4.19" height="76.96" width="1"/><rect x="118" y="3.63" height="74.09" width="1"/><rect x="119" y="3.11" height="76.68" width="1"/>
</g>
<g style="fill: #ff0000; stroke: none" transform="scale(6.000000,-2.000000)">
<rect x="0" y="22.84" height="4.57" width="1"/><rect x="5" y="0.00" height="2.01" width="1"/><rect x="10" y="0.00" height="1.01" width="1"/><rect x="15" y="3.98" height="18.91" width="1"/><rect x="16" y="3.57" height="46.43" width="1"/><rect x="17" y="35.90" height="1.54" width="1"/><rect x="18" y="4.50" height="43.50" width="1"/><rect x="19" y="21.03" height="23.08" width="1"/><rect x="20" y="47.42" height="10.82" width="1"/><rect x="26" y="80.42" height="0.53" width="1"/><rect x="42" y="81.05" height="1.05" width="1"/>
</g>
<g style="fill: #e85f00; stroke: none" transform="scale(6.000000,-2.000000)">
<rect x="72" y="79.37" height="0.53" width="1"/>
</g>
<g style="fill: #006020; stroke: none" transform="scale(6.000000,-2.000000)">
<rect x="17" y="37.44" height="0.51" width="1"/><rect x="18" y="48.00" height="0.50" width="1"/><rect x="20" y="58.25" height="6.70" width="1"/><rect x="21" y="78.35" height="18.56" width="1"/><rect x="22" y="76.96" height="19.37" width="1"/><rect x="23" y="81.54" height="15.38" width="1"/><rect x="24" y="79.06" height="17.28" width="1"/><rect x="25" y="79.27" height="16.06" width="1"/><rect x="26" y="80.95" height="16.40" width="1"/><rect x="27" y="77.49" height="18.85" width="1"/><rect x="28" y="79.17" height="14.06" width="1"/><rect x="29" y="76.60" height="16.49" width="1"/><rect x="30" y="79.26" height="12.23" width="1"/><rect x="31" y="79.17" height="14.06" width="1"/><rect x="32" y="81.05" height="11.05" width="1"/><rect x="33" y="73.02" height="12.70" width="1"/><rect x="34" y="75.52" height="13.54" width="1"/><rect x="35" y="81.03" height="14.87" width="1"/><rect x="36" y="79.27" height="17.62" width="1"/><rect x="37" y="80.41" height="15.98" width="1"/><rect x="38" y="82.14" height="14.80" width="1"/><rect x="39" y="84.21" height="12.63" width="1"/><rect x="40" y="78.65" height="18.75" width="1"/><rect x="41" y="81.54" height="15.90" width="1"/><rect x="42" y="82.11" height="13.68" width="1"/><rect x="43" y="80.10" height="15.18" width="1"/><rect x="44" y="80.75" height="14.44" width="1"/><rect x="45" y="79.49" height="16.92" width="1"/><rect x="46" y="77.49" height="19.90" width="1"/><rect x="47" y="80.93" height="14.43" width="1"/><rect x="48" y="82.16" height="12.97" width="1"/><rect x="49" y="79.47" height="16.32" width="1"/><rect x="50" y="82.99" height="14.43" width="1"/><rect x="51" y="80.93" height="16.49" width="1"/><rect x="52" y="77.37" height="15.26" width="1"/><rect x="53" y="70.77" height="15.38" width="1"/><rect x="54" y="79.79" height="17.10" width="1"/><rect x="55" y="81.63" height="15.31" width="1"/><rect x="56" y="80.63" height="16.23" width="1"/><rect x="57" y="83.60" height="12.70" width="1"/><rect x="58" y="79.89" height="16.93" width="1"/><rect x="59" y="83.67" height="13.27" width="1"/><rect x="60" y="79.89" height="17.46" width="1"/><rect x="61" y="78.53" height="13.61" width="1"/><rect x="62" y="81.68" height="14.66" width="1"/><rect x="63" y="84.02" height="13.40" width="1"/><rect x="64" y="77.66" height="19.15" width="1"/><rect x="65" y="80.85" height="17.02" width="1"/><rect x="66" y="79.03" height="15.59" width="1"/><rect x="67" y="80.32" height="14.89" width="1"/><rect x="68" y="81.15" height="14.14" width="1"/><rect x="69" y="81.91" height="13.30" width="1"/><rect x="70" y="80.33" height="16.39" width="1"/><rect x="71" y="78.80" height="15.76" width="1"/><rect x="72" y="79.89" height="12.70" width="1"/><rect x="73" y="80.20" height="15.74" width="1"/><rect x="74" y="80.83" height="16.06" width="1"/><rect x="75" y="76.72" height="20.11" width="1"/><rect x="76" y="81.25" height="13.02" width="1"/><rect x="77" y="79.69" height="15.62" width="1"/><rect x="78" y="82.29" height="14.58" width="1"/><rect x="79" y="77.84" height="18.56" width="1"/><rect x="80" y="79.90" height="16.49" width="1"/><rect x="81" y="80.53" height="16.84" width="1"/><rect x="82" y="78.12" height="18.75" width="1"/><rect x="83" y="80.41" height="16.49" width="1"/><rect x="84" y="80.85" height="15.43" width="1"/><rect x="85" y="79.47" height="17.37" width="1"/><rect x="86" y="82.56" height="14.36" width="1"/><rect x="87" y="80.41" height="16.49" width="1"/><rect x="88" y="81.25" height="16.15" width="1"/><rect x="89" y="81.58" height="15.79" width="1"/><rect x="90" y="81.87" height="15.03" width="1"/><rect x="91" y="81.35" height="15.54" width="1"/><rect x="92" y="80.21" height="15.62" width="1"/><rect x="93" y="76.84" height="14.74" width="1"/><rect x="94" y="78.53" height="15.71" width="1"/><rect x="95" y="78.97" height="17.44" width="1"/><rect x="96" y="80.53" height="16.84" width="1"/><rect x="97" y="78.53" height="18.32" width="1"/><rect x="98" y="82.38" height="14.51" width="1"/><rect x="99" y="81.15" height="16.23" width="1"/><rect x="100" y="83.42" height="13.99" width="1"/><rect x="101" y="83.42" height="13.90" width="1"/><rect x="102" y="79.26" height="18.62" width="1"/><rect x="103" y="82.20" height="15.18" width="1"/><rect x="104" y="77.13" height="20.21" width="1"/><rect x="105" y="81.77" height="16.15" width="1"/><rect x="106" y="79.58" height="17.80" width="1"/><rect x="107" y="79.47" height="17.89" width="1"/><rect x="108" y="77.95" height="19.49" width="1"/><rect x="109" y="79.90" height="17.53" width="1"/><rect x="110" y="82.90" height="14.51" width="1"/><rect x="111" y="81.25" height="16.67" width="1"/><rect x="112" y="79.79" height="18.13" width="1"/><rect x="113" y="80.00" height="16.84" width="1"/><rect x="114" y="79.69" height="17.19" width="1"/><rect x="115" y="78.13" height="19.27" width="1"/><rect x="116" y="79.79" height="17.62" width="1"/><rect x="117" y="81.15" height="16.23" width="1"/><rect x="118" y="77.72" height="19.69" width="1"/><rect x="119" y="79.79" height="17.62" width="1"/>
</g>
</g>
</g>
<g id="g1" transform="translate(0,360)">
<rect x="0" y="0" height="300" width="1050"/>
<text x="0" y="20" style="fill: yellow; stroke: none">I/O and transfer rate statistics (1)
<tspan x="795" y="25" style="fill: yellow; stroke: none; font-size: 12px">(Min, Max values)</tspan>
</text>
<polyline points="70,50 70,250 790,250" stroke="white" stroke-width="2"/>
<text x="795" y="50" style="fill: #00cc00; stroke: none; font-size: 12px">tps (0.00, 158.00)</text>
<text x="795" y="65" style="fill: #ff00bf; stroke: none; font-size: 12px">rtps (0.00, 1.00)</text>
<text x="795" y="80" style="fill: #00ffff; stroke: none; font-size: 12px">wtps (0.00, 158.00)</text>
<g transform="translate(70,250)">
<text x="0" y="0" style="fill: white; stroke: none; font-size: 12px; text-anchor: end">0.</text>
<polyline points="0,50.00 720,50.00" style="vector-effect: non-scaling-stroke; stroke: #202020" transform="scale(1,-1.265823)"/>
<text x="0" y="-63" style="fill: white; stroke: none; font-size: 12px; text-anchor: end">50.</text>
<polyline points="0,100.00 720,100.00" style="vector-effect: non-scaling-stroke; stroke: #202020" transform="scale(1,-1.265823)"/>
<text x="0" y="-126" style="fill: white; stroke: none; font-size: 12px; text-anchor: end">100.</text>
<polyline points="0,150.00 720,150.00" style="vector-effect: non-scaling-stroke; stroke: #202020" transform="scale(1,-1.265823)"/>
<text x="0" y="-189" style="fill: white; stroke: none; font-size: 12px; text-anchor: end">150.</text>
<polyline points="0,0 0,-200" style="vector-effect: non-scaling-stroke; stroke: #202020" transform="scale(6.000000,1)"/>
<text x="0" y="10" style="fill: white; stroke: none; font-size: 12px; text-anchor: start" transform="rotate(45,0,0)">14:01:43</text>
<polyline points="12,0 12,-200" style="vector-effect: non-scaling-stroke; stroke: #202020" transform="scale(6.000000,1)"/>
<text x="72" y="10" style="fill: white; stroke: none; font-size: 12px; text-anchor: start" transform="rotate(45,72,0)">14:01:55</text>
<polyline points="24,0 24,-200" style="vector-effect: non-scaling-stroke; stroke: #202020" transform="scale(6.000000,1)"/>
<text x="144" y="10" style="fill: white; stroke: none; font-size: 12px; text-anchor: start" transform="rotate(45,144,0)">14:02:07</text>
<polyline points="36,0 36,-200" style="vector-effect: non-scaling-stroke; stroke: #202020" transform="scale(6.000000,1)"/>
<text x="216" y="10" style="fill: white; stroke: none; font-size: 12px; text-anchor: start" transform="rotate(45,216,0)">14:02:19</text>
<polyline points="48,0 48,-200" style="vector-effect: non-scaling-stroke; stroke: #202020" transform="scale(6.000000,1)"/>
<text x="288" y="10" style="fill: white; stroke: none; font-size: 12px; text-anchor: start" transform="rotate(45,288,0)">14:02:31</text>
<polyline points="60,0 60,-200" style="vector-effect: non-scaling-stroke; stroke: #202020" transform="scale(6.000000,1)"/>
<text x="360" y="10" style="fill: white; stroke: none; font-size: 12px; text-anchor: start" transform="rotate(45,360,0)">14:02:43</text>
<polyline points="72,0 72,-200" style="vector-effect: non-scaling-stroke; stroke: #202020" transform="scale(6.000000,1)"/>
<text x="432" y="10" style="fill: white; stroke: none; font-size: 12px; text-anchor: start" transform="rotate(45,432,0)">14:02:55</text>
<polyline points="84,0 84,-200" style="vector-effect: non-scaling-stroke; stroke: #202020" transform="scale(6.000000,1)"/>
<text x="504" y="10" style="fill: white; stroke: none; font-size: 12px; text-anchor: start" transform="rotate(45,504,0)">14:03:07</text>
<polyline points="96,0 96,-200" style="vector-effect: non-scaling-stroke; stroke: #202020" transform="scale(6.000000,1)"/>
<text x="576" y="10" style="fill: white; stroke: none; font-size: 12px; text-anchor: start" transform="rotate(45,576,0)">14:03:19</text>
<polyline points="108,0 108,-200" style="vector-effect: non-scaling-stroke; stroke: #202020" transform="scale(6.000000,1)"/>
<text x="648" y="10" style="fill: white; stroke: none; font-size: 12px; text-anchor: start" transform="rotate(45,648,0)">14:03:31</text>
<polyline points="120,0 120,-200" style="vector-effect: non-scaling-stroke; stroke: #202020" transform="scale(6.000000,1)"/>
<text x="720" y="10" style="fill: white; stroke: none; font-size: 12px; text-anchor: start" transform="rotate(45,720,0)">14:03:43</text>
<text x="-10" y="30" style="fill: yellow; stroke: none; font-size: 12px; text-anchor: end">UTC</text>
<path id="g1p0" d=" M1,17.00 L2,0.00 L3,0.00 L4,0.00 L5,0.00 L6,2.00 L7,0.00 L8,0.00 L9,0.00 L10,0.00 L11,2.00 L12,0.00 L13,0.00 L14,20.00 L15,0.00 L16,118.00 L17,112.00 L18,7.00 L19,158.00 L20,61.00 L21,12.00 L22,0.00 L23,0.00 L24,0.00 L25,0.00 L26,0.00 L27,2.00 L28,0.00 L29,0.00 L30,0.00 L31,0.00 L32,2.00 L33,0.00 L34,0.00 L35,0.00 L36,0.00 L37,2.00 L38,0.00 L39,0.00 L40,0.00 L41,0.00 L42,0.00 L43,2.00 L44,0.00 L45,0.00 L46,0.00 L47,0.00 L48,0.00 L49,2.00 L50,87.00 L51,0.00 L52,0.00 L53,0.00 L54,0.00 L55,4.00 L56,0.00 L57,0.00 L58,0.00 L59,0.00 L60,2.00 L61,0.00 L62,0.00 L63,0.00 L64,0.00 L65,0.00 L66,2.00 L67,0.00 L68,0.00 L69,0.00 L70,0.00 L71,0.00 L72,2.00 L73,0.00 L74,0.00 L75,0.00 L76,0.00 L77,0.00 L78,2.00 L79,0.00 L80,0.00 L81,2.00 L82,0.00 L83,0.00 L84,2.00 L85,0.00 L86,9.00 L87,0.00 L88,0.00 L89,0.00 L90,2.00 L91,0.00 L92,0.00 L93,0.00 L94,0.00 L95,0.00 L96,2.00 L97,0.00 L98,0.00 L99,0.00 L100,0.00 L101,0.00 L102,2.00 L103,0.00 L104,0.00 L105,0.00 L106,0.00 L107,0.00 L108,2.00 L109,0.00 L110,0.00 L111,0.00 L112,0.00 L113,0.00 L114,2.00 L115,0.00 L116,1.00 L117,0.00 L118,0.00 L119,0.00 L120,2.00" style="vector-effect: non-scaling-stroke; stroke: #00cc00; stroke-width: 1; fill-opacity: 0" transform="scale(6.000000,-1.265823)"/>
<path id="g1p1" d=" M1,0.00 L2,0.00 L3,0.00 L4,0.00 L5,0.00 L6,0.00 L7,0.00 L8,0.00 L9,0.00 L10,0.00 L11,0.00 L12,0.00 L13,0.00 L14,0.00 L15,0.00 L16,0.00 L17,1.00 L18,0.00 L19,0.00 L20,0.00 L21,0.00 L22,0.00 L23,0.00 L24,0.00 L25,0.00 L26,0.00 L27,0.00 L28,0.00 L29,0.00 L30,0.00 L31,0.00 L32,0.00 L33,0.00 L34,0.00 L35,0.00 L36,0.00 L37,0.00 L38,0.00 L39,0.00 L40,0.00 L41,0.00 L42,0.00 L43,0.00 L44,0.00 L45,0.00 L46,0.00 L47,0.00 L48,0.00 L49,0.00 L50,0.00 L51,0.00 L52,0.00 L53,0.00 L54,0.00 L55,0.00 L56,0.00 L57,0.00 L58,0.00 L59,0.00 L60,0.00 L61,0.00 L62,0.00 L63,0.00 L64,0.00 L65,0.00 L66,0.00 L67,0.00 L68,0.00 L69,0.00 L70,0.00 L71,0.00 L72,0.00 L73,0.00 L74,0.00 L75,0.00 L76,0.00 L77,0.00 L78,0.00 L79,0.00 L80,0.00 L81,0.00 L82,0.00 L83,0.00 L84,0.00 L85,0.00 L86,0.00 L87,0.00 L88,0.00 L89,0.00 L90,0.00 L91,0.00 L92,0.00 L93,0.00 L94,0.00 L95,0.00 L96,0.00 L97,0.00 L98,0.00 L99,0.00 L100,0.00 L101,0.00 L102,0.00 L103,0.00 L104,0.00 L105,0.00 L106,0.00 L107,0.00 L108,0.00 L109,0.00 L110,0.00 L111,0.00 L112,0.00 L113,0.00 L114,0.00 L115,0.00 L116,0.00 L117,0.00 L118,0.00 L119,0.00 L120,0.00" style="vector-effect: non-scaling-stroke; stroke: #ff00bf; stroke-width: 1; fill-opacity: 0" transform="scale(6.000000,-1.265823)"/>
<path id="g1p2" d=" M1,17.00 L2,0.00 L3,0.00 L4,0.00 L5,0.00 L6,2.00 L7,0.00 L8,0.00 L9,0.00 L10,0.00 L11,2.00 L12,0.00 L13,0.00 L14,20.00 L15,0.00 L16,118.00 L17,111.00 L18,7.00 L19,158.00 L20,61.00 L21,12.00 L22,0.00 L23,0.00 L24,0.00 L25,0.00 L26,0.00 L27,2.00 L28,0.00 L29,0.00 L30,0.00 L31,0.00 L32,2.00 L33,0.00 L34,0.00 L35,0.00 L36,0.00 L37,2.00 L38,0.00 L39,0.00 L40,0.00 L41,0.00 L42,0.00 L43,2.00 L44,0.00 L45,0.00 L46,0.00 L47,0.00 L48,0.00 L49,2.00 L50,87.00 L51,0.00 L52,0.00 L53,0.00 L54,0.00 L55,4.00 L56,0.00 L57,0.00 L58,0.00 L59,0.00 L60,2.00 L61,0.00 L62,0.00 L63,0.00 L64,0.00 L65,0.00 L66,2.00 L67,0.00 L68,0.00 L69,0.00 L70,0.00 L71,0.00 L72,2.00 L73,0.00 L74,0.00 L75,0.00 L76,0.00 L77,0.00 L78,2.00 L79,0.00 L80,0.00 L81,2.00 L82,0.00 L83,0.00 L84,2.00 L85,0.00 L86,9.00 L87,0.00 L88,0.00 L89,0.00 L90,2.00 L91,0.00 L92,0.00 L93,0.00 L94,0.00 L95,0.00 L96,2.00 L97,0.00 L98,0.00 L99,0.00 L100,0.00 L101,0.00 L102,2.00 L103,0.00 L104,0.00 L105,0.00 L106,0.00 L107,0.00 L108,2.00 L109,0.00 L110,0.00 L111,0.00 L112,0.00 L113,0.00 L114,2.00 L115,0.00 L116,1.00 L117,0.00 L118,0.00 L119,0.00 L120,2.00" style="vector-effect: non-scaling-stroke; stroke: #00ffff; stroke-width: 1; fill-opacity: 0" transform="scale(6.000000,-1.265823)"/>
</g>
<rect x="0" y="310" height="300" width="1050"/>
<text x="0" y="330" style="fill: yellow; stroke: none">I/O and transfer rate statistics (2)
<tspan x="795" y="335" style="fill: yellow; stroke: none; font-size: 12px">(Min, Max values)</tspan>
</text>
<polyline points="70,360 70,560 790,560" stroke="white" stroke-width="2"/>
<text x="795" y="360" style="fill: #ff0000; stroke: none; font-size: 12px">bread/s (0.00, 64.00)</text>
<text x="795" y="375" style="fill: #e85f00; stroke: none; font-size: 12px">bwrtn/s (0.00, 2736.00)</text>
<g transform="translate(70,560)">
<text x="0" y="0" style="fill: white; stroke: none; font-size: 12px; text-anchor: end">0.</text>
<polyline points="0,900.00 720,900.00" style="vector-effect: non-scaling-stroke; stroke: #202020" transform="scale(1,-0.073099)"/>
<text x="0" y="-65" style="fill: white; stroke: none; font-size: 12px; text-anchor: end">900.</text>
<polyline points="0,1800.00 720,1800.00" style="vector-effect: non-scaling-stroke; stroke: #202020" transform="scale(1,-0.073099)"/>
<text x="0" y="-131" style="fill: white; stroke: none; font-size: 12px; text-anchor: end">1800.</text>
<polyline points="0,2700.00 720,2700.00" style="vector-effect: non-scaling-stroke; stroke: #202020" transform="scale(1,-0.073099)"/>
<text x="0" y="-197" style="fill: white; stroke: none; font-size: 12px; text-anchor: end">2700.</text>
<polyline points="0,0 0,-200" style="vector-effect: non-scaling-stroke; stroke: #202020" transform="scale(6.000000,1)"/>
<text x="0" y="10" style="fill: white; stroke: none; font-size: 12px; text-anchor: start" transform="rotate(45,0,0)">14:01:43</text>
<polyline points="12,0 12,-200" style="vector-effect: non-scaling-stroke; stroke: #202020" transform="scale(6.000000,1)"/>
<text x="72" y="10" style="fill: white; stroke: none; font-size: 12px; text-anchor: start" transform="rotate(45,72,0)">14:01:55</text>
<polyline points="24,0 24,-200" style="vector-effect: non-scaling-stroke; stroke: #202020" transform="scale(6.000000,1)"/>
<text x="144" y="10" style="fill: white; stroke: none; font-size: 12px; text-anchor: start" transform="rotate(45,144,0)">14:02:07</text>
<polyline points="36,0 36,-200" style="vector-effect: non-scaling-stroke; stroke: #202020" transform="scale(6.000000,1)"/>
<text x="216" y="10" style="fill: white; stroke: none; font-size: 12px; text-anchor: start" transform="rotate(45,216,0)">14:02:19</text>
<polyline points="48,0 48,-200" style="vector-effect: non-scaling-stroke; stroke: #202020" transform="scale(6.000000,1)"/>
<text x="288" y="10" style="fill: white; stroke: none; font-size: 12px; text-anchor: start" transform="rotate(45,288,0)">14:02:31</text>
<polyline points="60,0 60,-200" style="vector-effect: non-scaling-stroke; stroke: #202020" transform="scale(6.000000,1)"/>
<text x="360" y="10" style="fill: white; stroke: none; font-size: 12px; text-anchor: start" transform="rotate(45,360,0)">14:02:43</text>
<polyline points="72,0 72,-200" style="vector-effect: non-scaling-stroke; stroke: #202020" transform="scale(6.000000,1)"/>
<text x="432" y="10" style="fill: white; stroke: none; font-size: 12px; text-anchor: start" transform="rotate(45,432,0)">14:02:55</text>
<polyline points="84,0 84,-200" style="vector-effect: non-scaling-stroke; stroke: #202020" transform="scale(6.000000,1)"/>
<text x="504" y="10" style="fill: white; stroke: none; font-size: 12px; text-anchor: start" transform="rotate(45,504,0)">14:03:07</text>
<polyline points="96,0 96,-200" style="vector-effect: non-scaling-stroke; stroke: #202020" transform="scale(6.000000,1)"/>
<text x="576" y="10" style="fill: white; stroke: none; font-size: 12px; text-anchor: start" transform="rotate(45,576,0)">14:03:19</text>
<polyline points="108,0 108,-200" style="vector-effect: non-scaling-stroke; stroke: #202020" transform="scale(6.000000,1)"/>
<text x="648" y="10" style="fill: white; stroke: none; font-size: 12px; text-anchor: start" transform="rotate(45,648,0)">14:03:31</text>
<polyline points="120,0 120,-200" style="vector-effect: non-scaling-stroke; stroke: #202020" transform="scale(6.000000,1)"/>
<text x="720" y="10" style="fill: white; stroke: none; font-size: 12px; text-anchor: start" transform="rotate(45,720,0)">14:03:43</text>
<text x="-10" y="30" style="fill: yellow; stroke: none; font-size: 12px; text-anchor: end">UTC</text>
<path id="g1p3" d=" M1,0.00 L2,0.00 L3,0.00 L4,0.00 L5,0.00 L6,0.00 L7,0.00 L8,0.00 L9,0.00 L10,0.00 L11,0.00 L12,0.00 L13,0.00 L14,0.00 L15,0.00 L16,0.00 L17,64.00 L18,0.00 L19,0.00 L20,0.00 L21,0.00 L22,0.00 L23,0.00 L24,0.00 L25,0.00 L26,0.00 L27,0.00 L28,0.00 L29,0.00 L30,0.00 L31,0.00 L32,0.00 L33,0.00 L34,0.00 L35,0.00 L36,0.00 L37,0.00 L38,0.00 L39,0.00 L40,0.00 L41,0.00 L42,0.00 L43,0.00 L44,0.00 L45,0.00 L46,0.00 L47,0.00 L48,0.00 L49,0.00 L50,0.00 L51,0.00 L52,0.00 L53,0.00 L54,0.00 L55,0.00 L56,0.00 L57,0.00 L58,0.00 L59,0.00 L60,0.00 L61,0.00 L62,0.00 L63,0.00 L64,0.00 L65,0.00 L66,0.00 L67,0.00 L68,0.00 L69,0.00 L70,0.00 L71,0.00 L72,0.00 L73,0.00 L74,0.00 L75,0.00 L76,0.00 L77,0.00 L78,0.00 L79,0.00 L80,0.00 L81,0.00 L82,0.00 L83,0.00 L84,0.00 L85,0.00 L86,0.00 L87,0.00 L88,0.00 L89,0.00 L90,0.00 L91,0.00 L92,0.00 L93,0.00 L94,0.00 L95,0.00 L96,0.00 L97,0.00 L98,0.00 L99,0.00 L100,0.00 L101,0.00 L102,0.00 L103,0.00 L104,0.00 L105,0.00 L106,0.00 L107,0.00 L108,0.00 L109,0.00 L110,0.00 L111,0.00 L112,0.00 L113,0.00 L114,0.00 L115,0.00 L116,0.00 L117,0.00 L118,0.00 L119,0.00 L120,0.00" style="vector-effect: non-scaling-stroke; stroke: #ff0000; stroke-width: 1; fill-opacity: 0" transform="scale(6.000000,-0.073099)"/>
<path id="g1p4" d=" M1,120.00 L2,0.00 L3,0.00 L4,0.00 L5,0.00 L6,264.00 L7,0.00 L8,0.00 L9,0.00 L10,0.00 L11,48.00 L12,0.00 L13,0.00 L14,256.00 L15,0.00 L16,2040.00 L17,1592.00 L18,48.00 L19,2736.00 L20,656.00 L21,464.00 L22,0.00 L23,0.00 L24,0.00 L25,0.00 L26,0.00 L27,80.00 L28,0.00 L29,0.00 L30,0.00 L31,0.00 L32,24.00 L33,0.00 L34,0.00 L35,0.00 L36,0.00 L37,32.00 L38,0.00 L39,0.00 L40,0.00 L41,0.00 L42,0.00 L43,24.00 L44,0.00 L45,0.00 L46,0.00 L47,0.00 L48,0.00 L49,24.00 L50,1176.00 L51,0.00 L52,0.00 L53,0.00 L54,0.00 L55,80.00 L56,0.00 L57,0.00 L58,0.00 L59,0.00 L60,48.00 L61,0.00 L62,0.00 L63,0.00 L64,0.00 L65,0.00 L66,24.00 L67,0.00 L68,0.00 L69,0.00 L70,0.00 L71,0.00 L72,24.00 L73,0.00 L74,0.00 L75,0.00 L76,0.00 L77,0.00 L78,24.00 L79,0.00 L80,0.00 L81,224.00 L82,0.00 L83,0.00 L84,64.00 L85,0.00 L86,80.00 L87,0.00 L88,0.00 L89,0.00 L90,24.00 L91,0.00 L92,0.00 L93,0.00 L94,0.00 L95,0.00 L96,24.00 L97,0.00 L98,0.00 L99,0.00 L100,0.00 L101,0.00 L102,24.00 L103,0.00 L104,0.00 L105,0.00 L106,0.00 L107,0.00 L108,24.00 L109,0.00 L110,0.00 L111,0.00 L112,0.00 L113,0.00 L114,24.00 L115,0.00 L116,264.00 L117,0.00 L118,0.00 L119,0.00 L120,48.00" style="vector-effect: non-scaling-stroke; stroke: #e85f00; stroke-width: 1; fill-opacity: 0" transform="scale(6.000000,-0.073099)"/>
</g>
</g>
<!-- Actual canvas height: 980 -->
</svg>
